<svg width="20" height="20" viewBox="0 0 20 20" fill="none" xmlns="http://www.w3.org/2000/svg">
    <path
        d="M10.335 2C5.73215 2 2 5.73215 2 10.335C2 14.9379 5.73215 18.67 10.335 18.67C14.9379 18.67 18.67 14.9379 18.67 10.335C18.67 5.73215 14.9379 2 10.335 2ZM10.335 15.1723C9.92383 15.1723 9.5908 14.8392 9.5908 14.4281C9.5908 14.0169 9.92383 13.6839 10.335 13.6839C10.7462 13.6839 11.0792 14.0169 11.0792 14.4281C11.0792 14.8392 10.7462 15.1723 10.335 15.1723ZM11.5052 11.0885C11.3368 11.1536 11.1918 11.2679 11.0892 11.4166C10.9867 11.5653 10.9313 11.7414 10.9304 11.922V12.3443C10.9304 12.4262 10.8634 12.4932 10.7815 12.4932H9.88848C9.80662 12.4932 9.73964 12.4262 9.73964 12.3443V11.9443C9.73964 11.5146 9.8643 11.0904 10.1099 10.7369C10.3499 10.3908 10.6848 10.1266 11.0792 9.97592C11.7118 9.7322 12.1211 9.20196 12.1211 8.62335C12.1211 7.80287 11.3192 7.13495 10.335 7.13495C9.3508 7.13495 8.54893 7.80287 8.54893 8.62335V8.76475C8.54893 8.84661 8.48195 8.91358 8.40009 8.91358H7.50705C7.42519 8.91358 7.35821 8.84661 7.35821 8.76475V8.62335C7.35821 7.89218 7.67822 7.20937 8.25869 6.70146C8.81684 6.21215 9.55359 5.94424 10.335 5.94424C11.1164 5.94424 11.8532 6.21401 12.4113 6.70146C12.9918 7.20937 13.3118 7.89218 13.3118 8.62335C13.3118 9.69871 12.6029 10.6662 11.5052 11.0885Z"
        fill="white" fill-opacity="0.44"/>
</svg>
