<svg width="20" height="20" viewBox="0 0 20 20" fill="none" xmlns="http://www.w3.org/2000/svg">
    <path fill-rule="evenodd" clip-rule="evenodd"
          d="M14.8073 6.98483H18.3332C18.3332 4.15382 16.6368 2.5 13.7628 2.5H6.23687C3.3628 2.5 1.6665 4.15383 1.6665 6.94873V13.0512C1.6665 15.8462 3.3628 17.5 6.23687 17.5H13.7628C16.6368 17.5 18.3332 15.8462 18.3332 13.0512V12.7912H14.8073C13.1708 12.7912 11.8443 11.4979 11.8443 9.9025C11.8443 8.30708 13.1708 7.01372 14.8073 7.01372V6.98483ZM14.8073 8.22701H17.7109C18.0546 8.22701 18.3332 8.49858 18.3332 8.83367V10.9425C18.3292 11.2759 18.0529 11.5452 17.7109 11.5491H14.8739C14.0455 11.56 13.3211 11.007 13.1332 10.2203C13.0391 9.73192 13.1712 9.228 13.4941 8.8435C13.8169 8.45908 14.2976 8.23339 14.8073 8.22701ZM14.9332 10.4442H15.2073C15.5591 10.4442 15.8443 10.1661 15.8443 9.82308C15.8443 9.48008 15.5591 9.202 15.2073 9.202H14.9332C14.7649 9.20008 14.6028 9.26383 14.4832 9.37917C14.3635 9.4945 14.2961 9.65175 14.2962 9.81583C14.2961 10.1601 14.5802 10.4402 14.9332 10.4442ZM5.61465 6.98483H10.3183C10.6702 6.98483 10.9554 6.70677 10.9554 6.36374C10.9554 6.02072 10.6702 5.74266 10.3183 5.74266H5.61465C5.2657 5.74263 4.98167 6.01633 4.97761 6.35652C4.9776 6.70073 5.26163 6.98087 5.61465 6.98483Z"
          fill="white"/>
</svg>
