<svg width="20" height="20" viewBox="0 0 20 20" fill="none" xmlns="http://www.w3.org/2000/svg">
    <path fill-rule="evenodd" clip-rule="evenodd"
          d="M11.1082 12.2994L13.5165 9.19192L13.4832 9.20859C13.6165 9.02525 13.6415 8.79192 13.5499 8.58359C13.459 8.37525 13.2582 8.23359 13.0424 8.21692C12.8165 8.19192 12.5924 8.29192 12.4582 8.47525L10.4424 11.0836L8.13317 9.26692C7.9915 9.15859 7.82484 9.11609 7.65817 9.13359C7.49234 9.15859 7.34234 9.24942 7.2415 9.38275L4.77567 12.5919L4.72484 12.6669C4.58317 12.9328 4.64984 13.2744 4.89984 13.4586C5.0165 13.5336 5.1415 13.5836 5.28317 13.5836C5.47567 13.5919 5.65817 13.4911 5.77484 13.3336L7.8665 10.6411L10.2415 12.4253L10.3165 12.4744C10.5832 12.6161 10.9165 12.5503 11.1082 12.2994ZM12.3249 3.15025C15.5 3.15025 16.8249 4.7451 16.8249 7.66692V13.8328C16.8249 16.6586 15.1582 18.3336 12.3249 18.3336H6.16734C3.33317 18.3336 1.6665 16.6586 1.6665 13.8328V7.66692C1.6665 4.83359 3.33317 3.15025 6.16734 3.15025H12.3249Z"
          fill="white" fill-opacity="0.44"/>
</svg>
