<svg width="29" height="29" viewBox="0 0 29 29" fill="none" xmlns="http://www.w3.org/2000/svg">
    <path fill-rule="evenodd" clip-rule="evenodd"
          d="M21.4708 10.128H26.5834C26.5834 6.02305 24.1237 3.625 19.9564 3.625H9.04378C4.87638 3.625 2.41675 6.02305 2.41675 10.0757V18.9243C2.41675 22.9769 4.87638 25.375 9.04378 25.375H19.9564C24.1237 25.375 26.5834 22.9769 26.5834 18.9243V18.5473H21.4708C19.098 18.5473 17.1745 16.672 17.1745 14.3586C17.1745 12.0453 19.098 10.1699 21.4708 10.1699V10.128ZM21.4708 11.9292H25.6812C26.1795 11.9292 26.5834 12.3229 26.5834 12.8088V15.8666C26.5776 16.3501 26.1771 16.7406 25.6812 16.7462H21.5675C20.3663 16.762 19.3159 15.9602 19.0434 14.8194C18.907 14.1113 19.0985 13.3806 19.5667 12.8231C20.0349 12.2657 20.7318 11.9384 21.4708 11.9292ZM21.6534 15.144H22.0508C22.561 15.144 22.9745 14.7408 22.9745 14.2435C22.9745 13.7461 22.561 13.3429 22.0508 13.3429H21.6534C21.4095 13.3401 21.1744 13.4326 21.0009 13.5998C20.8274 13.767 20.7296 13.995 20.7298 14.233C20.7296 14.7321 21.1416 15.1382 21.6534 15.144ZM8.14157 10.128H14.9619C15.4721 10.128 15.8857 9.72481 15.8857 9.22743C15.8857 8.73005 15.4721 8.32685 14.9619 8.32685H8.14157C7.63558 8.32682 7.22374 8.72368 7.21786 9.21696C7.21783 9.71605 7.62968 10.1223 8.14157 10.128Z"
          fill="url(#paint0_linear)"/>
    <defs>
        <linearGradient id="paint0_linear" x1="5.61528" y1="7.25" x2="21.8208" y2="23.2999"
                        gradientUnits="userSpaceOnUse">
            <stop stop-color="#07EFF7"/>
            <stop offset="0.541667" stop-color="#2A29FF"/>
            <stop offset="1" stop-color="#F590A1"/>
        </linearGradient>
    </defs>
</svg>
