<svg width="20" height="20" viewBox="0 0 20 20" fill="none" xmlns="http://www.w3.org/2000/svg">
    <path fill-rule="evenodd" clip-rule="evenodd"
          d="M16.0014 3.60722C16.6221 3.81151 17.0415 4.38434 17.0415 5.02173L17.0834 10.5531C17.0917 12.2283 16.4795 13.8544 15.3556 15.1301C14.844 15.7184 14.1813 16.2169 13.3426 16.6663L10.3651 18.2597C10.2728 18.3088 10.1722 18.3333 10.0716 18.3333C9.97089 18.3333 9.86189 18.3088 9.76956 18.2597L6.76692 16.7072C5.91979 16.2659 5.25719 15.7756 4.73717 15.1954C3.59649 13.937 2.95905 12.3108 2.95067 10.6357L2.91712 5.10263C2.90873 4.46524 3.3281 3.89404 3.94037 3.68077L9.45089 1.75308C9.77797 1.63785 10.1386 1.63785 10.4741 1.75308L16.0014 3.60722ZM12.0174 11.7388C12.2606 11.5018 12.2606 11.1096 12.0174 10.8727L10.8851 9.76866L12.0174 8.66624C12.2606 8.42933 12.2606 8.04523 12.0174 7.79927C11.7741 7.56229 11.3716 7.56229 11.1283 7.79927L9.99606 8.90324L8.86372 7.79927C8.62056 7.56229 8.22632 7.56229 7.9747 7.79927C7.73147 8.04523 7.73147 8.42933 7.9747 8.66624L9.10697 9.76866L7.9747 10.8727C7.73147 11.1096 7.73147 11.5018 7.9747 11.7388C8.10051 11.8614 8.25987 11.9177 8.41922 11.9177C8.58697 11.9177 8.74631 11.8614 8.86372 11.7388L9.99606 10.6357L11.1283 11.7388C11.2541 11.8614 11.4135 11.9177 11.5729 11.9177C11.7322 11.9177 11.9 11.8614 12.0174 11.7388Z"
          fill="#F84960" fill-opacity="0.44"/>
</svg>
