<svg width="20" height="20" viewBox="0 0 20 20" fill="none" xmlns="http://www.w3.org/2000/svg">
    <path fill-rule="evenodd" clip-rule="evenodd"
          d="M7.43795 13.6583H11.9264C12.2647 13.6583 12.5453 13.375 12.5453 13.0333C12.5453 12.6917 12.2647 12.4167 11.9264 12.4167H7.43795C7.09967 12.4167 6.81915 12.6917 6.81915 13.0333C6.81915 13.375 7.09967 13.6583 7.43795 13.6583ZM10.2268 8.25H7.43795C7.09967 8.25 6.81915 8.53333 6.81915 8.875C6.81915 9.21666 7.09967 9.49166 7.43795 9.49166H10.2268C10.565 9.49166 10.8456 9.21666 10.8456 8.875C10.8456 8.53333 10.565 8.25 10.2268 8.25ZM16.1149 7.52134C16.3088 7.5191 16.52 7.51666 16.7119 7.51666C16.9182 7.51666 17.0832 7.68333 17.0832 7.89166V14.5917C17.0832 16.6583 15.4248 18.3333 13.3786 18.3333H6.8109C4.66568 18.3333 2.9165 16.575 2.9165 14.4083V5.425C2.9165 3.35833 4.58317 1.66666 6.63763 1.66666H11.0436C11.2581 1.66666 11.4231 1.84166 11.4231 2.05V4.73333C11.4231 6.25833 12.669 7.50833 14.1789 7.51666C14.5316 7.51666 14.8425 7.5193 15.1146 7.52161C15.3263 7.52341 15.5144 7.525 15.6805 7.525C15.798 7.525 15.9503 7.52324 16.1149 7.52134ZM16.3424 6.305C15.6642 6.3075 14.8647 6.305 14.2896 6.29916C13.3771 6.29916 12.6254 5.54 12.6254 4.61833V2.42166C12.6254 2.0625 13.0569 1.88416 13.3037 2.14333C13.7502 2.6123 14.3638 3.25695 14.9748 3.89864C15.5839 4.5386 16.1903 5.17561 16.6254 5.6325C16.8663 5.885 16.6898 6.30416 16.3424 6.305Z"
          fill="white" fill-opacity="0.44"/>
</svg>
