<svg width="20" height="20" viewBox="0 0 20 20" fill="none" xmlns="http://www.w3.org/2000/svg">
    <path fill-rule="evenodd" clip-rule="evenodd"
          d="M17.0021 11.3167C17.3002 11.4751 17.5302 11.7251 17.6919 11.9751C18.0071 12.4917 17.9815 13.1251 17.6749 13.6834L17.0787 14.6834C16.7637 15.2167 16.176 15.5501 15.5714 15.5501C15.2733 15.5501 14.9412 15.4667 14.6687 15.3001C14.4472 15.1584 14.1917 15.1084 13.9192 15.1084C13.0761 15.1084 12.3692 15.8001 12.3437 16.6251C12.3437 17.5834 11.5602 18.3334 10.5808 18.3334H9.42258C8.43474 18.3334 7.6512 17.5834 7.6512 16.6251C7.63417 15.8001 6.92732 15.1084 6.0842 15.1084C5.80317 15.1084 5.54768 15.1584 5.33477 15.3001C5.06224 15.4667 4.72159 15.5501 4.43204 15.5501C3.81887 15.5501 3.23124 15.2167 2.91614 14.6834L2.32851 13.6834C2.01341 13.1417 1.99638 12.4917 2.31148 11.9751C2.44774 11.7251 2.70323 11.4751 2.99279 11.3167C3.23124 11.2001 3.38454 11.0084 3.52931 10.7834C3.95513 10.0667 3.69964 9.12506 2.97575 8.70006C2.13264 8.22508 1.86011 7.16675 2.34554 6.34175L2.91614 5.35841C3.41009 4.53341 4.4661 4.24175 5.31774 4.72508C6.05865 5.12508 7.02099 4.85841 7.45533 4.15008C7.59159 3.91675 7.66823 3.66675 7.6512 3.41675C7.63417 3.09175 7.72785 2.78341 7.88966 2.53341C8.20477 2.01675 8.77533 1.68341 9.39708 1.66675H10.5978C11.2281 1.66675 11.7987 2.01675 12.1137 2.53341C12.2671 2.78341 12.3692 3.09175 12.3437 3.41675C12.3267 3.66675 12.4033 3.91675 12.5396 4.15008C12.9739 4.85841 13.9362 5.12508 14.6857 4.72508C15.5288 4.24175 16.5933 4.53341 17.0787 5.35841L17.6493 6.34175C18.1433 7.16675 17.8707 8.22508 17.0192 8.70006C16.2952 9.12506 16.0397 10.0667 16.4741 10.7834C16.6103 11.0084 16.7637 11.2001 17.0021 11.3167ZM7.59159 10.0084C7.59159 11.3167 8.67316 12.3584 10.0102 12.3584C11.3472 12.3584 12.4033 11.3167 12.4033 10.0084C12.4033 8.70006 11.3472 7.65008 10.0102 7.65008C8.67316 7.65008 7.59159 8.70006 7.59159 10.0084Z"
          fill="white" fill-opacity="0.44"/>
</svg>
