<svg width="20" height="20" viewBox="0 0 20 20" fill="none" xmlns="http://www.w3.org/2000/svg">
    <path fill-rule="evenodd" clip-rule="evenodd"
          d="M1.66699 9.99932C1.66699 5.40018 5.40033 1.66602 10.0003 1.66602C14.6086 1.66602 18.3336 5.40018 18.3336 9.99932C18.3336 14.6002 14.6086 18.3327 10.0003 18.3327C5.40033 18.3327 1.66699 14.6002 1.66699 9.99932ZM9.26698 6.84102C9.26698 6.44185 9.60031 6.10768 10.0003 6.10768C10.4003 6.10768 10.7253 6.44185 10.7253 6.84102V10.5243C10.7253 10.9252 10.4003 11.2493 10.0003 11.2493C9.60031 11.2493 9.26698 10.9252 9.26698 10.5243V6.84102ZM10.0086 13.9002C9.60031 13.9002 9.27531 13.5668 9.27531 13.1668C9.27531 12.7668 9.60031 12.4418 10.0003 12.4418C10.4086 12.4418 10.7336 12.7668 10.7336 13.1668C10.7336 13.5668 10.4086 13.9002 10.0086 13.9002Z"
          fill="white" fill-opacity="0.44"/>
</svg>
