<svg width="20" height="20" viewBox="0 0 20 20" fill="none" xmlns="http://www.w3.org/2000/svg">
    <path fill-rule="evenodd" clip-rule="evenodd"
          d="M6.28832 2.73161C6.4268 2.83158 6.65015 3.06121 6.65015 3.06121C7.51716 3.87382 8.82309 5.89495 9.24242 6.92037C9.25117 6.92037 9.49992 7.53007 9.50967 7.82008V7.85868C9.50967 8.30309 9.26092 8.71883 8.86109 8.93158C8.69625 9.01933 8.2953 9.10092 8.10187 9.14025C8.0378 9.15333 7.9965 9.16175 7.99407 9.16417C7.42256 9.25133 6.54579 9.30867 5.5832 9.30867C4.57281 9.30867 3.65801 9.25133 3.09528 9.14442C3.08552 9.14442 2.57155 9.0385 2.39991 8.97017C2.15219 8.86433 1.9425 8.67033 1.8089 8.42875C1.71332 8.23578 1.6665 8.03189 1.6665 7.82008C1.67528 7.59738 1.81865 7.18167 1.88496 7.01736C2.30433 5.93355 3.67654 3.86392 4.51527 3.0711C4.6024 2.98268 4.70155 2.89005 4.77055 2.82559C4.80735 2.79121 4.83559 2.76483 4.84881 2.75141C5.0585 2.5871 5.31597 2.5 5.59295 2.5C5.8397 2.5 6.08741 2.5772 6.28832 2.73161ZM15.1903 8.46817C15.1903 8.90467 14.8422 9.258 14.4121 9.258C13.982 9.258 13.6338 8.90467 13.6338 8.46817L13.4193 4.65246C13.4193 4.09619 13.864 3.64583 14.4121 3.64583C14.9602 3.64583 15.4039 4.09619 15.4039 4.65246L15.1903 8.46817ZM17.5998 11.0297C17.8475 11.1366 18.0572 11.3296 18.1908 11.5711C18.2863 11.7641 18.3332 11.968 18.3332 12.1808C18.3244 12.4025 18.181 12.8193 18.1138 12.9835C17.6953 14.0664 16.3222 16.1361 15.4844 16.9298C15.3988 17.0162 15.3014 17.107 15.2326 17.1712H15.2325C15.1941 17.2072 15.1645 17.2347 15.1508 17.2486C14.9402 17.4129 14.6837 17.5 14.4077 17.5C14.159 17.5 13.9113 17.4228 13.7113 17.2674C13.5728 17.1684 13.3495 16.9387 13.3495 16.9387C12.4815 16.1272 11.1766 14.105 10.7573 13.0795C10.7475 13.0795 10.4998 12.4708 10.49 12.1808V12.1422C10.49 11.6967 10.7378 11.2811 11.1386 11.0682C11.3031 10.9814 11.7028 10.8997 11.8967 10.8599C11.9614 10.8467 12.0032 10.8382 12.0056 10.8357C12.5771 10.7486 13.4539 10.6912 14.4165 10.6912C15.4268 10.6912 16.3417 10.7486 16.9044 10.8554C16.9132 10.8554 17.4281 10.9613 17.5998 11.0297ZM5.58778 10.7421C5.15769 10.7421 4.80951 11.0955 4.80951 11.5319L4.59495 15.3476C4.59495 15.9038 5.03968 16.3542 5.58778 16.3542C6.13588 16.3542 6.57963 15.9038 6.57963 15.3476L6.36605 11.5319C6.36605 11.0955 6.01788 10.7421 5.58778 10.7421Z"
          fill="white" fill-opacity="0.44"/>
</svg>
