<svg width="46" height="48" viewBox="0 0 46 48" fill="none" xmlns="http://www.w3.org/2000/svg">
    <g clip-path="url(#clip0)">
        <path fill-rule="evenodd" clip-rule="evenodd"
              d="M22.5732 47.5C19.0731 46.3332 10.7732 41.4999 5.57331 31.5C0.373313 21.5 -0.26002 11 0.0733135 7C2.23996 7 7.87324 6.7 13.0732 5.5C18.273 4.30006 21.573 1.66691 22.5732 0.500165V0.5C22.5732 0.500027 22.5732 0.500055 22.5732 0.500082C22.5733 0.500055 22.5733 0.500027 22.5733 0.5V0.500165C23.5735 1.66691 26.8735 4.30006 32.0732 5.5C37.2732 6.7 42.9065 7 45.0732 7C45.4065 11 44.7732 21.5 39.5732 31.5C34.3732 41.4999 26.0734 46.3332 22.5733 47.5C22.5733 47.5 22.5733 47.5 22.5732 47.5Z"
              fill="url(#paint0_linear)"/>
        <path fill-rule="evenodd" clip-rule="evenodd"
              d="M22.5721 44.9998C19.444 43.9568 12.0278 39.6376 7.38128 30.7021C2.73448 21.7659 2.16852 12.383 2.46639 8.80851C4.40254 8.80851 9.43654 8.54042 14.0833 7.46808C18.729 6.39602 21.6776 4.04376 22.5721 3.0008V3C22.5722 3.00013 22.5723 3.00027 22.5724 3.0004C22.5725 3.00027 22.5727 3.00013 22.5728 3V3.0008C23.4672 4.04376 26.4159 6.39602 31.0615 7.46808C35.7083 8.54042 40.7423 8.80851 42.6785 8.80851C42.9763 12.383 42.4104 21.7659 37.7636 30.7021C33.1171 39.6376 25.7008 43.9568 22.5728 44.9998V45C22.5727 44.9999 22.5725 44.9999 22.5724 44.9999C22.5723 44.9999 22.5722 44.9999 22.5721 45V44.9998Z"
              fill="#241C2F"/>
        <path fill-rule="evenodd" clip-rule="evenodd"
              d="M14.667 23.9993C14.667 19.4002 18.4003 15.666 23.0003 15.666C27.6086 15.666 31.3336 19.4002 31.3336 23.9993C31.3336 28.6002 27.6086 32.3327 23.0003 32.3327C18.4003 32.3327 14.667 28.6002 14.667 23.9993ZM22.267 20.841C22.267 20.4418 22.6003 20.1077 23.0003 20.1077C23.4003 20.1077 23.7253 20.4418 23.7253 20.841V24.5243C23.7253 24.9252 23.4003 25.2493 23.0003 25.2493C22.6003 25.2493 22.267 24.9252 22.267 24.5243V20.841ZM23.0086 27.9002C22.6003 27.9002 22.2753 27.5668 22.2753 27.1668C22.2753 26.7668 22.6003 26.4418 23.0003 26.4418C23.4086 26.4418 23.7336 26.7668 23.7336 27.1668C23.7336 27.5668 23.4086 27.9002 23.0086 27.9002Z"
              fill="#F84960"/>
    </g>
    <defs>
        <linearGradient id="paint0_linear" x1="7.17118e-07" y1="4" x2="38.5" y2="42.5" gradientUnits="userSpaceOnUse">
            <stop stop-color="#07EFF7"/>
            <stop offset="0.5625" stop-color="#2A29FF"/>
            <stop offset="1" stop-color="#F590A1"/>
        </linearGradient>
        <clipPath id="clip0">
            <rect width="46" height="48" fill="white"/>
        </clipPath>
    </defs>
</svg>
