<svg width="46" height="48" viewBox="0 0 46 48" fill="none" xmlns="http://www.w3.org/2000/svg">
    <g clip-path="url(#clip0)">
        <path fill-rule="evenodd" clip-rule="evenodd"
              d="M22.5732 47.5C19.0731 46.3332 10.7732 41.4999 5.57331 31.5C0.373313 21.5 -0.26002 11 0.0733135 7C2.23996 7 7.87324 6.7 13.0732 5.5C18.273 4.30006 21.573 1.66691 22.5732 0.500165V0.5C22.5732 0.500027 22.5732 0.500055 22.5732 0.500082C22.5733 0.500055 22.5733 0.500027 22.5733 0.5V0.500165C23.5735 1.66691 26.8735 4.30006 32.0732 5.5C37.2732 6.7 42.9065 7 45.0732 7C45.4065 11 44.7732 21.5 39.5732 31.5C34.3732 41.4999 26.0734 46.3332 22.5733 47.5C22.5733 47.5 22.5733 47.5 22.5732 47.5Z"
              fill="url(#paint0_linear)"/>
        <path fill-rule="evenodd" clip-rule="evenodd"
              d="M22.5721 44.9998C19.444 43.9568 12.0278 39.6376 7.38128 30.7021C2.73448 21.7659 2.16852 12.383 2.46639 8.80851C4.40254 8.80851 9.43654 8.54042 14.0833 7.46808C18.729 6.39602 21.6776 4.04376 22.5721 3.0008V3C22.5722 3.00013 22.5723 3.00027 22.5724 3.0004C22.5725 3.00027 22.5727 3.00013 22.5728 3V3.0008C23.4672 4.04376 26.4159 6.39602 31.0615 7.46808C35.7083 8.54042 40.7423 8.80851 42.6785 8.80851C42.9763 12.383 42.4104 21.7659 37.7636 30.7021C33.1171 39.6376 25.7008 43.9568 22.5728 44.9998V45C22.5727 44.9999 22.5725 44.9999 22.5724 44.9999C22.5723 44.9999 22.5722 44.9999 22.5721 45V44.9998Z"
              fill="#241C2F"/>
        <path
            d="M22.5 30C25.5376 30 28 27.5376 28 24.5C28 21.4624 25.5376 19 22.5 19C19.4624 19 17 21.4624 17 24.5C17 27.5376 19.4624 30 22.5 30Z"
            fill="white"/>
        <path
            d="M33.0975 23.5715L31.2375 21.4415L31.4975 18.6215C31.5475 18.1215 31.2075 17.6615 30.7275 17.5515L27.9675 16.9315L26.5275 14.4915C26.2675 14.0615 25.7375 13.8815 25.2675 14.0815L22.6775 15.1915L20.0875 14.0815C19.6275 13.8815 19.0875 14.0615 18.8375 14.4915L17.3875 16.9215L14.6375 17.5415C14.1475 17.6515 13.8075 18.1015 13.8575 18.6015L14.1175 21.4315L12.2475 23.5715C11.9175 23.9515 11.9175 24.5115 12.2475 24.8915L14.1175 27.0215L13.8575 29.8515C13.8075 30.3515 14.1475 30.8115 14.6275 30.9215L17.3875 31.5515L18.8275 33.9815C19.0875 34.4115 19.6275 34.5915 20.0875 34.3915L22.6775 33.2615L25.2675 34.3715C25.7275 34.5715 26.2675 34.3915 26.5175 33.9615L27.9575 31.5315L30.7175 30.9015C31.2075 30.7915 31.5375 30.3315 31.4875 29.8315L31.2275 27.0115L33.0875 24.8815C33.2505 24.7028 33.3417 24.4702 33.3436 24.2284C33.3454 23.9866 33.2578 23.7526 33.0975 23.5715ZM20.9075 27.0615L18.7875 24.9415C18.6949 24.8489 18.6215 24.739 18.5714 24.618C18.5213 24.4971 18.4955 24.3674 18.4955 24.2365C18.4955 24.1056 18.5213 23.9759 18.5714 23.8549C18.6215 23.734 18.6949 23.6241 18.7875 23.5315C18.8801 23.4389 18.99 23.3655 19.111 23.3154C19.2319 23.2653 19.3616 23.2395 19.4925 23.2395C19.6234 23.2395 19.7531 23.2653 19.874 23.3154C19.995 23.3655 20.1049 23.4389 20.1975 23.5315L21.6075 24.9415L25.1475 21.4015C25.2401 21.3089 25.35 21.2355 25.471 21.1854C25.5919 21.1353 25.7216 21.1095 25.8525 21.1095C25.9834 21.1095 26.1131 21.1353 26.234 21.1854C26.355 21.2355 26.4649 21.3089 26.5575 21.4015C26.6501 21.4941 26.7235 21.604 26.7736 21.7249C26.8237 21.8459 26.8495 21.9756 26.8495 22.1065C26.8495 22.2374 26.8237 22.3671 26.7736 22.488C26.7235 22.609 26.6501 22.7189 26.5575 22.8115L22.3175 27.0515C21.9375 27.4515 21.2975 27.4515 20.9075 27.0615Z"
            fill="url(#paint1_linear)"/>
    </g>
    <defs>
        <linearGradient id="paint0_linear" x1="7.17118e-07" y1="4" x2="38.5" y2="42.5" gradientUnits="userSpaceOnUse">
            <stop stop-color="#07EFF7"/>
            <stop offset="0.5625" stop-color="#2A29FF"/>
            <stop offset="1" stop-color="#F590A1"/>
        </linearGradient>
        <linearGradient id="paint1_linear" x1="-1.5" y1="3.99999" x2="33" y2="44" gradientUnits="userSpaceOnUse">
            <stop stop-color="#07EFF7"/>
            <stop offset="0.536458" stop-color="#2A29FF"/>
            <stop offset="1" stop-color="#F590A1"/>
        </linearGradient>
        <clipPath id="clip0">
            <rect width="46" height="48" fill="white"/>
        </clipPath>
    </defs>
</svg>
