<svg id="Слой_2" data-name="Слой 2" xmlns="http://www.w3.org/2000/svg" width="14.17" height="16.67"
     viewBox="0 0 14.17 16.67">
    <defs>
        <style>.cls-1{fill:#e2d92d;}</style>
    </defs>
    <path class="cls-1"
          d="M17.05,5a1.5,1.5,0,0,0-1-1.41L10.48,1.75a1.58,1.58,0,0,0-1,0L3.94,3.68a1.49,1.49,0,0,0-1,1.42l0,5.53a6.9,6.9,0,0,0,1.78,4.56,7,7,0,0,0,2,1.52l3,1.55a.66.66,0,0,0,.3.07.6.6,0,0,0,.3-.07l3-1.59a6.75,6.75,0,0,0,3.74-6.12Zm-7,7.77a3.12,3.12,0,1,1,3.12-3.12A3.12,3.12,0,0,1,10,12.79Z"
          transform="translate(-2.92 -1.67)"/>
    <path class="cls-1"
          d="M10,7.25a2.42,2.42,0,1,0,2.42,2.42A2.42,2.42,0,0,0,10,7.25Zm1,3.12H9.91a.31.31,0,0,1-.31-.3v-2a.31.31,0,0,1,.61,0V9.76H11a.31.31,0,0,1,0,.61Z"
          transform="translate(-2.92 -1.67)"/>
</svg>
