<?xml version="1.0" encoding="utf-8"?>
<!-- Generator: Adobe Illustrator 24.1.1, SVG Export Plug-In . SVG Version: 6.00 Build 0)  -->
<svg version="1.1" id="Слой_1" xmlns="http://www.w3.org/2000/svg" x="0px"
     y="0px"
     width="20px" height="20px" viewBox="0 0 20 20" style="enable-background:new 0 0 20 20;" xml:space="preserve">
<style type="text/css">
	.st0{fill:#E2D92D;}
</style>
    <path class="st0" d="M16,3.6l-5.5-1.8c-0.3-0.1-0.7-0.1-1,0L3.9,3.7C3.4,3.9,3,4.4,2.9,5v5.6c0,1.7,0.6,3.4,1.8,4.6
	c0.6,0.6,1.3,1.1,2,1.5l3,1.5c0.1,0,0.2,0.1,0.3,0.1c0.1,0,0.2,0,0.3-0.1l3-1.6c2.3-1.1,3.8-3.5,3.7-6.1V5C17,4.3,16.6,3.7,16,3.6z
	 M10,12.4c-0.4,0-0.7-0.3-0.7-0.6s0.3-0.7,0.6-0.7s0.7,0.3,0.7,0.6c0,0,0,0,0,0C10.6,12.1,10.4,12.4,10,12.4z M10.6,9.8
	c0,0.4-0.3,0.7-0.7,0.6c-0.4,0-0.6-0.3-0.6-0.6V7c0-0.4,0.3-0.7,0.6-0.7c0.4,0,0.7,0.3,0.7,0.7V9.8z"/>
</svg>
