<svg width="20" height="20" viewBox="0 0 20 20" fill="none" xmlns="http://www.w3.org/2000/svg">
    <path fill-rule="evenodd" clip-rule="evenodd"
          d="M9.77324 18.2615C9.86553 18.3097 9.96872 18.3342 10.0719 18.3334C10.1751 18.3326 10.2775 18.3072 10.3706 18.2582L13.3438 16.6688C14.187 16.2194 14.8472 15.7168 15.3623 15.1317C16.4823 13.8569 17.0939 12.2299 17.083 10.5523L17.0478 5.0184C17.0444 4.38101 16.6258 3.81226 16.0067 3.60551L10.4755 1.74972C10.1424 1.63695 9.77744 1.6394 9.45025 1.75544L3.94003 3.67742C3.32425 3.89234 2.91316 4.46517 2.91652 5.10338L2.95175 10.6332C2.96266 12.3133 3.59523 13.9329 4.73368 15.1946C5.25383 15.7716 5.91995 16.2668 6.77232 16.7089L9.77324 18.2615ZM8.98615 11.7575C9.11031 11.8768 9.27139 11.9357 9.43247 11.934C9.59354 11.9332 9.75378 11.8728 9.87627 11.7518L13.1255 8.54849C13.3697 8.30743 13.3672 7.92009 13.1205 7.68229C12.873 7.4445 12.4745 7.44613 12.2304 7.68719L9.42324 10.4541L8.27388 9.34932C8.02639 9.11152 7.62873 9.11397 7.38376 9.35504C7.13962 9.5961 7.14214 9.98344 7.38963 10.2213L8.98615 11.7575Z"
          fill="#33B542" fill-opacity="0.44"/>
</svg>
