<svg width="19" height="19" viewBox="0 0 19 19" fill="none" xmlns="http://www.w3.org/2000/svg">
    <path
        d="M16.4094 5.2682L12.523 1.38183L12.0912 1.20911H2.93664L2.41846 1.81365V8.37729H3.62755V2.4182H10.7957V6.56365L11.4003 7.1682H15.5457V8.37729H16.7548V5.78638L16.4094 5.2682ZM11.9185 5.95911V2.4182L15.4594 5.95911H11.9185Z"
        fill="white"/>
    <path
        d="M2.93658 9.5L2.33203 10.1045V17.2727L2.93658 17.8773H15.9775L16.582 17.2727V10.1045L16.0639 9.5H2.93658ZM15.4593 15.4591V16.6682H3.54112V10.7091H15.4593V15.4591Z"
        fill="white"/>
    <path
        d="M6.73636 15.2C6.99545 15.0273 7.16818 14.8546 7.34091 14.5955C7.51364 14.3364 7.51364 14.0773 7.51364 13.7318V13.5591C7.51364 13.2137 7.42727 12.9546 7.34091 12.6955C7.16818 12.4364 6.90909 12.2637 6.73636 12.0909C6.47727 11.9182 6.21818 11.9182 5.87273 11.9182H4.75V15.3728H5.87273C6.21818 15.3728 6.47727 15.2864 6.73636 15.2ZM5.61364 14.7682V12.6091H5.87273C6.13182 12.6091 6.30455 12.6955 6.47727 12.8682C6.56364 13.0409 6.65 13.3 6.65 13.6455V13.8182C6.65 14.1637 6.56364 14.4228 6.47727 14.5955C6.39091 14.7682 6.13182 14.8546 5.95909 14.8546H5.61364V14.7682Z"
        fill="white"/>
    <path
        d="M8.55028 15.2863C8.80937 15.4591 9.06847 15.4591 9.32756 15.4591C9.58665 15.4591 9.84574 15.3727 10.1048 15.2863C10.3639 15.1136 10.5366 14.9409 10.623 14.6818C10.7094 14.4227 10.7957 14.0772 10.7957 13.8182V13.6454C10.7957 13.3 10.7094 13.0409 10.623 12.7818C10.5366 12.5227 10.2776 12.35 10.1048 12.1772C9.84574 12.0045 9.58665 12.0045 9.32756 12.0045C9.06847 12.0045 8.72301 12.0909 8.55028 12.1772C8.29119 12.35 8.11847 12.5227 8.0321 12.7818C7.94574 13.0409 7.85938 13.3863 7.85938 13.6454V13.8182C7.85938 14.1636 7.94574 14.4227 8.0321 14.6818C8.11847 14.9409 8.29119 15.1136 8.55028 15.2863ZM8.63665 13.4727C8.63665 12.8682 8.89574 12.5227 9.32756 12.5227C9.50028 12.5227 9.67301 12.6091 9.84574 12.7818C10.0185 12.9545 10.0185 13.2136 10.0185 13.5591V13.7318C10.0185 14.0772 9.9321 14.3363 9.84574 14.5091C9.75937 14.6818 9.58665 14.7682 9.32756 14.7682C9.06847 14.7682 8.89574 14.6818 8.80937 14.5091C8.72301 14.3363 8.63665 14.0772 8.63665 13.7318V13.4727Z"
        fill="white"/>
    <path
        d="M12.6957 15.4591C12.9548 15.4591 13.2139 15.3728 13.473 15.2864C13.7321 15.2 13.8184 15.0273 13.9912 14.8546C14.0775 14.6818 14.1639 14.4228 14.1639 14.25H13.3003C13.3003 14.4228 13.2139 14.5955 13.1275 14.6818C13.0412 14.7682 12.8684 14.8546 12.6957 14.8546C12.4366 14.8546 12.2639 14.7682 12.1775 14.5955C12.0912 14.4228 12.0912 14.1637 12.0912 13.7318V13.4728C12.0912 13.1273 12.1775 12.8682 12.2639 12.6955C12.3503 12.5228 12.523 12.4364 12.6957 12.4364C12.8684 12.4364 13.0412 12.5228 13.1275 12.6091C13.2139 12.6955 13.3003 12.8682 13.3003 13.0409H14.1639C14.1639 12.6091 13.9912 12.35 13.7321 12.0909C13.473 11.8318 13.1275 11.7455 12.6957 11.7455C12.4366 11.7455 12.1775 11.8318 11.9184 11.9182C11.6594 12.0909 11.4866 12.2637 11.4003 12.5228C11.2275 12.9546 11.2275 13.2137 11.2275 13.5591V13.7318C11.2275 14.25 11.4003 14.6818 11.6594 15.0273C11.8321 15.2864 12.2639 15.4591 12.6957 15.4591Z"
        fill="white"/>
</svg>
