<svg width="19" height="19" viewBox="0 0 19 19" fill="none" xmlns="http://www.w3.org/2000/svg">
    <g clip-path="url(#clip0)">
        <path
            d="M9.5 0.913017C11.1983 0.913017 12.8586 1.41663 14.2707 2.36018C15.6828 3.30373 16.7834 4.64484 17.4333 6.2139C18.0833 7.78297 18.2533 9.50953 17.922 11.1752C17.5907 12.8409 16.7728 14.371 15.5719 15.5719C14.371 16.7728 12.841 17.5907 11.1752 17.922C9.50953 18.2533 7.78297 18.0833 6.21391 17.4333C4.64484 16.7834 3.30374 15.6828 2.36019 14.2707C1.41664 12.8585 0.913021 11.1983 0.913021 9.5C0.916079 7.22353 1.82176 5.04117 3.43147 3.43146C5.04118 1.82175 7.22353 0.916075 9.5 0.913017ZM9.5 0C7.62108 0 5.78435 0.557165 4.22209 1.60104C2.65982 2.64491 1.44218 4.12861 0.723149 5.86451C0.00411624 7.60041 -0.184015 9.51054 0.182544 11.3534C0.549104 13.1962 1.45389 14.8889 2.78249 16.2175C4.11109 17.5461 5.80383 18.4509 7.64665 18.8175C9.48947 19.184 11.3996 18.9959 13.1355 18.2769C14.8714 17.5578 16.3551 16.3402 17.399 14.7779C18.4428 13.2157 19 11.3789 19 9.5C19 6.98044 17.9991 4.56408 16.2175 2.78249C14.4359 1.00089 12.0196 0 9.5 0Z"
            fill="#72C97E"/>
        <path
            d="M12.7862 7.21552C12.7143 7.14095 12.6281 7.08164 12.5328 7.04113C12.4375 7.00062 12.335 6.97974 12.2314 6.97974C12.1279 6.97974 12.0254 7.00062 11.9301 7.04113C11.8347 7.08164 11.7486 7.14095 11.6767 7.21552L8.77584 10.1125L7.31964 8.66017C7.24654 8.58732 7.1598 8.52958 7.06438 8.49025C6.96897 8.45092 6.86674 8.43077 6.76353 8.43095C6.66033 8.43113 6.55817 8.45163 6.46289 8.49129C6.36761 8.53095 6.28107 8.58899 6.20822 8.6621C6.13537 8.7352 6.07764 8.82194 6.03831 8.91735C5.99898 9.01277 5.97883 9.115 5.97901 9.2182C5.97918 9.32141 5.99969 9.42357 6.03935 9.51885C6.07901 9.61413 6.13705 9.70066 6.21015 9.77351L8.21725 11.7845C8.28983 11.8575 8.37632 11.9152 8.47161 11.9543C8.56689 11.9933 8.66903 12.0129 8.77199 12.0118C8.98076 12.012 9.18132 11.9304 9.33059 11.7845L12.7977 8.31731C12.8704 8.24478 12.9278 8.15848 12.9666 8.06346C13.0054 7.96844 13.0249 7.86662 13.0238 7.76398C13.0227 7.66134 13.0011 7.55996 12.9603 7.46577C12.9195 7.37159 12.8603 7.28651 12.7862 7.21552Z"
            fill="#72C97E"/>
    </g>
    <defs>
        <clipPath id="clip0">
            <rect width="19" height="19" fill="white"/>
        </clipPath>
    </defs>
</svg>
