<svg width="17" height="13" viewBox="0 0 17 13" fill="none" xmlns="http://www.w3.org/2000/svg">
    <path
        d="M10.7132 9.91641H9.41063V5.65723C9.41063 5.57988 9.34735 5.5166 9.27001 5.5166H8.21532C8.13798 5.5166 8.0747 5.57988 8.0747 5.65723V9.91641H6.77567C6.6579 9.91641 6.59286 10.0518 6.66493 10.1432L8.63368 12.634C8.64684 12.6508 8.66364 12.6644 8.68283 12.6737C8.70202 12.6831 8.72308 12.6879 8.74442 12.6879C8.76577 12.6879 8.78683 12.6831 8.80602 12.6737C8.8252 12.6644 8.84201 12.6508 8.85517 12.634L10.8239 10.1432C10.896 10.0518 10.8309 9.91641 10.7132 9.91641Z"
        fill="black"/>
    <path
        d="M14.0073 3.94688C13.2022 1.82344 11.1508 0.313477 8.7479 0.313477C6.34497 0.313477 4.2936 1.82168 3.48853 3.94512C1.98208 4.34063 0.869385 5.71348 0.869385 7.34473C0.869385 9.28711 2.44263 10.8604 4.38325 10.8604H5.08813C5.16548 10.8604 5.22876 10.7971 5.22876 10.7197V9.66504C5.22876 9.5877 5.16548 9.52441 5.08813 9.52441H4.38325C3.79087 9.52441 3.23364 9.28887 2.8188 8.86172C2.40571 8.43633 2.18599 7.86328 2.20532 7.26914C2.22114 6.80508 2.37935 6.36914 2.66587 6.00176C2.95942 5.62734 3.37075 5.35488 3.82778 5.23359L4.49399 5.05957L4.73833 4.41621C4.8895 4.01543 5.10044 3.64102 5.36587 3.30176C5.62791 2.9655 5.93831 2.66991 6.28696 2.42461C7.00942 1.9166 7.86021 1.64766 8.7479 1.64766C9.6356 1.64766 10.4864 1.9166 11.2088 2.42461C11.5586 2.6707 11.868 2.96602 12.1299 3.30176C12.3954 3.64102 12.6063 4.01719 12.7575 4.41621L13 5.05781L13.6645 5.23359C14.6172 5.49023 15.2834 6.35684 15.2834 7.34473C15.2834 7.92656 15.0567 8.475 14.6454 8.88633C14.4436 9.08923 14.2037 9.2501 13.9394 9.35963C13.675 9.46916 13.3916 9.52517 13.1055 9.52441H12.4006C12.3233 9.52441 12.26 9.5877 12.26 9.66504V10.7197C12.26 10.7971 12.3233 10.8604 12.4006 10.8604H13.1055C15.0461 10.8604 16.6194 9.28711 16.6194 7.34473C16.6194 5.71523 15.5102 4.34414 14.0073 3.94688Z"
        fill="black"/>
</svg>
