<svg width="20" height="20" viewBox="0 0 16 16" fill="none" xmlns="http://www.w3.org/2000/svg">
    <path fill-rule="evenodd" clip-rule="evenodd"
          d="M11.0793 0.167694C14.2544 0.167694 15.5793 1.76254 15.5793 4.68436V10.8502C15.5793 13.676 13.9126 15.351 11.0793 15.351H4.92173C2.08756 15.351 0.420898 13.676 0.420898 10.8502V4.68436C0.420898 1.85103 2.08756 0.167694 4.92173 0.167694H11.0793ZM5.58943 3.55942C5.21813 3.55942 4.86204 3.70691 4.5995 3.96946C4.33695 4.23201 4.18945 4.5881 4.18945 4.95939V10.5593C4.18945 10.9306 4.33695 11.2867 4.5995 11.5492C4.86204 11.8118 5.21813 11.9593 5.58943 11.9593H7.92272C8.04649 11.9593 8.16518 11.9101 8.2527 11.8226C8.34022 11.7351 8.38938 11.6164 8.38938 11.4926C8.38938 11.3689 8.34022 11.2502 8.2527 11.1626C8.16518 11.0751 8.04649 11.026 7.92272 11.026H5.58943C5.46566 11.026 5.34697 10.9768 5.25945 10.8893C5.17194 10.8018 5.12277 10.6831 5.12277 10.5593V4.95939C5.12277 4.83563 5.17194 4.71693 5.25945 4.62942C5.34697 4.5419 5.46566 4.49274 5.58943 4.49274H7.92272C8.04649 4.49274 8.16518 4.44357 8.2527 4.35605C8.34022 4.26854 8.38938 4.14984 8.38938 4.02608C8.38938 3.90231 8.34022 3.78361 8.2527 3.6961C8.16518 3.60858 8.04649 3.55942 7.92272 3.55942H5.58943ZM10.2557 5.42614C10.1319 5.42614 10.0133 5.47529 9.92574 5.56278C9.83825 5.65029 9.78911 5.76896 9.78911 5.8927C9.78911 6.01644 9.83825 6.13512 9.92574 6.22263L10.9958 7.29268H7.45572C7.33195 7.29268 7.21325 7.34184 7.12574 7.42936C7.03822 7.51688 6.98906 7.63557 6.98906 7.75934C6.98906 7.8831 7.03822 8.0018 7.12574 8.08932C7.21325 8.17683 7.33195 8.226 7.45572 8.226H10.9958L9.92574 9.29605C9.84073 9.38406 9.7937 9.50194 9.79476 9.62429C9.79582 9.74665 9.8449 9.86369 9.93143 9.95022C10.0179 10.0367 10.135 10.0858 10.2573 10.0869C10.3797 10.0879 10.4976 10.0409 10.5856 9.9559L12.4522 8.08926C12.5397 8.00175 12.5889 7.88308 12.5889 7.75934C12.5889 7.6356 12.5397 7.51692 12.4522 7.42941L10.5856 5.56278C10.4981 5.47529 10.3794 5.42614 10.2557 5.42614Z"
          fill="white" fill-opacity="0.44"/>
</svg>
