<svg width="23" height="16" viewBox="0 0 23 16" fill="none" xmlns="http://www.w3.org/2000/svg">
    <g opacity="0.34">
        <path fill-rule="evenodd" clip-rule="evenodd"
              d="M7 8C7 7.44772 7.44772 7 8 7L22 7C22.5523 7 23 7.44772 23 8C23 8.55228 22.5523 9 22 9L8 9C7.44772 9 7 8.55228 7 8Z"
              fill="#465BC9"/>
        <path fill-rule="evenodd" clip-rule="evenodd"
              d="M7 15C7 14.4477 7.44772 14 8 14H22C22.5523 14 23 14.4477 23 15C23 15.5523 22.5523 16 22 16H8C7.44772 16 7 15.5523 7 15Z"
              fill="#465BC9"/>
        <path fill-rule="evenodd" clip-rule="evenodd"
              d="M7 1C7 0.447715 7.44772 0 8 0H22C22.5523 0 23 0.447715 23 1C23 1.55228 22.5523 2 22 2H8C7.44772 2 7 1.55228 7 1Z"
              fill="#465BC9"/>
        <path fill-rule="evenodd" clip-rule="evenodd"
              d="M0.292893 7.29289C0.683417 6.90237 1.31658 6.90237 1.70711 7.29289L4.70711 10.2929C5.09763 10.6834 5.09763 11.3166 4.70711 11.7071C4.31658 12.0976 3.68342 12.0976 3.29289 11.7071L0.292893 8.70711C-0.0976311 8.31658 -0.0976311 7.68342 0.292893 7.29289Z"
              fill="#465BC9"/>
        <path fill-rule="evenodd" clip-rule="evenodd"
              d="M4.70711 4.29289C5.09763 4.68342 5.09763 5.31658 4.70711 5.70711L1.70711 8.70711C1.31658 9.09763 0.683417 9.09763 0.292893 8.70711C-0.0976311 8.31658 -0.0976311 7.68342 0.292893 7.29289L3.29289 4.29289C3.68342 3.90237 4.31658 3.90237 4.70711 4.29289Z"
              fill="#465BC9"/>
    </g>
</svg>
