<svg width="18" height="19" viewBox="0 0 18 19" fill="none" xmlns="http://www.w3.org/2000/svg">
    <path
        d="M16.8451 13.1181C16.7747 13.0333 16.7055 12.9485 16.6377 12.8666C15.7046 11.7381 15.1402 11.057 15.1402 7.86214C15.1402 6.20812 14.7445 4.85097 13.9645 3.8331C13.3894 3.08116 12.612 2.51073 11.5874 2.08916C11.5742 2.08183 11.5624 2.07221 11.5526 2.06075C11.1841 0.82659 10.1755 0 9.03806 0C7.9006 0 6.89249 0.82659 6.52394 2.05948C6.5141 2.07051 6.50249 2.07983 6.48959 2.08704C4.09846 3.0714 2.9364 4.95996 2.9364 7.86087C2.9364 11.057 2.37276 11.7381 1.43887 12.8654C1.37101 12.9472 1.30188 13.0303 1.23148 13.1169C1.04962 13.3362 0.934397 13.603 0.899447 13.8858C0.864497 14.1685 0.911282 14.4554 1.03427 14.7124C1.29594 15.2637 1.85365 15.606 2.49023 15.606H15.5906C16.2242 15.606 16.7781 15.2641 17.0406 14.7153C17.1641 14.4583 17.2113 14.1712 17.1767 13.8881C17.142 13.605 17.0269 13.3378 16.8451 13.1181Z"
        fill="#465BC9" fill-opacity="0.16"/>
    <path
        d="M9.03818 19.0001C9.65103 18.9996 10.2523 18.8332 10.7783 18.5187C11.3042 18.2041 11.7353 17.753 12.0256 17.2133C12.0393 17.1874 12.046 17.1585 12.0452 17.1292C12.0444 17.1 12.036 17.0714 12.0209 17.0464C12.0058 17.0213 11.9845 17.0006 11.959 16.9862C11.9335 16.9719 11.9047 16.9643 11.8755 16.9644H6.20173C6.17244 16.9643 6.14362 16.9717 6.11807 16.9861C6.09253 17.0004 6.07114 17.0211 6.05598 17.0462C6.04082 17.0713 6.03241 17.0998 6.03156 17.1291C6.03072 17.1584 6.03748 17.1874 6.05118 17.2133C6.34149 17.753 6.77244 18.204 7.29831 18.5185C7.82419 18.8331 8.4254 18.9995 9.03818 19.0001Z"
        fill="#465BC9" fill-opacity="0.16"/>
    <circle cx="13.7745" cy="3.4132" r="3.4132" fill="#F84960"/>
</svg>
