<svg width="18" height="20" viewBox="0 0 18 20" fill="none" xmlns="http://www.w3.org/2000/svg">
    <path
        d="M16.8451 13.601C16.7747 13.5162 16.7055 13.4314 16.6377 13.3495C15.7046 12.221 15.1402 11.5399 15.1402 8.34506C15.1402 6.69103 14.7445 5.33388 13.9645 4.31601C13.3894 3.56407 12.612 2.99364 11.5874 2.57207C11.5742 2.56474 11.5624 2.55512 11.5526 2.54366C11.1841 1.3095 10.1755 0.48291 9.03806 0.48291C7.9006 0.48291 6.89249 1.3095 6.52394 2.54239C6.5141 2.55342 6.50249 2.56274 6.48959 2.56995C4.09846 3.55431 2.9364 5.44287 2.9364 8.34378C2.9364 11.5399 2.37276 12.221 1.43887 13.3483C1.37101 13.4301 1.30188 13.5133 1.23148 13.5998C1.04962 13.8191 0.934397 14.0859 0.899447 14.3687C0.864497 14.6514 0.911282 14.9383 1.03427 15.1953C1.29594 15.7466 1.85365 16.0889 2.49023 16.0889H15.5906C16.2242 16.0889 16.7781 15.747 17.0406 15.1982C17.1641 14.9412 17.2113 14.6541 17.1767 14.371C17.142 14.0879 17.0269 13.8207 16.8451 13.601V13.601Z"
        fill="#465BC9" fill-opacity="0.16"/>
    <path
        d="M9.03818 19.483C9.65103 19.4825 10.2523 19.3161 10.7783 19.0016C11.3042 18.687 11.7353 18.2359 12.0256 17.6962C12.0393 17.6704 12.046 17.6414 12.0452 17.6121C12.0444 17.5829 12.036 17.5544 12.0209 17.5293C12.0058 17.5042 11.9845 17.4835 11.959 17.4692C11.9335 17.4548 11.9047 17.4472 11.8755 17.4473H6.20173C6.17244 17.4472 6.14362 17.4546 6.11807 17.469C6.09253 17.4833 6.07114 17.5041 6.05598 17.5291C6.04082 17.5542 6.03241 17.5828 6.03156 17.612C6.03072 17.6413 6.03748 17.6703 6.05118 17.6962C6.34149 18.2359 6.77244 18.6869 7.29831 19.0015C7.82419 19.316 8.4254 19.4824 9.03818 19.483Z"
        fill="#465BC9" fill-opacity="0.16"/>
</svg>
