<svg width="19" height="19" viewBox="0 0 19 19" fill="none" xmlns="http://www.w3.org/2000/svg">
    <g clip-path="url(#clip0)">
        <path
            d="M9.49927 0.913017C20.9493 1.11334 20.9454 17.8867 9.49927 18.087C-1.95466 17.8867 -1.95466 1.11334 9.49927 0.913017ZM9.49927 0C-3.17 0.211882 -3.1661 18.7881 9.49927 19C22.1646 18.7843 22.1646 0.211882 9.49927 0Z"
            fill="url(#paint0_linear)"/>
        <path
            d="M8.43318 11.5572L11.5595 8.47524C12.9858 9.29194 14.7717 6.43347 13.2985 6.76092C12.9467 7.20395 12.3098 7.66238 11.8604 7.0537C11.3875 6.60682 11.8916 6.07519 12.2512 5.767C12.5872 4.3108 9.71495 6.09446 10.5434 7.47747L7.41713 10.5594C6.04548 9.73882 4.19315 12.5588 5.68205 12.2429C6.02984 11.7999 6.66292 11.3645 7.10451 11.9617C7.58517 12.4201 7.05761 12.9556 6.69027 13.2676C6.36592 14.7084 9.26946 12.944 8.43318 11.5572Z"
            fill="url(#paint1_linear)"/>
    </g>
    <defs>
        <linearGradient id="paint0_linear" x1="3" y1="2.5" x2="16.5" y2="16.5" gradientUnits="userSpaceOnUse">
            <stop stop-color="#07EFF7"/>
            <stop offset="0.479167" stop-color="#2A29FF"/>
            <stop offset="1" stop-color="#F590A1"/>
        </linearGradient>
        <linearGradient id="paint1_linear" x1="2.5" y1="3" x2="16" y2="16.5" gradientUnits="userSpaceOnUse">
            <stop stop-color="#07EFF7"/>
            <stop offset="0.479167" stop-color="#2A29FF"/>
            <stop offset="1" stop-color="#F590A1"/>
        </linearGradient>
        <clipPath id="clip0">
            <rect width="19" height="19" fill="white"/>
        </clipPath>
    </defs>
</svg>
