<svg width="13" height="13" viewBox="0 0 13 13" fill="none" xmlns="http://www.w3.org/2000/svg">
    <g opacity="0.44">
        <path
            d="M6.49093 13C2.90098 13 0 10.099 0 6.50907C0 2.91911 2.90098 0 6.49093 0C10.0809 0 13 2.91911 13 6.50907C13 10.099 10.0809 13 6.49093 13ZM6.49093 1.61367C3.80753 1.61367 1.6318 3.82566 1.6318 6.50907C1.6318 9.19247 3.80753 11.3682 6.49093 11.3682C9.17434 11.3682 11.3863 9.19247 11.3863 6.50907C11.3863 3.82566 9.17434 1.61367 6.49093 1.61367ZM8.24965 8.99303L5.947 7.30683C5.78382 7.17992 5.62064 6.90795 5.62064 6.69038V3.00976C5.62064 2.81032 5.80195 2.64714 6.01953 2.64714H6.78103C6.98047 2.64714 7.14365 2.81032 7.14365 3.00976V5.91074C7.14365 6.12831 7.30683 6.40028 7.47001 6.5272L9.15621 7.74198C9.31939 7.8689 9.35565 8.12273 9.22873 8.28591L8.77545 8.90237C8.64854 9.06555 8.41283 9.10181 8.24965 8.99303Z"
            fill="white"/>
    </g>
</svg>
