<svg width="25" height="16" viewBox="0 0 25 16" fill="none" xmlns="http://www.w3.org/2000/svg">
    <path fill-rule="evenodd" clip-rule="evenodd"
          d="M12.4811 13.4873C11.1591 14.6281 9.44432 15.3168 7.57049 15.3168C3.38943 15.3168 0 11.888 0 7.65838C0 3.42877 3.38943 0 7.57049 0C9.44432 0 11.1591 0.688688 12.4811 1.8295C13.8031 0.688688 15.5179 0 17.3917 0C21.5728 0 24.9622 3.42877 24.9622 7.65838C24.9622 11.888 21.5728 15.3168 17.3917 15.3168C15.5179 15.3168 13.8031 14.6281 12.4811 13.4873Z"
          fill="#ED0006"/>
    <path fill-rule="evenodd" clip-rule="evenodd"
          d="M12.4812 13.4873C14.1089 12.0826 15.1411 9.9924 15.1411 7.65838C15.1411 5.32435 14.1089 3.23419 12.4812 1.8295C13.8032 0.688688 15.518 0 17.3918 0C21.5729 0 24.9623 3.42877 24.9623 7.65838C24.9623 11.888 21.5729 15.3168 17.3918 15.3168C15.518 15.3168 13.8032 14.6281 12.4812 13.4873Z"
          fill="#F9A000"/>
    <path fill-rule="evenodd" clip-rule="evenodd"
          d="M12.4812 13.4873C14.1089 12.0826 15.1411 9.99242 15.1411 7.65839C15.1411 5.32436 14.1089 3.2342 12.4812 1.82952C10.8534 3.2342 9.82129 5.32436 9.82129 7.65839C9.82129 9.99242 10.8534 12.0826 12.4812 13.4873Z"
          fill="#FF5E00"/>
</svg>
