<svg width="13" height="14" viewBox="0 0 13 14" fill="none" xmlns="http://www.w3.org/2000/svg">
<g clip-path="url(#clip0)">
<path d="M5.89389 1.19658e-05C5.61099 0.00178006 5.3284 0.0189758 5.04743 0.0515204C6.03307 0.766677 6.78485 1.75055 7.21009 2.88183C7.63533 4.01312 7.71543 5.24235 7.44051 6.41797C6.96417 7.92845 5.94629 9.21633 4.57702 10.041C3.20776 10.8657 1.58077 11.1707 0 10.8992C0.68269 11.9056 1.61831 12.7204 2.7156 13.2641C3.81289 13.8078 5.0344 14.0619 6.26099 14.0016C7.48758 13.9413 8.67738 13.5686 9.71435 12.92C10.7513 12.2713 11.6001 11.3688 12.1778 10.3005C12.7555 9.23213 13.0425 8.03442 13.0108 6.82416C12.979 5.61389 12.6297 4.43239 11.9967 3.39489C11.3638 2.35739 10.4689 1.4993 9.39932 0.904322C8.32974 0.30934 7.122 -0.00222543 5.89389 1.19658e-05Z" fill="white"/>
</g>
<defs>
<clipPath id="clip0">
<rect width="13" height="14" fill="white"/>
</clipPath>
</defs>
</svg>
