<svg width="19" height="19" viewBox="0 0 19 19" fill="none" xmlns="http://www.w3.org/2000/svg">
    <path fill-rule="evenodd" clip-rule="evenodd"
          d="M16.4469 5.2725L12.5519 1.35375L12.1363 1.1875H2.96875L2.375 1.78125V8.3125H3.5625V2.375H10.6875V6.53125L11.2812 7.125H15.4375V8.3125H16.625V5.7L16.4469 5.2725ZM11.875 5.9375V2.375L15.4375 5.9375H11.875ZM2.96875 9.5L2.375 10.0938V17.2188L2.96875 17.8125H16.0312L16.625 17.2188V10.0938L16.0312 9.5H2.96875ZM15.4375 15.4375V16.625H3.5625V10.6875H15.4375V15.4375ZM5.9375 14.25H5.5575V15.4375H4.75V11.875H6.00875C6.89937 11.875 7.35063 12.3025 7.35063 13.0625C7.35292 13.224 7.32014 13.3841 7.25453 13.5317C7.18892 13.6794 7.09206 13.811 6.97062 13.9175C6.67634 14.1469 6.31034 14.2647 5.9375 14.25ZM5.86625 12.5281H5.5575V13.6325H5.86625C6.29375 13.6325 6.5075 13.4425 6.5075 13.0744C6.5075 12.7063 6.29375 12.5281 5.86625 12.5281ZM10.6875 14.9388C10.8629 14.766 11 14.5584 11.09 14.3292C11.18 14.1001 11.2209 13.8547 11.21 13.6088C11.21 12.4213 10.5806 11.875 9.31 11.875H8.05125V15.4375H9.31C9.56119 15.4497 9.81229 15.4118 10.0488 15.3262C10.2852 15.2406 10.5023 15.1089 10.6875 14.9388ZM8.84687 14.7844V12.5281H9.23875C9.39021 12.5185 9.54204 12.5399 9.68497 12.5909C9.82789 12.642 9.9589 12.7216 10.07 12.825C10.1706 12.9307 10.2488 13.0557 10.2999 13.1924C10.3509 13.3292 10.3737 13.4748 10.3669 13.6206C10.3847 13.9336 10.2779 14.241 10.07 14.4756C9.96128 14.5797 9.83266 14.6606 9.69185 14.7137C9.55104 14.7668 9.40096 14.7908 9.25063 14.7844H8.84687ZM14.1312 14.06H12.9794V15.4375H12.1719V11.875H14.2381V12.5281H12.9794V13.4069H14.1312V14.06Z"
          fill="white"/>
</svg>
