<svg width="15" height="15" viewBox="0 0 15 15" fill="none" xmlns="http://www.w3.org/2000/svg">
    <path
        d="M8.37518 7.19448H10.8777C11.1402 7.19448 11.2685 6.87948 11.0818 6.69865L10.2418 5.85865L12.5752 3.52532C12.6842 3.41625 12.7455 3.26831 12.7455 3.11407C12.7455 2.95982 12.6842 2.81189 12.5752 2.70282C12.4661 2.59375 12.3182 2.53247 12.1639 2.53247C12.0097 2.53247 11.8617 2.59375 11.7527 2.70282L9.41934 5.03615L8.57934 4.19615C8.53913 4.15475 8.48742 4.12636 8.43091 4.11464C8.3744 4.10291 8.31567 4.10839 8.2623 4.13036C8.20894 4.15234 8.16338 4.1898 8.13151 4.23792C8.09964 4.28604 8.08292 4.3426 8.08351 4.40032V6.90281C8.08351 7.06615 8.21184 7.19448 8.37518 7.19448Z"
        fill="#198EFB"/>
    <path
        d="M9.61732 9.17783L8.14732 10.6362C6.68898 9.802 5.48148 8.5945 4.64732 7.13617L6.10565 5.66617C6.23982 5.52617 6.29815 5.33367 6.26315 5.14117L5.82565 2.9945C5.77315 2.72617 5.53398 2.52783 5.25398 2.52783H2.83315C2.50648 2.52783 2.23232 2.802 2.24982 3.12867C2.34898 4.8145 2.86232 6.39533 3.66732 7.77783C4.58898 9.37033 5.91315 10.6887 7.49982 11.6103C8.88232 12.4095 10.4632 12.9287 12.149 13.0278C12.4757 13.0453 12.7498 12.7712 12.7498 12.4445V10.0237C12.7498 9.74367 12.5515 9.5045 12.2832 9.452L10.1423 9.02617C10.0491 9.00587 9.95229 9.00911 9.86063 9.03559C9.76898 9.06207 9.68536 9.11095 9.61732 9.17783Z"
        fill="#198EFB"/>
</svg>
