<svg width="14" height="14" viewBox="0 0 14 14" fill="none" xmlns="http://www.w3.org/2000/svg">
    <path
        d="M12.8333 6.99984C12.833 5.45284 12.2183 3.96928 11.1244 2.87539C10.0306 1.78149 8.547 1.16681 7 1.1665V2.33317C7.92289 2.33338 8.82501 2.60712 9.59239 3.11982C10.3598 3.63251 10.958 4.36115 11.3114 5.21367C11.546 5.77995 11.6667 6.3869 11.6667 6.99984H12.8333Z"
        fill="#EAEAFF" fill-opacity="0.44"/>
    <path
        d="M1.16675 5.83301V2.91634C1.16675 2.76163 1.22821 2.61326 1.3376 2.50386C1.447 2.39447 1.59537 2.33301 1.75008 2.33301H4.66675C4.82146 2.33301 4.96983 2.39447 5.07923 2.50386C5.18862 2.61326 5.25008 2.76163 5.25008 2.91634V5.24967C5.25008 5.40438 5.18862 5.55276 5.07923 5.66215C4.96983 5.77155 4.82146 5.83301 4.66675 5.83301H3.50008C3.50008 7.07068 3.99175 8.25767 4.86692 9.13284C5.74209 10.008 6.92907 10.4997 8.16675 10.4997V9.33301C8.16675 9.1783 8.22821 9.02992 8.3376 8.92053C8.447 8.81113 8.59537 8.74967 8.75008 8.74967H11.0834C11.2381 8.74967 11.3865 8.81113 11.4959 8.92053C11.6053 9.02992 11.6667 9.1783 11.6667 9.33301V12.2497C11.6667 12.4044 11.6053 12.5528 11.4959 12.6622C11.3865 12.7716 11.2381 12.833 11.0834 12.833H8.16675C4.301 12.833 1.16675 9.69876 1.16675 5.83301Z"
        fill="#EAEAFF" fill-opacity="0.44"/>
    <path
        d="M10.2334 5.66067C10.4096 6.08533 10.5 6.54033 10.5 7H9.45C9.45008 6.67824 9.38676 6.35962 9.26366 6.06234C9.14056 5.76505 8.9601 5.49494 8.73258 5.26742C8.50506 5.0399 8.23495 4.85944 7.93766 4.73634C7.64038 4.61324 7.32176 4.54992 7 4.55V3.5C7.69221 3.50004 8.36887 3.70533 8.94441 4.08993C9.51995 4.47452 9.96853 5.02114 10.2334 5.66067Z"
        fill="#EAEAFF" fill-opacity="0.44"/>
</svg>
