<svg width="34" height="34" viewBox="0 0 34 34" fill="none" xmlns="http://www.w3.org/2000/svg">
    <path
        d="M17.0001 21.5335C19.5038 21.5335 21.5335 19.5038 21.5335 17.0001C21.5335 14.4964 19.5038 12.4668 17.0001 12.4668C14.4964 12.4668 12.4668 14.4964 12.4668 17.0001C12.4668 19.5038 14.4964 21.5335 17.0001 21.5335Z"
        fill="white"/>
    <path
        d="M12.7499 2.8335L10.1574 5.66683H5.66659C4.10825 5.66683 2.83325 6.94183 2.83325 8.50016V25.5002C2.83325 27.0585 4.10825 28.3335 5.66659 28.3335H28.3333C29.8916 28.3335 31.1666 27.0585 31.1666 25.5002V8.50016C31.1666 6.94183 29.8916 5.66683 28.3333 5.66683H23.8424L21.2499 2.8335H12.7499ZM16.9999 24.0835C13.0899 24.0835 9.91659 20.9102 9.91659 17.0002C9.91659 13.0902 13.0899 9.91683 16.9999 9.91683C20.9099 9.91683 24.0833 13.0902 24.0833 17.0002C24.0833 20.9102 20.9099 24.0835 16.9999 24.0835Z"
        fill="white"/>
</svg>
