<svg width="8" height="10" viewBox="0 0 8 10" fill="none" xmlns="http://www.w3.org/2000/svg">
    <path
        d="M0.262936 9.7645C0.34089 9.80504 0.428415 9.8236 0.516116 9.81816C0.603817 9.81273 0.688383 9.78352 0.760736 9.73366L7.02541 5.39658C7.08942 5.35223 7.14173 5.29302 7.17787 5.22404C7.214 5.15505 7.23287 5.07833 7.23287 5.00046C7.23287 4.92258 7.214 4.84586 7.17787 4.77688C7.14173 4.70789 7.08942 4.64869 7.02541 4.60434L0.760736 0.267256C0.688439 0.217231 0.603835 0.187938 0.516083 0.182547C0.428332 0.177157 0.340778 0.195875 0.262902 0.236674C0.185026 0.277474 0.119794 0.3388 0.0742714 0.414013C0.0287484 0.489226 0.00466835 0.575459 0.00463868 0.663376V9.33754C0.00462418 9.4255 0.0286868 9.51179 0.0742186 9.58705C0.11975 9.66232 0.185014 9.72368 0.262936 9.7645Z"
        fill="#241C2F" fill-opacity="0.44"/>
</svg>
