<svg width="13" height="14" viewBox="0 0 13 14" fill="none" xmlns="http://www.w3.org/2000/svg">
    <path
        d="M6.13421 13.917C6.346 14.0281 6.61181 14.0274 6.8236 13.9163C12.5951 10.8695 13.005 4.91668 13 3.22407C12.9994 3.08804 12.9585 2.95511 12.8822 2.84157C12.806 2.72803 12.6977 2.63881 12.5706 2.58483L6.77173 0.0604413C6.67945 0.0204655 6.57968 -0.000121367 6.47883 5.38242e-07C6.37798 0.000122443 6.27826 0.0209504 6.18608 0.0611491L0.427529 2.58554C0.302328 2.63955 0.195564 2.72778 0.119955 2.83973C0.0443469 2.95169 0.00308187 3.08264 0.00107633 3.21699C-0.0234159 4.9011 0.321636 10.8666 6.13421 13.917ZM4.10712 5.80368L5.75891 7.42691L8.85141 4.38787L9.87 5.38885L5.75891 9.42887L3.08854 6.80466L4.10712 5.80368Z"
        fill="white"/>
</svg>
