<svg width="21" height="21" viewBox="0 0 21 21" fill="none" xmlns="http://www.w3.org/2000/svg">
    <path
        d="M10.5 0C4.80795 0 0 4.80795 0 10.5C0 13.8484 1.6716 16.8819 4.2 18.8202V18.9H4.3071C6.0585 20.2072 8.20365 21 10.5 21C12.7963 21 14.9415 20.2072 16.6929 18.9H16.8V18.8202C19.3284 16.8819 21 13.8495 21 10.5C21 4.80795 16.192 0 10.5 0ZM6.3777 17.7733C6.53243 17.0734 6.92112 16.4471 7.47964 15.9978C8.03816 15.5484 8.73316 15.3029 9.45 15.3016H11.55C12.2668 15.3031 12.9617 15.5487 13.5202 15.998C14.0787 16.4473 14.4674 17.0735 14.6223 17.7733C13.3959 18.4842 11.9868 18.9 10.5 18.9C9.0132 18.9 7.6041 18.4842 6.3777 17.7733ZM16.3905 16.423C15.99 15.4695 15.3171 14.6553 14.4561 14.0823C13.5951 13.5093 12.5842 13.203 11.55 13.2016H9.45C8.41576 13.203 7.40488 13.5093 6.54388 14.0823C5.68288 14.6553 5.01002 15.4695 4.6095 16.423C3.06915 14.8911 2.1 12.7848 2.1 10.5C2.1 5.94615 5.94615 2.1 10.5 2.1C15.0538 2.1 18.9 5.94615 18.9 10.5C18.9 12.7848 17.9308 14.8911 16.3905 16.423Z"
        fill="#465BC9" fill-opacity="0.16"/>
    <path
        d="M10.5 4C7.935 4 6 5.935 6 8.5C6 11.065 7.935 13 10.5 13C13.065 13 15 11.065 15 8.5C15 5.935 13.065 4 10.5 4ZM10.5 10.75C9.17475 10.75 8.25 9.82525 8.25 8.5C8.25 7.17475 9.17475 6.25 10.5 6.25C11.8253 6.25 12.75 7.17475 12.75 8.5C12.75 9.82525 11.8253 10.75 10.5 10.75Z"
        fill="#465BC9" fill-opacity="0.16"/>
</svg>
