<svg width="19" height="19" viewBox="0 0 19 19" fill="none" xmlns="http://www.w3.org/2000/svg">
    <g clip-path="url(#clip0)">
        <path
            d="M9.5 0.913017C11.1983 0.913017 12.8586 1.41663 14.2707 2.36018C15.6828 3.30373 16.7834 4.64484 17.4333 6.2139C18.0833 7.78297 18.2533 9.50953 17.922 11.1752C17.5907 12.8409 16.7728 14.371 15.5719 15.5719C14.371 16.7728 12.841 17.5907 11.1752 17.922C9.50953 18.2533 7.78297 18.0833 6.21391 17.4333C4.64484 16.7834 3.30374 15.6828 2.36019 14.2707C1.41664 12.8585 0.913021 11.1983 0.913021 9.5C0.916079 7.22353 1.82176 5.04117 3.43147 3.43146C5.04118 1.82175 7.22353 0.916075 9.5 0.913017ZM9.5 0C7.62108 0 5.78435 0.557165 4.22209 1.60104C2.65982 2.64491 1.44218 4.12861 0.723149 5.86451C0.00411622 7.60041 -0.184015 9.51054 0.182544 11.3534C0.549104 13.1962 1.45389 14.8889 2.78249 16.2175C4.11109 17.5461 5.80383 18.4509 7.64665 18.8175C9.48947 19.184 11.3996 18.9959 13.1355 18.2769C14.8714 17.5578 16.3551 16.3402 17.399 14.7779C18.4428 13.2157 19 11.3789 19 9.5C19 6.98044 17.9991 4.56408 16.2175 2.78249C14.4359 1.00089 12.0196 0 9.5 0V0Z"
            fill="#F7AF59"/>
        <path
            d="M8.98755 11.5302H8.67551C8.22786 11.453 7.8219 11.2201 7.52936 10.8725C7.23682 10.525 7.07652 10.0853 7.07677 9.631C7.07778 9.32476 7.15313 9.02335 7.29635 8.75266L7.5275 9.07626C7.56546 9.12958 7.61775 9.17107 7.67831 9.19592C7.73887 9.22077 7.80522 9.22797 7.8697 9.21668C7.93418 9.2054 7.99415 9.17609 8.04267 9.13215C8.09119 9.08822 8.12628 9.03144 8.14388 8.96839L8.33265 8.29807L8.59076 7.3735C8.60422 7.32198 8.60577 7.26807 8.59529 7.21586C8.5848 7.16366 8.56257 7.11452 8.53026 7.07219C8.49796 7.02986 8.45643 6.99545 8.40884 6.97156C8.36125 6.94767 8.30885 6.93494 8.2556 6.93433H6.66071C6.59664 6.93414 6.53378 6.95171 6.47909 6.98509C6.4244 7.01846 6.38003 7.06634 6.3509 7.1234C6.32177 7.18046 6.30902 7.24448 6.31407 7.30835C6.31911 7.37222 6.34176 7.43344 6.37948 7.48522L6.81095 8.09005C6.54669 8.46064 6.38156 8.89265 6.33126 9.34503C6.28097 9.79741 6.34716 10.2551 6.52357 10.6747C6.69998 11.0943 6.98073 11.4618 7.33917 11.7424C7.6976 12.0229 8.12181 12.2072 8.5715 12.2776C8.60593 12.2833 8.64108 12.2833 8.67551 12.2776H8.98755C9.08973 12.2776 9.18771 12.237 9.25996 12.1648C9.33221 12.0925 9.37279 11.9945 9.37279 11.8924C9.3669 11.7942 9.32372 11.7021 9.2521 11.6348C9.18049 11.5675 9.08584 11.5301 8.98755 11.5302Z"
            fill="#F7AF59"/>
        <path
            d="M11.9193 11.1412C12.2439 10.6929 12.4191 10.1537 12.4201 9.60023C12.4202 8.96285 12.1923 8.34644 11.7776 7.86246C11.3628 7.37847 10.7886 7.05883 10.1587 6.96134C10.1243 6.95559 10.0891 6.95559 10.0547 6.96134H9.74266C9.64049 6.96134 9.5425 7.00193 9.47026 7.07418C9.39801 7.14642 9.35742 7.24441 9.35742 7.34658C9.35742 7.44875 9.39801 7.54674 9.47026 7.61899C9.5425 7.69123 9.64049 7.73182 9.74266 7.73182H10.0547C10.4998 7.80858 10.9037 8.03929 11.1959 8.38362C11.4881 8.72796 11.6501 9.16403 11.6534 9.61564C11.6523 9.9214 11.5783 10.2225 11.4377 10.494L11.2027 10.1665C11.1645 10.1132 11.1119 10.0719 11.0511 10.0473C10.9903 10.0227 10.9238 10.0158 10.8592 10.0275C10.7947 10.0392 10.7348 10.069 10.6865 10.1134C10.6382 10.1578 10.6034 10.2149 10.5863 10.2783L10.4014 10.9255L10.1472 11.85C10.1329 11.9016 10.1308 11.9558 10.1409 12.0083C10.1511 12.0608 10.1732 12.1103 10.2057 12.1528C10.2382 12.1954 10.28 12.2298 10.328 12.2535C10.376 12.2771 10.4288 12.2894 10.4823 12.2892H12.0734C12.1374 12.2894 12.2003 12.2718 12.255 12.2384C12.3097 12.2051 12.354 12.1572 12.3832 12.1001C12.4123 12.0431 12.425 11.9791 12.42 11.9152C12.415 11.8513 12.3923 11.7901 12.3546 11.7383L11.9193 11.1412Z"
            fill="#F7AF59"/>
    </g>
    <defs>
        <clipPath id="clip0">
            <rect width="19" height="19" fill="white"/>
        </clipPath>
    </defs>
</svg>
