<svg width="1440" height="97" viewBox="0 0 1440 97" fill="none" xmlns="http://www.w3.org/2000/svg">
    <g clip-path="url(#clip0)">
        <path opacity="0.42" d="M10.6843 44.5226H0V97.0001H10.6843V44.5226Z" fill="#EAEAFF"/>
        <path d="M25.7071 27.3582H15.0227V96.9841H25.7071V27.3582Z" fill="#EAEAFF"/>
        <path opacity="0.42" d="M40.7156 37.4567H30.0312V97H40.7156V37.4567Z" fill="#EAEAFF"/>
        <path opacity="0.5" d="M55.7383 55.9549H45.054V97.0001H55.7383V55.9549Z" fill="#EAEAFF"/>
        <path opacity="0.18" d="M70.747 64.688H60.0626V97.0002H70.747V64.688Z" fill="#EAEAFF"/>
        <path opacity="0.15" d="M85.7696 55.9549H75.0852V97.0001H85.7696V55.9549Z" fill="#EAEAFF"/>
        <path opacity="0.39" d="M100.778 47.0471H90.0939V96.9999H100.778V47.0471Z" fill="#EAEAFF"/>
        <path opacity="0.65" d="M115.801 23.1663H105.117V97H115.801V23.1663Z" fill="#EAEAFF"/>
        <path opacity="0.43" d="M130.824 47.9045H120.139V96.9841H130.824V47.9045Z" fill="#EAEAFF"/>
        <path opacity="0.14" d="M145.832 59.3052H135.148V97H145.832V59.3052Z" fill="#EAEAFF"/>
        <path opacity="0.35" d="M160.855 49.1589H150.171V96.9999H160.855V49.1589Z" fill="#EAEAFF"/>
        <path opacity="0.08" d="M175.864 63.243H165.179V97.0001H175.864V63.243Z" fill="#EAEAFF"/>
        <path opacity="0.84" d="M190.886 33.0267H180.202V97H190.886V33.0267Z" fill="#EAEAFF"/>
        <path d="M205.895 18.2281H195.21V97H205.895V18.2281Z" fill="#EAEAFF"/>
        <path opacity="0.63" d="M220.917 39.9814H210.233V97.0001H220.917V39.9814Z" fill="#EAEAFF"/>
        <path opacity="0.21" d="M235.926 51.5406H225.242V97H235.926V51.5406Z" fill="#EAEAFF"/>
        <path opacity="0.42" d="M251.496 44.5226H240.812V97.0001H251.496V44.5226Z" fill="#EAEAFF"/>
        <path d="M266.519 27.3582H255.835V96.9841H266.519V27.3582Z" fill="#EAEAFF"/>
        <path opacity="0.42" d="M281.528 37.4567H270.843V97H281.528V37.4567Z" fill="#EAEAFF"/>
        <path opacity="0.5" d="M296.55 55.9549H285.866V97.0001H296.55V55.9549Z" fill="#EAEAFF"/>
        <path opacity="0.18" d="M311.559 64.688H300.875V97.0002H311.559V64.688Z" fill="#EAEAFF"/>
        <path opacity="0.15" d="M326.582 55.9549H315.897V97.0001H326.582V55.9549Z" fill="#EAEAFF"/>
        <path opacity="0.39" d="M341.604 47.0471H330.92V96.9999H341.604V47.0471Z" fill="#EAEAFF"/>
        <path opacity="0.65" d="M356.613 23.1663H345.928V97H356.613V23.1663Z" fill="#EAEAFF"/>
        <path opacity="0.43" d="M371.636 47.9045H360.951V96.9841H371.636V47.9045Z" fill="#EAEAFF"/>
        <path opacity="0.14" d="M386.644 59.3052H375.96V97H386.644V59.3052Z" fill="#EAEAFF"/>
        <path opacity="0.35" d="M401.667 49.1589H390.983V96.9999H401.667V49.1589Z" fill="#EAEAFF"/>
        <path opacity="0.08" d="M416.675 63.243H405.991V97.0001H416.675V63.243Z" fill="#EAEAFF"/>
        <path opacity="0.84" d="M431.698 33.0267H421.014V97H431.698V33.0267Z" fill="#EAEAFF"/>
        <path d="M446.721 18.2281H436.036V97H446.721V18.2281Z" fill="#EAEAFF"/>
        <path opacity="0.63" d="M461.729 26.7866H451.045V97.0001H461.729V26.7866Z" fill="#EAEAFF"/>
        <path opacity="0.21" d="M476.752 51.5406H466.068V97H476.752V51.5406Z" fill="#EAEAFF"/>
        <path opacity="0.42" d="M492.308 32.3757H481.624V97.0001H492.308V32.3757Z" fill="#EAEAFF"/>
        <path d="M507.331 11.2576H496.647V96.9999H507.331V11.2576Z" fill="#EAEAFF"/>
        <path opacity="0.42" d="M522.34 23.6745H511.655V96.9842H522.34V23.6745Z" fill="#EAEAFF"/>
        <path opacity="0.5" d="M537.362 46.4596H526.678V96.9999H537.362V46.4596Z" fill="#EAEAFF"/>
        <path opacity="0.18" d="M552.385 64.688H541.701V97.0002H552.385V64.688Z" fill="#EAEAFF"/>
        <path opacity="0.15" d="M567.394 46.4596H556.709V96.9999H567.394V46.4596Z" fill="#EAEAFF"/>
        <path opacity="0.39" d="M582.416 35.4878H571.732V97H582.416V35.4878Z" fill="#EAEAFF"/>
        <path opacity="0.65" d="M597.425 6.08142H586.74V97.0001H597.425V6.08142Z" fill="#EAEAFF"/>
        <path opacity="0.43" d="M612.448 47.9045H601.763V96.9841H612.448V47.9045Z" fill="#EAEAFF"/>
        <path opacity="0.14" d="M627.456 59.3052H616.772V97H627.456V59.3052Z" fill="#EAEAFF"/>
        <path opacity="0.35" d="M642.479 49.1589H631.794V96.9999H642.479V49.1589Z" fill="#EAEAFF"/>
        <path opacity="0.08" d="M657.501 63.243H646.817V97.0001H657.501V63.243Z" fill="#EAEAFF"/>
        <path opacity="0.84" d="M672.51 18.2281H661.826V97H672.51V18.2281Z" fill="#EAEAFF"/>
        <path d="M687.533 0H676.848V97H687.533V0Z" fill="#EAEAFF"/>
        <path opacity="0.63" d="M702.541 26.7866H691.857V97.0001H702.541V26.7866Z" fill="#EAEAFF"/>
        <path opacity="0.21" d="M717.564 51.5406H706.88V97H717.564V51.5406Z" fill="#EAEAFF"/>
        <path opacity="0.42" d="M733.134 32.3757H722.45V97.0001H733.134V32.3757Z" fill="#EAEAFF"/>
        <path d="M748.143 11.2576H737.458V96.9999H748.143V11.2576Z" fill="#EAEAFF"/>
        <path opacity="0.42" d="M763.166 23.6745H752.481V96.9842H763.166V23.6745Z" fill="#EAEAFF"/>
        <path opacity="0.5" d="M778.174 46.4596H767.49V96.9999H778.174V46.4596Z" fill="#EAEAFF"/>
        <path opacity="0.18" d="M793.197 64.688H782.512V97.0002H793.197V64.688Z" fill="#EAEAFF"/>
        <path opacity="0.15" d="M808.206 46.4596H797.521V96.9999H808.206V46.4596Z" fill="#EAEAFF"/>
        <path opacity="0.39" d="M823.228 50.1752H812.544V97.0001H823.228V50.1752Z" fill="#EAEAFF"/>
        <path opacity="0.65" d="M838.237 27.7869H827.552V97.0001H838.237V27.7869Z" fill="#EAEAFF"/>
        <path opacity="0.43" d="M853.26 47.9045H842.575V96.9841H853.26V47.9045Z" fill="#EAEAFF"/>
        <path opacity="0.14" d="M868.282 59.3052H857.598V97H868.282V59.3052Z" fill="#EAEAFF"/>
        <path opacity="0.35" d="M883.291 49.1589H872.606V96.9999H883.291V49.1589Z" fill="#EAEAFF"/>
        <path opacity="0.08" d="M898.313 63.243H887.629V97.0001H898.313V63.243Z" fill="#EAEAFF"/>
        <path opacity="0.84" d="M913.322 37.028H902.638V96.9841H913.322V37.028Z" fill="#EAEAFF"/>
        <path d="M928.345 23.1663H917.66V97H928.345V23.1663Z" fill="#EAEAFF"/>
        <path opacity="0.63" d="M943.353 43.554H932.669V97.0001H943.353V43.554Z" fill="#EAEAFF"/>
        <path opacity="0.21" d="M958.376 51.5406H947.692V97H958.376V51.5406Z" fill="#EAEAFF"/>
        <path opacity="0.42" d="M973.946 47.8092H963.262V96.9999H973.946V47.8092Z" fill="#EAEAFF"/>
        <path d="M988.955 31.7246H978.271V96.9999H988.955V31.7246Z" fill="#EAEAFF"/>
        <path opacity="0.42" d="M1003.98 41.1881H993.293V97H1003.98V41.1881Z" fill="#EAEAFF"/>
        <path opacity="0.5" d="M1018.99 46.4596H1008.3V96.9999H1018.99V46.4596Z" fill="#EAEAFF"/>
        <path opacity="0.18" d="M1034.01 64.688H1023.32V97.0002H1034.01V64.688Z" fill="#EAEAFF"/>
        <path opacity="0.15" d="M1049.03 46.4596H1038.35V96.9999H1049.03V46.4596Z" fill="#EAEAFF"/>
        <path opacity="0.39" d="M1064.04 50.1752H1053.36V97.0001H1064.04V50.1752Z" fill="#EAEAFF"/>
        <path opacity="0.65" d="M1079.06 27.7869H1068.38V97.0001H1079.06V27.7869Z" fill="#EAEAFF"/>
        <path opacity="0.43" d="M1094.07 47.9045H1083.39V96.9841H1094.07V47.9045Z" fill="#EAEAFF"/>
        <path opacity="0.14" d="M1109.09 59.3052H1098.41V97H1109.09V59.3052Z" fill="#EAEAFF"/>
        <path opacity="0.35" d="M1124.1 49.1589H1113.42V96.9999H1124.1V49.1589Z" fill="#EAEAFF"/>
        <path opacity="0.08" d="M1139.13 63.243H1128.44V97.0001H1139.13V63.243Z" fill="#EAEAFF"/>
        <path opacity="0.84" d="M1154.13 37.028H1143.45V96.9841H1154.13V37.028Z" fill="#EAEAFF"/>
        <path d="M1169.16 23.1663H1158.47V97H1169.16V23.1663Z" fill="#EAEAFF"/>
        <path opacity="0.63" d="M1184.18 43.554H1173.5V97.0001H1184.18V43.554Z" fill="#EAEAFF"/>
        <path opacity="0.21" d="M1199.19 51.5406H1188.5V97H1199.19V51.5406Z" fill="#EAEAFF"/>
        <path opacity="0.42" d="M1214.76 47.8092H1204.07V96.9999H1214.76V47.8092Z" fill="#EAEAFF"/>
        <path d="M1229.77 31.7246H1219.08V96.9999H1229.77V31.7246Z" fill="#EAEAFF"/>
        <path opacity="0.42" d="M1244.79 41.1881H1234.1V97H1244.79V41.1881Z" fill="#EAEAFF"/>
        <path opacity="0.5" d="M1259.81 46.4596H1249.13V96.9999H1259.81V46.4596Z" fill="#EAEAFF"/>
        <path opacity="0.18" d="M1274.82 64.688H1264.14V97.0002H1274.82V64.688Z" fill="#EAEAFF"/>
        <path opacity="0.15" d="M1289.84 46.4596H1279.16V96.9999H1289.84V46.4596Z" fill="#EAEAFF"/>
        <path opacity="0.39" d="M1304.85 50.1752H1294.17V97.0001H1304.85V50.1752Z" fill="#EAEAFF"/>
        <path opacity="0.65" d="M1319.87 27.7869H1309.19V97.0001H1319.87V27.7869Z" fill="#EAEAFF"/>
        <path opacity="0.43" d="M1334.88 47.9045H1324.2V96.9841H1334.88V47.9045Z" fill="#EAEAFF"/>
        <path opacity="0.14" d="M1349.91 59.3052H1339.22V97H1349.91V59.3052Z" fill="#EAEAFF"/>
        <path opacity="0.35" d="M1364.93 49.1589H1354.24V96.9999H1364.93V49.1589Z" fill="#EAEAFF"/>
        <path opacity="0.08" d="M1379.94 63.243H1369.25V97.0001H1379.94V63.243Z" fill="#EAEAFF"/>
        <path opacity="0.84" d="M1394.96 37.028H1384.28V96.9841H1394.96V37.028Z" fill="#EAEAFF"/>
        <path d="M1409.97 23.1663H1399.28V97H1409.97V23.1663Z" fill="#EAEAFF"/>
        <path opacity="0.63" d="M1424.99 43.554H1414.31V97.0001H1424.99V43.554Z" fill="#EAEAFF"/>
        <path opacity="0.21" d="M1440 51.5406H1429.32V97H1440V51.5406Z" fill="#EAEAFF"/>
    </g>
    <defs>
        <clipPath id="clip0">
            <rect width="1440" height="97" fill="white"/>
        </clipPath>
    </defs>
</svg>
