<svg width="1934" height="238" viewBox="0 0 1934 238" fill="none" xmlns="http://www.w3.org/2000/svg">
    <g opacity="0.1" clip-path="url(#clip0)" filter="url(#filter0_f)">
        <path d="M17.1864 7.85547H7V18.1349H17.1864V7.85547Z" fill="#6D6E71"/>
        <path d="M17.1864 23.2505H7V33.4817H17.1864V23.2505Z" fill="#6D6E71"/>
        <path d="M17.1864 38.6455H7V48.8767H17.1864V38.6455Z" fill="#6D6E71"/>
        <path d="M17.1864 53.9923H7V64.2718H17.1864V53.9923Z" fill="#6D6E71"/>
        <path d="M17.1864 69.3873H7V79.6185H17.1864V69.3873Z" fill="#6D6E71"/>
        <path d="M17.1864 84.7823H7V95.0618H17.1864V84.7823Z" fill="#6D6E71"/>
        <path d="M17.1864 100.177H7V110.409H17.1864V100.177Z" fill="#6D6E71"/>
        <path d="M17.1864 115.524H7V125.804H17.1864V115.524Z" fill="#6D6E71"/>
        <path d="M17.1864 130.919H7V141.15H17.1864V130.919Z" fill="#6D6E71"/>
        <path d="M17.1864 146.314H7V156.545H17.1864V146.314Z" fill="#6D6E71"/>
        <path d="M17.1864 161.709H7V171.989H17.1864V161.709Z" fill="#6D6E71"/>
        <path d="M17.1864 177.056H7V187.287H17.1864V177.056Z" fill="#6D6E71"/>
        <path d="M17.1864 192.451H7V202.73H17.1864V192.451Z" fill="#6D6E71"/>
        <path d="M17.1864 207.846H7V218.077H17.1864V207.846Z" fill="#6D6E71"/>
        <path d="M17.1864 223.241H7V233.472H17.1864V223.241Z" fill="#6D6E71"/>
        <path d="M33.8065 37.053H23.6201V47.3807H33.8065V37.053Z" fill="#6D6E71"/>
        <path d="M33.8065 52.5446H23.6201V62.8723H33.8065V52.5446Z" fill="#6D6E71"/>
        <path d="M33.8065 67.9879H23.6201V78.3156H33.8065V67.9879Z" fill="#6D6E71"/>
        <path d="M33.8065 83.4794H23.6201V93.8071H33.8065V83.4794Z" fill="#6D6E71"/>
        <path d="M33.8065 98.9709H23.6201V109.299H33.8065V98.9709Z" fill="#6D6E71"/>
        <path d="M33.8065 114.462H23.6201V124.79H33.8065V114.462Z" fill="#6D6E71"/>
        <path d="M33.8065 129.906H23.6201V140.233H33.8065V129.906Z" fill="#6D6E71"/>
        <path d="M33.8065 145.397H23.6201V155.725H33.8065V145.397Z" fill="#6D6E71"/>
        <path d="M33.8065 160.889H23.6201V171.217H33.8065V160.889Z" fill="#6D6E71"/>
        <path d="M33.8065 176.38H23.6201V186.708H33.8065V176.38Z" fill="#6D6E71"/>
        <path d="M33.8065 191.824H23.6201V202.151H33.8065V191.824Z" fill="#6D6E71"/>
        <path d="M33.8065 207.315H23.6201V217.643H33.8065V207.315Z" fill="#6D6E71"/>
        <path d="M33.8065 222.807H23.6201V233.135H33.8065V222.807Z" fill="#6D6E71"/>
        <path d="M50.4266 90.4772H40.2402V100.853H50.4266V90.4772Z" fill="#6D6E71"/>
        <path d="M50.4266 106.017H40.2402V116.393H50.4266V106.017Z" fill="#6D6E71"/>
        <path d="M50.4266 121.557H40.2402V131.933H50.4266V121.557Z" fill="#6D6E71"/>
        <path d="M50.4266 137.097H40.2402V147.473H50.4266V137.097Z" fill="#6D6E71"/>
        <path d="M50.4266 152.588H40.2402V162.964H50.4266V152.588Z" fill="#6D6E71"/>
        <path d="M50.4266 168.128H40.2402V178.456H50.4266V168.128Z" fill="#6D6E71"/>
        <path d="M50.4266 183.668H40.2402V194.044H50.4266V183.668Z" fill="#6D6E71"/>
        <path d="M50.4266 199.208H40.2402V209.583H50.4266V199.208Z" fill="#6D6E71"/>
        <path d="M50.4266 214.747H40.2402V225.123H50.4266V214.747Z" fill="#6D6E71"/>
        <path d="M50.4266 230.287H40.2402V240.615H50.4266V230.287Z" fill="#6D6E71"/>
        <path d="M67.0472 106.789H56.8608V117.069H67.0472V106.789Z" fill="#6D6E71"/>
        <path d="M67.0472 122.232H56.8608V132.56H67.0472V122.232Z" fill="#6D6E71"/>
        <path d="M67.0472 137.676H56.8608V147.955H67.0472V137.676Z" fill="#6D6E71"/>
        <path d="M67.0472 153.119H56.8608V163.447H67.0472V153.119Z" fill="#6D6E71"/>
        <path d="M67.0472 168.562H56.8608V178.842H67.0472V168.562Z" fill="#6D6E71"/>
        <path d="M67.0472 184.054H56.8608V194.333H67.0472V184.054Z" fill="#6D6E71"/>
        <path d="M67.0472 199.497H56.8608V209.777H67.0472V199.497Z" fill="#6D6E71"/>
        <path d="M67.0472 214.94H56.8608V225.22H67.0472V214.94Z" fill="#6D6E71"/>
        <path d="M67.0472 230.384H56.8608V240.711H67.0472V230.384Z" fill="#6D6E71"/>
        <path d="M83.6674 110.312H73.481V120.398H83.6674V110.312Z" fill="#6D6E71"/>
        <path d="M83.6674 125.417H73.481V135.504H83.6674V125.417Z" fill="#6D6E71"/>
        <path d="M83.6674 140.523H73.481V150.609H83.6674V140.523Z" fill="#6D6E71"/>
        <path d="M83.6674 155.628H73.481V165.715H83.6674V155.628Z" fill="#6D6E71"/>
        <path d="M83.6674 170.782H73.481V180.868H83.6674V170.782Z" fill="#6D6E71"/>
        <path d="M83.6674 185.888H73.481V195.974H83.6674V185.888Z" fill="#6D6E71"/>
        <path d="M83.6674 200.993H73.481V211.079H83.6674V200.993Z" fill="#6D6E71"/>
        <path d="M83.6674 216.099H73.481V226.185H83.6674V216.099Z" fill="#6D6E71"/>
        <path d="M100.287 128.651H90.1011V139.027H100.287V128.651Z" fill="#6D6E71"/>
        <path d="M100.287 144.239H90.1011V154.615H100.287V144.239Z" fill="#6D6E71"/>
        <path d="M100.287 159.779H90.1011V170.155H100.287V159.779Z" fill="#6D6E71"/>
        <path d="M100.287 175.367H90.1011V185.743H100.287V175.367Z" fill="#6D6E71"/>
        <path d="M100.287 190.907H90.1011V201.283H100.287V190.907Z" fill="#6D6E71"/>
        <path d="M100.287 206.495H90.1011V216.871H100.287V206.495Z" fill="#6D6E71"/>
        <path d="M100.287 222.083H90.1011V232.459H100.287V222.083Z" fill="#6D6E71"/>
        <path d="M116.908 92.9866H106.721V103.17H116.908V92.9866Z" fill="#6D6E71"/>
        <path d="M116.908 108.285H106.721V118.468H116.908V108.285Z" fill="#6D6E71"/>
        <path d="M116.908 123.535H106.721V133.718H116.908V123.535Z" fill="#6D6E71"/>
        <path d="M116.908 138.834H106.721V149.017H116.908V138.834Z" fill="#6D6E71"/>
        <path d="M116.908 154.132H106.721V164.315H116.908V154.132Z" fill="#6D6E71"/>
        <path d="M116.908 169.383H106.721V179.565H116.908V169.383Z" fill="#6D6E71"/>
        <path d="M116.908 184.681H106.721V194.864H116.908V184.681Z" fill="#6D6E71"/>
        <path d="M116.908 199.98H106.721V210.163H116.908V199.98Z" fill="#6D6E71"/>
        <path d="M116.908 215.278H106.721V225.461H116.908V215.278Z" fill="#6D6E71"/>
        <path d="M116.908 230.528H106.721V240.711H116.908V230.528Z" fill="#6D6E71"/>
        <path d="M133.528 109.443H123.341V119.53H133.528V109.443Z" fill="#6D6E71"/>
        <path d="M133.528 124.597H123.341V134.683H133.528V124.597Z" fill="#6D6E71"/>
        <path d="M133.528 139.799H123.341V149.885H133.528V139.799Z" fill="#6D6E71"/>
        <path d="M133.528 154.953H123.341V165.039H133.528V154.953Z" fill="#6D6E71"/>
        <path d="M133.528 170.107H123.341V180.193H133.528V170.107Z" fill="#6D6E71"/>
        <path d="M133.528 185.26H123.341V195.347H133.528V185.26Z" fill="#6D6E71"/>
        <path d="M133.528 200.414H123.341V210.5H133.528V200.414Z" fill="#6D6E71"/>
        <path d="M133.528 215.616H123.341V225.702H133.528V215.616Z" fill="#6D6E71"/>
        <path d="M133.528 230.77H123.341V240.856H133.528V230.77Z" fill="#6D6E71"/>
        <path d="M150.148 153.36H139.961V163.591H150.148V153.36Z" fill="#6D6E71"/>
        <path d="M150.148 168.707H139.961V178.938H150.148V168.707Z" fill="#6D6E71"/>
        <path d="M150.148 184.054H139.961V194.285H150.148V184.054Z" fill="#6D6E71"/>
        <path d="M150.148 199.401H139.961V209.632H150.148V199.401Z" fill="#6D6E71"/>
        <path d="M150.148 214.796H139.961V225.027H150.148V214.796Z" fill="#6D6E71"/>
        <path d="M150.148 230.142H139.961V240.373H150.148V230.142Z" fill="#6D6E71"/>
        <path d="M166.768 108.478H156.582V118.613H166.768V108.478Z" fill="#6D6E71"/>
        <path d="M166.768 123.728H156.582V133.863H166.768V123.728Z" fill="#6D6E71"/>
        <path d="M166.768 138.93H156.582V149.065H166.768V138.93Z" fill="#6D6E71"/>
        <path d="M166.768 154.181H156.582V164.315H166.768V154.181Z" fill="#6D6E71"/>
        <path d="M166.768 169.431H156.582V179.566H166.768V169.431Z" fill="#6D6E71"/>
        <path d="M166.768 184.633H156.582V194.768H166.768V184.633Z" fill="#6D6E71"/>
        <path d="M166.768 199.883H156.582V210.018H166.768V199.883Z" fill="#6D6E71"/>
        <path d="M166.768 215.133H156.582V225.268H166.768V215.133Z" fill="#6D6E71"/>
        <path d="M166.768 230.335H156.582V240.47H166.768V230.335Z" fill="#6D6E71"/>
        <path d="M183.389 138.689H173.202V148.872H183.389V138.689Z" fill="#6D6E71"/>
        <path d="M183.389 153.939H173.202V164.074H183.389V153.939Z" fill="#6D6E71"/>
        <path d="M183.389 169.19H173.202V179.373H183.389V169.19Z" fill="#6D6E71"/>
        <path d="M183.389 184.44H173.202V194.623H183.389V184.44Z" fill="#6D6E71"/>
        <path d="M183.389 199.69H173.202V209.873H183.389V199.69Z" fill="#6D6E71"/>
        <path d="M183.389 214.94H173.202V225.123H183.389V214.94Z" fill="#6D6E71"/>
        <path d="M183.389 230.191H173.202V240.374H183.389V230.191Z" fill="#6D6E71"/>
        <path d="M200.009 167.597H189.822V177.925H200.009V167.597Z" fill="#6D6E71"/>
        <path d="M200.009 183.04H189.822V193.368H200.009V183.04Z" fill="#6D6E71"/>
        <path d="M200.009 198.532H189.822V208.86H200.009V198.532Z" fill="#6D6E71"/>
        <path d="M200.009 213.975H189.822V224.303H200.009V213.975Z" fill="#6D6E71"/>
        <path d="M200.009 229.467H189.822V239.794H200.009V229.467Z" fill="#6D6E71"/>
        <path d="M216.629 156.497H206.442V166.439H216.629V156.497Z" fill="#6D6E71"/>
        <path d="M216.629 171.41H206.442V181.351H216.629V171.41Z" fill="#6D6E71"/>
        <path d="M216.629 186.274H206.442V196.215H216.629V186.274Z" fill="#6D6E71"/>
        <path d="M216.629 201.186H206.442V211.128H216.629V201.186Z" fill="#6D6E71"/>
        <path d="M216.629 216.099H206.442V226.04H216.629V216.099Z" fill="#6D6E71"/>
        <path d="M216.629 230.963H206.442V240.904H216.629V230.963Z" fill="#6D6E71"/>
        <path d="M233.249 134.683H223.062V145.108H233.249V134.683Z" fill="#6D6E71"/>
        <path d="M233.249 150.368H223.062V160.792H233.249V150.368Z" fill="#6D6E71"/>
        <path d="M233.249 166.004H223.062V176.477H233.249V166.004Z" fill="#6D6E71"/>
        <path d="M233.249 181.689H223.062V192.113H233.249V181.689Z" fill="#6D6E71"/>
        <path d="M233.249 197.325H223.062V207.798H233.249V197.325Z" fill="#6D6E71"/>
        <path d="M233.249 213.01H223.062V223.434H233.249V213.01Z" fill="#6D6E71"/>
        <path d="M233.249 228.694H223.062V239.119H233.249V228.694Z" fill="#6D6E71"/>
        <path d="M249.869 157.173H239.683V167.694H249.869V157.173Z" fill="#6D6E71"/>
        <path d="M249.869 172.954H239.683V183.475H249.869V172.954Z" fill="#6D6E71"/>
        <path d="M249.869 188.735H239.683V199.256H249.869V188.735Z" fill="#6D6E71"/>
        <path d="M249.869 204.564H239.683V215.085H249.869V204.564Z" fill="#6D6E71"/>
        <path d="M249.869 220.346H239.683V230.866H249.869V220.346Z" fill="#6D6E71"/>
        <path d="M266.49 157.269H256.303V167.79H266.49V157.269Z" fill="#6D6E71"/>
        <path d="M266.49 173.05H256.303V183.571H266.49V173.05Z" fill="#6D6E71"/>
        <path d="M266.49 188.783H256.303V199.304H266.49V188.783Z" fill="#6D6E71"/>
        <path d="M266.49 204.564H256.303V215.085H266.49V204.564Z" fill="#6D6E71"/>
        <path d="M266.49 220.297H256.303V230.818H266.49V220.297Z" fill="#6D6E71"/>
        <path d="M283.11 107.947H272.923V118.082H283.11V107.947Z" fill="#6D6E71"/>
        <path d="M283.11 123.149H272.923V133.284H283.11V123.149Z" fill="#6D6E71"/>
        <path d="M283.11 138.351H272.923V148.486H283.11V138.351Z" fill="#6D6E71"/>
        <path d="M283.11 153.553H272.923V163.688H283.11V153.553Z" fill="#6D6E71"/>
        <path d="M283.11 168.804H272.923V178.938H283.11V168.804Z" fill="#6D6E71"/>
        <path d="M283.11 184.005H272.923V194.14H283.11V184.005Z" fill="#6D6E71"/>
        <path d="M283.11 199.208H272.923V209.342H283.11V199.208Z" fill="#6D6E71"/>
        <path d="M283.11 214.409H272.923V224.544H283.11V214.409Z" fill="#6D6E71"/>
        <path d="M283.11 229.611H272.923V239.746H283.11V229.611Z" fill="#6D6E71"/>
        <path d="M299.73 98.7778H289.543V109.009H299.73V98.7778Z" fill="#6D6E71"/>
        <path d="M299.73 114.125H289.543V124.356H299.73V114.125Z" fill="#6D6E71"/>
        <path d="M299.73 129.423H289.543V139.654H299.73V129.423Z" fill="#6D6E71"/>
        <path d="M299.73 144.77H289.543V155.001H299.73V144.77Z" fill="#6D6E71"/>
        <path d="M299.73 160.117H289.543V170.348H299.73V160.117Z" fill="#6D6E71"/>
        <path d="M299.73 175.463H289.543V185.695H299.73V175.463Z" fill="#6D6E71"/>
        <path d="M299.73 190.81H289.543V201.041H299.73V190.81Z" fill="#6D6E71"/>
        <path d="M299.73 206.157H289.543V216.388H299.73V206.157Z" fill="#6D6E71"/>
        <path d="M299.73 221.504H289.543V231.735H299.73V221.504Z" fill="#6D6E71"/>
        <path d="M316.35 84.7341H306.164V94.8688H316.35V84.7341Z" fill="#6D6E71"/>
        <path d="M316.35 99.9844H306.164V110.119H316.35V99.9844Z" fill="#6D6E71"/>
        <path d="M316.35 115.186H306.164V125.321H316.35V115.186Z" fill="#6D6E71"/>
        <path d="M316.35 130.437H306.164V140.571H316.35V130.437Z" fill="#6D6E71"/>
        <path d="M316.35 145.639H306.164V155.773H316.35V145.639Z" fill="#6D6E71"/>
        <path d="M316.35 160.889H306.164V171.023H316.35V160.889Z" fill="#6D6E71"/>
        <path d="M316.35 176.091H306.164V186.225H316.35V176.091Z" fill="#6D6E71"/>
        <path d="M316.35 191.293H306.164V201.427H316.35V191.293Z" fill="#6D6E71"/>
        <path d="M316.35 206.543H306.164V216.678H316.35V206.543Z" fill="#6D6E71"/>
        <path d="M316.35 221.745H306.164V231.88H316.35V221.745Z" fill="#6D6E71"/>
        <path d="M332.97 77.1573H322.784V87.2919H332.97V77.1573Z" fill="#6D6E71"/>
        <path d="M332.97 92.3593H322.784V102.494H332.97V92.3593Z" fill="#6D6E71"/>
        <path d="M332.97 107.609H322.784V117.744H332.97V107.609Z" fill="#6D6E71"/>
        <path d="M332.97 122.812H322.784V132.946H332.97V122.812Z" fill="#6D6E71"/>
        <path d="M332.97 138.014H322.784V148.148H332.97V138.014Z" fill="#6D6E71"/>
        <path d="M332.97 153.216H322.784V163.35H332.97V153.216Z" fill="#6D6E71"/>
        <path d="M332.97 168.466H322.784V178.6H332.97V168.466Z" fill="#6D6E71"/>
        <path d="M332.97 183.668H322.784V193.802H332.97V183.668Z" fill="#6D6E71"/>
        <path d="M332.97 198.87H322.784V209.004H332.97V198.87Z" fill="#6D6E71"/>
        <path d="M332.97 214.072H322.784V224.206H332.97V214.072Z" fill="#6D6E71"/>
        <path d="M332.97 229.322H322.784V239.457H332.97V229.322Z" fill="#6D6E71"/>
        <path d="M349.591 85.1202H339.404V95.2549H349.591V85.1202Z" fill="#6D6E71"/>
        <path d="M349.591 100.274H339.404V110.409H349.591V100.274Z" fill="#6D6E71"/>
        <path d="M349.591 115.476H339.404V125.611H349.591V115.476Z" fill="#6D6E71"/>
        <path d="M349.591 130.63H339.404V140.764H349.591V130.63Z" fill="#6D6E71"/>
        <path d="M349.591 145.832H339.404V155.966H349.591V145.832Z" fill="#6D6E71"/>
        <path d="M349.591 160.985H339.404V171.12H349.591V160.985Z" fill="#6D6E71"/>
        <path d="M349.591 176.187H339.404V186.322H349.591V176.187Z" fill="#6D6E71"/>
        <path d="M349.591 191.341H339.404V201.428H349.591V191.341Z" fill="#6D6E71"/>
        <path d="M349.591 206.543H339.404V216.678H349.591V206.543Z" fill="#6D6E71"/>
        <path d="M349.591 221.697H339.404V231.831H349.591V221.697Z" fill="#6D6E71"/>
        <path d="M366.211 31.1169H356.024V41.2516H366.211V31.1169Z" fill="#6D6E71"/>
        <path d="M366.211 46.3189H356.024V56.4536H366.211V46.3189Z" fill="#6D6E71"/>
        <path d="M366.211 61.5209H356.024V71.6556H366.211V61.5209Z" fill="#6D6E71"/>
        <path d="M366.211 76.7712H356.024V86.9058H366.211V76.7712Z" fill="#6D6E71"/>
        <path d="M366.211 92.0214H356.024V102.156H366.211V92.0214Z" fill="#6D6E71"/>
        <path d="M366.211 107.223H356.024V117.358H366.211V107.223Z" fill="#6D6E71"/>
        <path d="M366.211 122.474H356.024V132.608H366.211V122.474Z" fill="#6D6E71"/>
        <path d="M366.211 137.676H356.024V147.81H366.211V137.676Z" fill="#6D6E71"/>
        <path d="M366.211 152.926H356.024V163.061H366.211V152.926Z" fill="#6D6E71"/>
        <path d="M366.211 168.128H356.024V178.262H366.211V168.128Z" fill="#6D6E71"/>
        <path d="M366.211 183.378H356.024V193.513H366.211V183.378Z" fill="#6D6E71"/>
        <path d="M366.211 198.58H356.024V208.715H366.211V198.58Z" fill="#6D6E71"/>
        <path d="M366.211 213.83H356.024V223.965H366.211V213.83Z" fill="#6D6E71"/>
        <path d="M366.211 229.032H356.024V239.167H366.211V229.032Z" fill="#6D6E71"/>
        <path d="M1679.21 13.5502H1669.02V23.6848H1679.21V13.5502Z" fill="#6D6E71"/>
        <path d="M1679.21 28.7521H1669.02V38.8868H1679.21V28.7521Z" fill="#6D6E71"/>
        <path d="M1679.21 43.9542H1669.02V54.0888H1679.21V43.9542Z" fill="#6D6E71"/>
        <path d="M1679.21 59.2044H1669.02V69.3391H1679.21V59.2044Z" fill="#6D6E71"/>
        <path d="M1679.21 74.4547H1669.02V84.5893H1679.21V74.4547Z" fill="#6D6E71"/>
        <path d="M1679.21 89.6567H1669.02V99.7913H1679.21V89.6567Z" fill="#6D6E71"/>
        <path d="M1679.21 104.907H1669.02V115.042H1679.21V104.907Z" fill="#6D6E71"/>
        <path d="M1679.21 120.109H1669.02V130.243H1679.21V120.109Z" fill="#6D6E71"/>
        <path d="M1679.21 135.359H1669.02V145.494H1679.21V135.359Z" fill="#6D6E71"/>
        <path d="M1679.21 150.561H1669.02V160.696H1679.21V150.561Z" fill="#6D6E71"/>
        <path d="M1679.21 165.811H1669.02V175.946H1679.21V165.811Z" fill="#6D6E71"/>
        <path d="M1679.21 181.013H1669.02V191.148H1679.21V181.013Z" fill="#6D6E71"/>
        <path d="M1679.21 196.264H1669.02V206.398H1679.21V196.264Z" fill="#6D6E71"/>
        <path d="M1679.21 211.466H1669.02V221.6H1679.21V211.466Z" fill="#6D6E71"/>
        <path d="M1679.21 226.716H1669.02V236.851H1679.21V226.716Z" fill="#6D6E71"/>
        <path d="M382.831 48.1046H372.645V58.1427H382.831V48.1046Z" fill="#6D6E71"/>
        <path d="M382.831 63.1619H372.645V73.2483H382.831V63.1619Z" fill="#6D6E71"/>
        <path d="M382.831 78.2673H372.645V88.3054H382.831V78.2673Z" fill="#6D6E71"/>
        <path d="M382.831 93.3727H372.645V103.459H382.831V93.3727Z" fill="#6D6E71"/>
        <path d="M382.831 108.478H372.645V118.565H382.831V108.478Z" fill="#6D6E71"/>
        <path d="M382.831 123.584H372.645V133.622H382.831V123.584Z" fill="#6D6E71"/>
        <path d="M382.831 138.689H372.645V148.776H382.831V138.689Z" fill="#6D6E71"/>
        <path d="M382.831 153.795H372.645V163.881H382.831V153.795Z" fill="#6D6E71"/>
        <path d="M382.831 168.9H372.645V178.986H382.831V168.9Z" fill="#6D6E71"/>
        <path d="M382.831 184.006H372.645V194.092H382.831V184.006Z" fill="#6D6E71"/>
        <path d="M382.831 199.111H372.645V209.197H382.831V199.111Z" fill="#6D6E71"/>
        <path d="M382.831 214.168H372.645V224.255H382.831V214.168Z" fill="#6D6E71"/>
        <path d="M382.831 229.274H372.645V239.36H382.831V229.274Z" fill="#6D6E71"/>
        <path d="M1695.83 48.1046H1685.64V58.1427H1695.83V48.1046Z" fill="#6D6E71"/>
        <path d="M1695.83 63.1619H1685.64V73.2483H1695.83V63.1619Z" fill="#6D6E71"/>
        <path d="M1695.83 78.2673H1685.64V88.3054H1695.83V78.2673Z" fill="#6D6E71"/>
        <path d="M1695.83 93.3727H1685.64V103.459H1695.83V93.3727Z" fill="#6D6E71"/>
        <path d="M1695.83 108.478H1685.64V118.565H1695.83V108.478Z" fill="#6D6E71"/>
        <path d="M1695.83 123.584H1685.64V133.622H1695.83V123.584Z" fill="#6D6E71"/>
        <path d="M1695.83 138.689H1685.64V148.776H1695.83V138.689Z" fill="#6D6E71"/>
        <path d="M1695.83 153.795H1685.64V163.881H1695.83V153.795Z" fill="#6D6E71"/>
        <path d="M1695.83 168.9H1685.64V178.986H1695.83V168.9Z" fill="#6D6E71"/>
        <path d="M1695.83 184.006H1685.64V194.092H1695.83V184.006Z" fill="#6D6E71"/>
        <path d="M1695.83 199.111H1685.64V209.197H1695.83V199.111Z" fill="#6D6E71"/>
        <path d="M1695.83 214.168H1685.64V224.255H1695.83V214.168Z" fill="#6D6E71"/>
        <path d="M1695.83 229.274H1685.64V239.36H1695.83V229.274Z" fill="#6D6E71"/>
        <path d="M399.451 96.3647H389.265V106.692H399.451V96.3647Z" fill="#6D6E71"/>
        <path d="M399.451 111.856H389.265V122.184H399.451V111.856Z" fill="#6D6E71"/>
        <path d="M399.451 127.348H389.265V137.676H399.451V127.348Z" fill="#6D6E71"/>
        <path d="M399.451 142.839H389.265V153.167H399.451V142.839Z" fill="#6D6E71"/>
        <path d="M399.451 158.331H389.265V168.659H399.451V158.331Z" fill="#6D6E71"/>
        <path d="M399.451 173.823H389.265V184.15H399.451V173.823Z" fill="#6D6E71"/>
        <path d="M399.451 189.314H389.265V199.642H399.451V189.314Z" fill="#6D6E71"/>
        <path d="M399.451 204.806H389.265V215.133H399.451V204.806Z" fill="#6D6E71"/>
        <path d="M399.451 220.297H389.265V230.625H399.451V220.297Z" fill="#6D6E71"/>
        <path d="M1712.45 78.8223H1702.26V89.15H1712.45V78.8223Z" fill="#6D6E71"/>
        <path d="M1712.45 94.3138H1702.26V104.642H1712.45V94.3138Z" fill="#6D6E71"/>
        <path d="M1712.45 109.805H1702.26V120.133H1712.45V109.805Z" fill="#6D6E71"/>
        <path d="M1712.45 125.297H1702.26V135.625H1712.45V125.297Z" fill="#6D6E71"/>
        <path d="M1712.45 140.788H1702.26V151.116H1712.45V140.788Z" fill="#6D6E71"/>
        <path d="M1712.45 156.28H1702.26V166.608H1712.45V156.28Z" fill="#6D6E71"/>
        <path d="M1712.45 171.772H1702.26V182.099H1712.45V171.772Z" fill="#6D6E71"/>
        <path d="M1712.45 187.263H1702.26V197.591H1712.45V187.263Z" fill="#6D6E71"/>
        <path d="M1712.45 202.755H1702.26V213.082H1712.45V202.755Z" fill="#6D6E71"/>
        <path d="M1712.45 218.246H1702.26V228.574H1712.45V218.246Z" fill="#6D6E71"/>
        <path d="M416.071 53.944H405.885V64.0787H416.071V53.944Z" fill="#6D6E71"/>
        <path d="M416.071 69.146H405.885V79.2807H416.071V69.146Z" fill="#6D6E71"/>
        <path d="M416.071 84.348H405.885V94.4827H416.071V84.348Z" fill="#6D6E71"/>
        <path d="M416.071 99.5983H405.885V109.733H416.071V99.5983Z" fill="#6D6E71"/>
        <path d="M416.071 114.752H405.885V124.887H416.071V114.752Z" fill="#6D6E71"/>
        <path d="M416.071 129.954H405.885V140.089H416.071V129.954Z" fill="#6D6E71"/>
        <path d="M416.071 145.156H405.885V155.291H416.071V145.156Z" fill="#6D6E71"/>
        <path d="M416.071 160.358H405.885V170.493H416.071V160.358Z" fill="#6D6E71"/>
        <path d="M416.071 175.56H405.885V185.695H416.071V175.56Z" fill="#6D6E71"/>
        <path d="M416.071 190.762H405.885V200.897H416.071V190.762Z" fill="#6D6E71"/>
        <path d="M416.071 205.964H405.885V216.099H416.071V205.964Z" fill="#6D6E71"/>
        <path d="M416.071 221.166H405.885V231.301H416.071V221.166Z" fill="#6D6E71"/>
        <path d="M1729.07 53.944H1718.88V64.0787H1729.07V53.944Z" fill="#6D6E71"/>
        <path d="M1729.07 69.146H1718.88V79.2807H1729.07V69.146Z" fill="#6D6E71"/>
        <path d="M1729.07 84.348H1718.88V94.4827H1729.07V84.348Z" fill="#6D6E71"/>
        <path d="M1729.07 99.5983H1718.88V109.733H1729.07V99.5983Z" fill="#6D6E71"/>
        <path d="M1729.07 114.752H1718.88V124.887H1729.07V114.752Z" fill="#6D6E71"/>
        <path d="M1729.07 129.954H1718.88V140.089H1729.07V129.954Z" fill="#6D6E71"/>
        <path d="M1729.07 145.156H1718.88V155.291H1729.07V145.156Z" fill="#6D6E71"/>
        <path d="M1729.07 160.358H1718.88V170.493H1729.07V160.358Z" fill="#6D6E71"/>
        <path d="M1729.07 175.56H1718.88V185.695H1729.07V175.56Z" fill="#6D6E71"/>
        <path d="M1729.07 190.762H1718.88V200.897H1729.07V190.762Z" fill="#6D6E71"/>
        <path d="M1729.07 205.964H1718.88V216.099H1729.07V205.964Z" fill="#6D6E71"/>
        <path d="M1729.07 221.166H1718.88V231.301H1729.07V221.166Z" fill="#6D6E71"/>
        <path d="M432.691 49.5524H422.505V59.8801H432.691V49.5524Z" fill="#6D6E71"/>
        <path d="M432.691 65.044H422.505V75.3717H432.691V65.044Z" fill="#6D6E71"/>
        <path d="M432.691 80.5356H422.505V90.8633H432.691V80.5356Z" fill="#6D6E71"/>
        <path d="M432.691 96.0753H422.505V106.403H432.691V96.0753Z" fill="#6D6E71"/>
        <path d="M432.691 111.567H422.505V121.895H432.691V111.567Z" fill="#6D6E71"/>
        <path d="M432.691 127.058H422.505V137.386H432.691V127.058Z" fill="#6D6E71"/>
        <path d="M432.691 142.55H422.505V152.878H432.691V142.55Z" fill="#6D6E71"/>
        <path d="M432.691 158.042H422.505V168.369H432.691V158.042Z" fill="#6D6E71"/>
        <path d="M432.691 173.581H422.505V183.909H432.691V173.581Z" fill="#6D6E71"/>
        <path d="M432.691 189.073H422.505V199.401H432.691V189.073Z" fill="#6D6E71"/>
        <path d="M432.691 204.564H422.505V214.892H432.691V204.564Z" fill="#6D6E71"/>
        <path d="M432.691 220.056H422.505V230.384H432.691V220.056Z" fill="#6D6E71"/>
        <path d="M1745.69 31.4547H1735.5V41.7824H1745.69V31.4547Z" fill="#6D6E71"/>
        <path d="M1745.69 46.9463H1735.5V57.274H1745.69V46.9463Z" fill="#6D6E71"/>
        <path d="M1745.69 62.4379H1735.5V72.7656H1745.69V62.4379Z" fill="#6D6E71"/>
        <path d="M1745.69 77.9776H1735.5V88.3053H1745.69V77.9776Z" fill="#6D6E71"/>
        <path d="M1745.69 93.4692H1735.5V103.797H1745.69V93.4692Z" fill="#6D6E71"/>
        <path d="M1745.69 108.961H1735.5V119.288H1745.69V108.961Z" fill="#6D6E71"/>
        <path d="M1745.69 124.452H1735.5V134.78H1745.69V124.452Z" fill="#6D6E71"/>
        <path d="M1745.69 139.944H1735.5V150.271H1745.69V139.944Z" fill="#6D6E71"/>
        <path d="M1745.69 155.484H1735.5V165.811H1745.69V155.484Z" fill="#6D6E71"/>
        <path d="M1745.69 170.975H1735.5V181.303H1745.69V170.975Z" fill="#6D6E71"/>
        <path d="M1745.69 186.467H1735.5V196.794H1745.69V186.467Z" fill="#6D6E71"/>
        <path d="M1745.69 201.958H1735.5V212.286H1745.69V201.958Z" fill="#6D6E71"/>
        <path d="M1745.69 217.45H1735.5V227.777H1745.69V217.45Z" fill="#6D6E71"/>
        <path d="M449.311 52.7375H439.125V62.9204H449.311V52.7375Z" fill="#6D6E71"/>
        <path d="M449.311 67.9877H439.125V78.1706H449.311V67.9877Z" fill="#6D6E71"/>
        <path d="M449.311 83.2863H439.125V93.4692H449.311V83.2863Z" fill="#6D6E71"/>
        <path d="M449.311 98.5365H439.125V108.719H449.311V98.5365Z" fill="#6D6E71"/>
        <path d="M449.311 113.835H439.125V124.018H449.311V113.835Z" fill="#6D6E71"/>
        <path d="M449.311 129.085H439.125V139.268H449.311V129.085Z" fill="#6D6E71"/>
        <path d="M449.311 144.384H439.125V154.567H449.311V144.384Z" fill="#6D6E71"/>
        <path d="M449.311 159.634H439.125V169.817H449.311V159.634Z" fill="#6D6E71"/>
        <path d="M449.311 174.933H439.125V185.115H449.311V174.933Z" fill="#6D6E71"/>
        <path d="M449.311 190.183H439.125V200.366H449.311V190.183Z" fill="#6D6E71"/>
        <path d="M449.311 205.433H439.125V215.616H449.311V205.433Z" fill="#6D6E71"/>
        <path d="M449.311 220.732H439.125V230.914H449.311V220.732Z" fill="#6D6E71"/>
        <path d="M1762.31 68.7358H1752.12V78.9188H1762.31V68.7358Z" fill="#6D6E71"/>
        <path d="M1762.31 83.9861H1752.12V94.169H1762.31V83.9861Z" fill="#6D6E71"/>
        <path d="M1762.31 99.2846H1752.12V109.468H1762.31V99.2846Z" fill="#6D6E71"/>
        <path d="M1762.31 114.535H1752.12V124.718H1762.31V114.535Z" fill="#6D6E71"/>
        <path d="M1762.31 129.833H1752.12V140.016H1762.31V129.833Z" fill="#6D6E71"/>
        <path d="M1762.31 145.084H1752.12V155.267H1762.31V145.084Z" fill="#6D6E71"/>
        <path d="M1762.31 160.382H1752.12V170.565H1762.31V160.382Z" fill="#6D6E71"/>
        <path d="M1762.31 175.632H1752.12V185.815H1762.31V175.632Z" fill="#6D6E71"/>
        <path d="M1762.31 190.931H1752.12V201.114H1762.31V190.931Z" fill="#6D6E71"/>
        <path d="M1762.31 206.181H1752.12V216.364H1762.31V206.181Z" fill="#6D6E71"/>
        <path d="M1762.31 221.431H1752.12V231.614H1762.31V221.431Z" fill="#6D6E71"/>
        <path d="M465.932 90.1876H455.746V100.419H465.932V90.1876Z" fill="#6D6E71"/>
        <path d="M465.932 105.486H455.746V115.717H465.932V105.486Z" fill="#6D6E71"/>
        <path d="M465.932 120.833H455.746V131.064H465.932V120.833Z" fill="#6D6E71"/>
        <path d="M465.932 136.18H455.746V146.411H465.932V136.18Z" fill="#6D6E71"/>
        <path d="M465.932 151.478H455.746V161.709H465.932V151.478Z" fill="#6D6E71"/>
        <path d="M465.932 166.825H455.746V177.056H465.932V166.825Z" fill="#6D6E71"/>
        <path d="M465.932 182.123H455.746V192.355H465.932V182.123Z" fill="#6D6E71"/>
        <path d="M465.932 197.47H455.746V207.701H465.932V197.47Z" fill="#6D6E71"/>
        <path d="M465.932 212.769H455.746V223H465.932V212.769Z" fill="#6D6E71"/>
        <path d="M465.932 228.115H455.746V238.347H465.932V228.115Z" fill="#6D6E71"/>
        <path d="M1778.93 83.6483H1768.74V93.8795H1778.93V83.6483Z" fill="#6D6E71"/>
        <path d="M1778.93 98.9468H1768.74V109.178H1778.93V98.9468Z" fill="#6D6E71"/>
        <path d="M1778.93 114.294H1768.74V124.525H1778.93V114.294Z" fill="#6D6E71"/>
        <path d="M1778.93 129.64H1768.74V139.872H1778.93V129.64Z" fill="#6D6E71"/>
        <path d="M1778.93 144.939H1768.74V155.17H1778.93V144.939Z" fill="#6D6E71"/>
        <path d="M1778.93 160.286H1768.74V170.517H1778.93V160.286Z" fill="#6D6E71"/>
        <path d="M1778.93 175.584H1768.74V185.815H1778.93V175.584Z" fill="#6D6E71"/>
        <path d="M1778.93 190.931H1768.74V201.162H1778.93V190.931Z" fill="#6D6E71"/>
        <path d="M1778.93 206.229H1768.74V216.461H1778.93V206.229Z" fill="#6D6E71"/>
        <path d="M1778.93 221.576H1768.74V231.807H1778.93V221.576Z" fill="#6D6E71"/>
        <path d="M482.552 68.76H472.366V78.8947H482.552V68.76Z" fill="#6D6E71"/>
        <path d="M482.552 83.962H472.366V94.0966H482.552V83.962Z" fill="#6D6E71"/>
        <path d="M482.552 99.164H472.366V109.299H482.552V99.164Z" fill="#6D6E71"/>
        <path d="M482.552 114.366H472.366V124.501H482.552V114.366Z" fill="#6D6E71"/>
        <path d="M482.552 129.568H472.366V139.703H482.552V129.568Z" fill="#6D6E71"/>
        <path d="M482.552 144.77H472.366V154.905H482.552V144.77Z" fill="#6D6E71"/>
        <path d="M482.552 159.924H472.366V170.058H482.552V159.924Z" fill="#6D6E71"/>
        <path d="M482.552 175.126H472.366V185.26H482.552V175.126Z" fill="#6D6E71"/>
        <path d="M482.552 190.328H472.366V200.462H482.552V190.328Z" fill="#6D6E71"/>
        <path d="M482.552 205.53H472.366V215.664H482.552V205.53Z" fill="#6D6E71"/>
        <path d="M482.552 220.732H472.366V230.866H482.552V220.732Z" fill="#6D6E71"/>
        <path d="M1795.55 65.0439H1785.36V75.1785H1795.55V65.0439Z" fill="#6D6E71"/>
        <path d="M1795.55 80.2458H1785.36V90.3805H1795.55V80.2458Z" fill="#6D6E71"/>
        <path d="M1795.55 95.4479H1785.36V105.583H1795.55V95.4479Z" fill="#6D6E71"/>
        <path d="M1795.55 110.65H1785.36V120.785H1795.55V110.65Z" fill="#6D6E71"/>
        <path d="M1795.55 125.852H1785.36V135.986H1795.55V125.852Z" fill="#6D6E71"/>
        <path d="M1795.55 141.054H1785.36V151.188H1795.55V141.054Z" fill="#6D6E71"/>
        <path d="M1795.55 156.208H1785.36V166.342H1795.55V156.208Z" fill="#6D6E71"/>
        <path d="M1795.55 171.41H1785.36V181.544H1795.55V171.41Z" fill="#6D6E71"/>
        <path d="M1795.55 186.612H1785.36V196.746H1795.55V186.612Z" fill="#6D6E71"/>
        <path d="M1795.55 201.814H1785.36V211.948H1795.55V201.814Z" fill="#6D6E71"/>
        <path d="M1795.55 217.016H1785.36V227.15H1795.55V217.016Z" fill="#6D6E71"/>
        <path d="M499.172 104.086H488.986V114.366H499.172V104.086Z" fill="#6D6E71"/>
        <path d="M499.172 119.53H488.986V129.809H499.172V119.53Z" fill="#6D6E71"/>
        <path d="M499.172 134.925H488.986V145.204H499.172V134.925Z" fill="#6D6E71"/>
        <path d="M499.172 150.368H488.986V160.647H499.172V150.368Z" fill="#6D6E71"/>
        <path d="M499.172 165.811H488.986V176.091H499.172V165.811Z" fill="#6D6E71"/>
        <path d="M499.172 181.255H488.986V191.534H499.172V181.255Z" fill="#6D6E71"/>
        <path d="M499.172 196.698H488.986V206.977H499.172V196.698Z" fill="#6D6E71"/>
        <path d="M499.172 212.141H488.986V222.421H499.172V212.141Z" fill="#6D6E71"/>
        <path d="M499.172 227.536H488.986V237.816H499.172V227.536Z" fill="#6D6E71"/>
        <path d="M1812.17 104.086H1801.98V114.366H1812.17V104.086Z" fill="#6D6E71"/>
        <path d="M1812.17 119.53H1801.98V129.809H1812.17V119.53Z" fill="#6D6E71"/>
        <path d="M1812.17 134.925H1801.98V145.204H1812.17V134.925Z" fill="#6D6E71"/>
        <path d="M1812.17 150.368H1801.98V160.647H1812.17V150.368Z" fill="#6D6E71"/>
        <path d="M1812.17 165.811H1801.98V176.091H1812.17V165.811Z" fill="#6D6E71"/>
        <path d="M1812.17 181.255H1801.98V191.534H1812.17V181.255Z" fill="#6D6E71"/>
        <path d="M1812.17 196.698H1801.98V206.977H1812.17V196.698Z" fill="#6D6E71"/>
        <path d="M1812.17 212.141H1801.98V222.421H1812.17V212.141Z" fill="#6D6E71"/>
        <path d="M1812.17 227.536H1801.98V237.816H1812.17V227.536Z" fill="#6D6E71"/>
        <path d="M515.792 92.8419H505.606V102.88H515.792V92.8419Z" fill="#6D6E71"/>
        <path d="M515.792 107.947H505.606V117.985H515.792V107.947Z" fill="#6D6E71"/>
        <path d="M515.792 123.005H505.606V133.043H515.792V123.005Z" fill="#6D6E71"/>
        <path d="M515.792 138.062H505.606V148.1H515.792V138.062Z" fill="#6D6E71"/>
        <path d="M515.792 153.119H505.606V163.157H515.792V153.119Z" fill="#6D6E71"/>
        <path d="M515.792 168.224H505.606V178.263H515.792V168.224Z" fill="#6D6E71"/>
        <path d="M515.792 183.282H505.606V193.32H515.792V183.282Z" fill="#6D6E71"/>
        <path d="M515.792 198.339H505.606V208.377H515.792V198.339Z" fill="#6D6E71"/>
        <path d="M515.792 213.396H505.606V223.434H515.792V213.396Z" fill="#6D6E71"/>
        <path d="M515.792 228.502H505.606V238.54H515.792V228.502Z" fill="#6D6E71"/>
        <path d="M1828.79 92.8419H1818.6V102.88H1828.79V92.8419Z" fill="#6D6E71"/>
        <path d="M1828.79 107.947H1818.6V117.985H1828.79V107.947Z" fill="#6D6E71"/>
        <path d="M1828.79 123.005H1818.6V133.043H1828.79V123.005Z" fill="#6D6E71"/>
        <path d="M1828.79 138.062H1818.6V148.1H1828.79V138.062Z" fill="#6D6E71"/>
        <path d="M1828.79 153.119H1818.6V163.157H1828.79V153.119Z" fill="#6D6E71"/>
        <path d="M1828.79 168.224H1818.6V178.263H1828.79V168.224Z" fill="#6D6E71"/>
        <path d="M1828.79 183.282H1818.6V193.32H1828.79V183.282Z" fill="#6D6E71"/>
        <path d="M1828.79 198.339H1818.6V208.377H1828.79V198.339Z" fill="#6D6E71"/>
        <path d="M1828.79 213.396H1818.6V223.434H1828.79V213.396Z" fill="#6D6E71"/>
        <path d="M1828.79 228.502H1818.6V238.54H1828.79V228.502Z" fill="#6D6E71"/>
        <path d="M532.412 91.4906H522.226V101.625H532.412V91.4906Z" fill="#6D6E71"/>
        <path d="M532.412 106.644H522.226V116.779H532.412V106.644Z" fill="#6D6E71"/>
        <path d="M532.412 121.846H522.226V131.981H532.412V121.846Z" fill="#6D6E71"/>
        <path d="M532.412 137H522.226V147.135H532.412V137Z" fill="#6D6E71"/>
        <path d="M532.412 152.202H522.226V162.337H532.412V152.202Z" fill="#6D6E71"/>
        <path d="M532.412 167.356H522.226V177.442H532.412V167.356Z" fill="#6D6E71"/>
        <path d="M532.412 182.558H522.226V192.644H532.412V182.558Z" fill="#6D6E71"/>
        <path d="M532.412 197.711H522.226V207.798H532.412V197.711Z" fill="#6D6E71"/>
        <path d="M532.412 212.913H522.226V223.048H532.412V212.913Z" fill="#6D6E71"/>
        <path d="M532.412 228.067H522.226V238.202H532.412V228.067Z" fill="#6D6E71"/>
        <path d="M1845.41 91.4906H1835.23V101.625H1845.41V91.4906Z" fill="#6D6E71"/>
        <path d="M1845.41 106.644H1835.23V116.779H1845.41V106.644Z" fill="#6D6E71"/>
        <path d="M1845.41 121.846H1835.23V131.981H1845.41V121.846Z" fill="#6D6E71"/>
        <path d="M1845.41 137H1835.23V147.135H1845.41V137Z" fill="#6D6E71"/>
        <path d="M1845.41 152.202H1835.23V162.337H1845.41V152.202Z" fill="#6D6E71"/>
        <path d="M1845.41 167.356H1835.23V177.442H1845.41V167.356Z" fill="#6D6E71"/>
        <path d="M1845.41 182.558H1835.23V192.644H1845.41V182.558Z" fill="#6D6E71"/>
        <path d="M1845.41 197.711H1835.23V207.798H1845.41V197.711Z" fill="#6D6E71"/>
        <path d="M1845.41 212.913H1835.23V223.048H1845.41V212.913Z" fill="#6D6E71"/>
        <path d="M1845.41 228.067H1835.23V238.202H1845.41V228.067Z" fill="#6D6E71"/>
        <path d="M549.033 128.603H538.847V138.786H549.033V128.603Z" fill="#6D6E71"/>
        <path d="M549.033 143.853H538.847V154.036H549.033V143.853Z" fill="#6D6E71"/>
        <path d="M549.033 159.103H538.847V169.286H549.033V159.103Z" fill="#6D6E71"/>
        <path d="M549.033 174.354H538.847V184.536H549.033V174.354Z" fill="#6D6E71"/>
        <path d="M549.033 189.604H538.847V199.787H549.033V189.604Z" fill="#6D6E71"/>
        <path d="M549.033 204.854H538.847V215.037H549.033V204.854Z" fill="#6D6E71"/>
        <path d="M549.033 220.104H538.847V230.287H549.033V220.104Z" fill="#6D6E71"/>
        <path d="M1862.03 128.603H1851.85V138.786H1862.03V128.603Z" fill="#6D6E71"/>
        <path d="M1862.03 143.853H1851.85V154.036H1862.03V143.853Z" fill="#6D6E71"/>
        <path d="M1862.03 159.103H1851.85V169.286H1862.03V159.103Z" fill="#6D6E71"/>
        <path d="M1862.03 174.354H1851.85V184.536H1862.03V174.354Z" fill="#6D6E71"/>
        <path d="M1862.03 189.604H1851.85V199.787H1862.03V189.604Z" fill="#6D6E71"/>
        <path d="M1862.03 204.854H1851.85V215.037H1862.03V204.854Z" fill="#6D6E71"/>
        <path d="M1862.03 220.104H1851.85V230.287H1862.03V220.104Z" fill="#6D6E71"/>
        <path d="M565.653 105.824H555.467V115.959H565.653V105.824Z" fill="#6D6E71"/>
        <path d="M565.653 121.074H555.467V131.209H565.653V121.074Z" fill="#6D6E71"/>
        <path d="M565.653 136.276H555.467V146.411H565.653V136.276Z" fill="#6D6E71"/>
        <path d="M565.653 151.526H555.467V161.661H565.653V151.526Z" fill="#6D6E71"/>
        <path d="M565.653 166.777H555.467V176.911H565.653V166.777Z" fill="#6D6E71"/>
        <path d="M565.653 181.979H555.467V192.113H565.653V181.979Z" fill="#6D6E71"/>
        <path d="M565.653 197.229H555.467V207.412H565.653V197.229Z" fill="#6D6E71"/>
        <path d="M565.653 212.431H555.467V222.614H565.653V212.431Z" fill="#6D6E71"/>
        <path d="M565.653 227.681H555.467V237.816H565.653V227.681Z" fill="#6D6E71"/>
        <path d="M1878.65 105.824H1868.47V115.959H1878.65V105.824Z" fill="#6D6E71"/>
        <path d="M1878.65 121.074H1868.47V131.209H1878.65V121.074Z" fill="#6D6E71"/>
        <path d="M1878.65 136.276H1868.47V146.411H1878.65V136.276Z" fill="#6D6E71"/>
        <path d="M1878.65 151.526H1868.47V161.661H1878.65V151.526Z" fill="#6D6E71"/>
        <path d="M1878.65 166.777H1868.47V176.911H1878.65V166.777Z" fill="#6D6E71"/>
        <path d="M1878.65 181.979H1868.47V192.113H1878.65V181.979Z" fill="#6D6E71"/>
        <path d="M1878.65 197.229H1868.47V207.412H1878.65V197.229Z" fill="#6D6E71"/>
        <path d="M1878.65 212.431H1868.47V222.614H1878.65V212.431Z" fill="#6D6E71"/>
        <path d="M1878.65 227.681H1868.47V237.816H1878.65V227.681Z" fill="#6D6E71"/>
        <path d="M582.273 149.837H572.087V160.117H582.273V149.837Z" fill="#6D6E71"/>
        <path d="M582.273 165.281H572.087V175.56H582.273V165.281Z" fill="#6D6E71"/>
        <path d="M582.273 180.724H572.087V191.003H582.273V180.724Z" fill="#6D6E71"/>
        <path d="M582.273 196.119H572.087V206.398H582.273V196.119Z" fill="#6D6E71"/>
        <path d="M582.273 211.562H572.087V221.842H582.273V211.562Z" fill="#6D6E71"/>
        <path d="M582.273 227.006H572.087V237.285H582.273V227.006Z" fill="#6D6E71"/>
        <path d="M1895.27 149.837H1885.09V160.117H1895.27V149.837Z" fill="#6D6E71"/>
        <path d="M1895.27 165.281H1885.09V175.56H1895.27V165.281Z" fill="#6D6E71"/>
        <path d="M1895.27 180.724H1885.09V191.003H1895.27V180.724Z" fill="#6D6E71"/>
        <path d="M1895.27 196.119H1885.09V206.398H1895.27V196.119Z" fill="#6D6E71"/>
        <path d="M1895.27 211.562H1885.09V221.842H1895.27V211.562Z" fill="#6D6E71"/>
        <path d="M1895.27 227.006H1885.09V237.285H1895.27V227.006Z" fill="#6D6E71"/>
        <path d="M598.893 124.935H588.707V135.359H598.893V124.935Z" fill="#6D6E71"/>
        <path d="M598.893 140.523H588.707V150.947H598.893V140.523Z" fill="#6D6E71"/>
        <path d="M598.893 156.159H588.707V166.584H598.893V156.159Z" fill="#6D6E71"/>
        <path d="M598.893 171.747H588.707V182.172H598.893V171.747Z" fill="#6D6E71"/>
        <path d="M598.893 187.384H588.707V197.808H598.893V187.384Z" fill="#6D6E71"/>
        <path d="M598.893 202.972H588.707V213.396H598.893V202.972Z" fill="#6D6E71"/>
        <path d="M598.893 218.608H588.707V229.032H598.893V218.608Z" fill="#6D6E71"/>
        <path d="M1911.89 124.935H1901.71V135.359H1911.89V124.935Z" fill="#6D6E71"/>
        <path d="M1911.89 140.523H1901.71V150.947H1911.89V140.523Z" fill="#6D6E71"/>
        <path d="M1911.89 156.159H1901.71V166.584H1911.89V156.159Z" fill="#6D6E71"/>
        <path d="M1911.89 171.747H1901.71V182.172H1911.89V171.747Z" fill="#6D6E71"/>
        <path d="M1911.89 187.384H1901.71V197.808H1911.89V187.384Z" fill="#6D6E71"/>
        <path d="M1911.89 202.972H1901.71V213.396H1911.89V202.972Z" fill="#6D6E71"/>
        <path d="M1911.89 218.608H1901.71V229.032H1911.89V218.608Z" fill="#6D6E71"/>
        <path d="M615.514 174.064H605.327V184.198H615.514V174.064Z" fill="#6D6E71"/>
        <path d="M615.514 189.314H605.327V199.449H615.514V189.314Z" fill="#6D6E71"/>
        <path d="M615.514 204.516H605.327V214.651H615.514V204.516Z" fill="#6D6E71"/>
        <path d="M615.514 219.766H605.327V229.901H615.514V219.766Z" fill="#6D6E71"/>
        <path d="M1928.51 174.064H1918.33V184.198H1928.51V174.064Z" fill="#6D6E71"/>
        <path d="M1928.51 189.314H1918.33V199.449H1928.51V189.314Z" fill="#6D6E71"/>
        <path d="M1928.51 204.516H1918.33V214.651H1928.51V204.516Z" fill="#6D6E71"/>
        <path d="M1928.51 219.766H1918.33V229.901H1928.51V219.766Z" fill="#6D6E71"/>
        <path d="M632.134 155.677H621.947V166.101H632.134V155.677Z" fill="#6D6E71"/>
        <path d="M632.134 171.361H621.947V181.786H632.134V171.361Z" fill="#6D6E71"/>
        <path d="M632.134 186.998H621.947V197.422H632.134V186.998Z" fill="#6D6E71"/>
        <path d="M632.134 202.634H621.947V213.058H632.134V202.634Z" fill="#6D6E71"/>
        <path d="M632.134 218.27H621.947V228.695H632.134V218.27Z" fill="#6D6E71"/>
        <path d="M648.754 170.155H638.568V180.676H648.754V170.155Z" fill="#6D6E71"/>
        <path d="M648.754 185.984H638.568V196.505H648.754V185.984Z" fill="#6D6E71"/>
        <path d="M648.754 201.765H638.568V212.334H648.754V201.765Z" fill="#6D6E71"/>
        <path d="M648.754 217.595H638.568V228.164H648.754V217.595Z" fill="#6D6E71"/>
        <path d="M665.374 169.865H655.188V180.434H665.374V169.865Z" fill="#6D6E71"/>
        <path d="M665.374 185.695H655.188V196.264H665.374V185.695Z" fill="#6D6E71"/>
        <path d="M665.374 201.524H655.188V212.093H665.374V201.524Z" fill="#6D6E71"/>
        <path d="M665.374 217.353H655.188V227.922H665.374V217.353Z" fill="#6D6E71"/>
        <path d="M681.994 148.196H671.808V158.572H681.994V148.196Z" fill="#6D6E71"/>
        <path d="M681.994 163.736H671.808V174.112H681.994V163.736Z" fill="#6D6E71"/>
        <path d="M681.994 179.324H671.808V189.7H681.994V179.324Z" fill="#6D6E71"/>
        <path d="M681.994 194.864H671.808V205.24H681.994V194.864Z" fill="#6D6E71"/>
        <path d="M681.994 210.404H671.808V220.78H681.994V210.404Z" fill="#6D6E71"/>
        <path d="M681.994 225.992H671.808V236.368H681.994V225.992Z" fill="#6D6E71"/>
        <path d="M698.615 129.037H688.428V139.123H698.615V129.037Z" fill="#6D6E71"/>
        <path d="M698.615 144.143H688.428V154.181H698.615V144.143Z" fill="#6D6E71"/>
        <path d="M698.615 159.248H688.428V169.334H698.615V159.248Z" fill="#6D6E71"/>
        <path d="M698.615 174.354H688.428V184.44H698.615V174.354Z" fill="#6D6E71"/>
        <path d="M698.615 189.459H688.428V199.545H698.615V189.459Z" fill="#6D6E71"/>
        <path d="M698.615 204.564H688.428V214.651H698.615V204.564Z" fill="#6D6E71"/>
        <path d="M698.615 219.622H688.428V229.708H698.615V219.622Z" fill="#6D6E71"/>
        <path d="M715.235 113.111H705.048V123.198H715.235V113.111Z" fill="#6D6E71"/>
        <path d="M715.235 128.313H705.048V138.4H715.235V128.313Z" fill="#6D6E71"/>
        <path d="M715.235 143.467H705.048V153.602H715.235V143.467Z" fill="#6D6E71"/>
        <path d="M715.235 158.621H705.048V168.707H715.235V158.621Z" fill="#6D6E71"/>
        <path d="M715.235 173.774H705.048V183.861H715.235V173.774Z" fill="#6D6E71"/>
        <path d="M715.235 188.976H705.048V199.063H715.235V188.976Z" fill="#6D6E71"/>
        <path d="M715.235 204.13H705.048V214.216H715.235V204.13Z" fill="#6D6E71"/>
        <path d="M715.235 219.284H705.048V229.418H715.235V219.284Z" fill="#6D6E71"/>
        <path d="M731.855 112.242H721.669V122.377H731.855V112.242Z" fill="#6D6E71"/>
        <path d="M731.855 127.493H721.669V137.676H731.855V127.493Z" fill="#6D6E71"/>
        <path d="M731.855 142.743H721.669V152.878H731.855V142.743Z" fill="#6D6E71"/>
        <path d="M731.855 157.993H721.669V168.176H731.855V157.993Z" fill="#6D6E71"/>
        <path d="M731.855 173.243H721.669V183.378H731.855V173.243Z" fill="#6D6E71"/>
        <path d="M731.855 188.445H721.669V198.628H731.855V188.445Z" fill="#6D6E71"/>
        <path d="M731.855 203.696H721.669V213.83H731.855V203.696Z" fill="#6D6E71"/>
        <path d="M731.855 218.946H721.669V229.081H731.855V218.946Z" fill="#6D6E71"/>
        <path d="M748.475 147.81H738.289V158.186H748.475V147.81Z" fill="#6D6E71"/>
        <path d="M748.475 163.35H738.289V173.726H748.475V163.35Z" fill="#6D6E71"/>
        <path d="M748.475 178.89H738.289V189.266H748.475V178.89Z" fill="#6D6E71"/>
        <path d="M748.475 194.43H738.289V204.806H748.475V194.43Z" fill="#6D6E71"/>
        <path d="M748.475 210.018H738.289V220.394H748.475V210.018Z" fill="#6D6E71"/>
        <path d="M748.475 225.558H738.289V235.934H748.475V225.558Z" fill="#6D6E71"/>
        <path d="M765.096 107.609H754.909V118.082H765.096V107.609Z" fill="#6D6E71"/>
        <path d="M765.096 123.294H754.909V133.718H765.096V123.294Z" fill="#6D6E71"/>
        <path d="M765.096 138.979H754.909V149.403H765.096V138.979Z" fill="#6D6E71"/>
        <path d="M765.096 154.615H754.909V165.087H765.096V154.615Z" fill="#6D6E71"/>
        <path d="M765.096 170.3H754.909V180.772H765.096V170.3Z" fill="#6D6E71"/>
        <path d="M765.096 185.984H754.909V196.457H765.096V185.984Z" fill="#6D6E71"/>
        <path d="M765.096 201.62H754.909V212.045H765.096V201.62Z" fill="#6D6E71"/>
        <path d="M765.096 217.305H754.909V227.729H765.096V217.305Z" fill="#6D6E71"/>
        <path d="M781.716 129.568H771.529V139.558H781.716V129.568Z" fill="#6D6E71"/>
        <path d="M781.716 144.577H771.529V154.567H781.716V144.577Z" fill="#6D6E71"/>
        <path d="M781.716 159.538H771.529V169.527H781.716V159.538Z" fill="#6D6E71"/>
        <path d="M781.716 174.547H771.529V184.536H781.716V174.547Z" fill="#6D6E71"/>
        <path d="M781.716 189.507H771.529V199.497H781.716V189.507Z" fill="#6D6E71"/>
        <path d="M781.716 204.516H771.529V214.506H781.716V204.516Z" fill="#6D6E71"/>
        <path d="M781.716 219.477H771.529V229.467H781.716V219.477Z" fill="#6D6E71"/>
        <path d="M798.336 88.5468H788.149V98.7297H798.336V88.5468Z" fill="#6D6E71"/>
        <path d="M798.336 103.797H788.149V113.98H798.336V103.797Z" fill="#6D6E71"/>
        <path d="M798.336 119.095H788.149V129.278H798.336V119.095Z" fill="#6D6E71"/>
        <path d="M798.336 134.346H788.149V144.529H798.336V134.346Z" fill="#6D6E71"/>
        <path d="M798.336 149.644H788.149V159.827H798.336V149.644Z" fill="#6D6E71"/>
        <path d="M798.336 164.943H788.149V175.126H798.336V164.943Z" fill="#6D6E71"/>
        <path d="M798.336 180.193H788.149V190.376H798.336V180.193Z" fill="#6D6E71"/>
        <path d="M798.336 195.492H788.149V205.674H798.336V195.492Z" fill="#6D6E71"/>
        <path d="M798.336 210.742H788.149V220.925H798.336V210.742Z" fill="#6D6E71"/>
        <path d="M798.336 226.04H788.149V236.223H798.336V226.04Z" fill="#6D6E71"/>
        <path d="M814.956 77.7845H804.77V88.1122H814.956V77.7845Z" fill="#6D6E71"/>
        <path d="M814.956 93.3243H804.77V103.652H814.956V93.3243Z" fill="#6D6E71"/>
        <path d="M814.956 108.816H804.77V119.144H814.956V108.816Z" fill="#6D6E71"/>
        <path d="M814.956 124.356H804.77V134.683H814.956V124.356Z" fill="#6D6E71"/>
        <path d="M814.956 139.847H804.77V150.175H814.956V139.847Z" fill="#6D6E71"/>
        <path d="M814.956 155.387H804.77V165.763H814.956V155.387Z" fill="#6D6E71"/>
        <path d="M814.956 170.927H804.77V181.255H814.956V170.927Z" fill="#6D6E71"/>
        <path d="M814.956 186.418H804.77V196.746H814.956V186.418Z" fill="#6D6E71"/>
        <path d="M814.956 201.958H804.77V212.286H814.956V201.958Z" fill="#6D6E71"/>
        <path d="M814.956 217.45H804.77V227.777H814.956V217.45Z" fill="#6D6E71"/>
        <path d="M831.576 42.1686H821.39V52.3515H831.576V42.1686Z" fill="#6D6E71"/>
        <path d="M831.576 57.4671H821.39V67.65H831.576V57.4671Z" fill="#6D6E71"/>
        <path d="M831.576 72.7656H821.39V82.9485H831.576V72.7656Z" fill="#6D6E71"/>
        <path d="M831.576 88.0641H821.39V98.247H831.576V88.0641Z" fill="#6D6E71"/>
        <path d="M831.576 103.363H821.39V113.545H831.576V103.363Z" fill="#6D6E71"/>
        <path d="M831.576 118.661H821.39V128.844H831.576V118.661Z" fill="#6D6E71"/>
        <path d="M831.576 133.96H821.39V144.143H831.576V133.96Z" fill="#6D6E71"/>
        <path d="M831.576 149.258H821.39V159.441H831.576V149.258Z" fill="#6D6E71"/>
        <path d="M831.576 164.557H821.39V174.74H831.576V164.557Z" fill="#6D6E71"/>
        <path d="M831.576 179.855H821.39V190.038H831.576V179.855Z" fill="#6D6E71"/>
        <path d="M831.576 195.154H821.39V205.337H831.576V195.154Z" fill="#6D6E71"/>
        <path d="M831.576 210.452H821.39V220.635H831.576V210.452Z" fill="#6D6E71"/>
        <path d="M831.576 225.751H821.39V235.934H831.576V225.751Z" fill="#6D6E71"/>
        <path d="M848.197 57.9497H838.01V68.1326H848.197V57.9497Z" fill="#6D6E71"/>
        <path d="M848.197 73.2H838.01V83.3829H848.197V73.2Z" fill="#6D6E71"/>
        <path d="M848.197 88.4502H838.01V98.6331H848.197V88.4502Z" fill="#6D6E71"/>
        <path d="M848.197 103.7H838.01V113.883H848.197V103.7Z" fill="#6D6E71"/>
        <path d="M848.197 118.951H838.01V129.134H848.197V118.951Z" fill="#6D6E71"/>
        <path d="M848.197 134.249H838.01V144.432H848.197V134.249Z" fill="#6D6E71"/>
        <path d="M848.197 149.499H838.01V159.682H848.197V149.499Z" fill="#6D6E71"/>
        <path d="M848.197 164.75H838.01V174.933H848.197V164.75Z" fill="#6D6E71"/>
        <path d="M848.197 180H838.01V190.183H848.197V180Z" fill="#6D6E71"/>
        <path d="M848.197 195.25H838.01V205.433H848.197V195.25Z" fill="#6D6E71"/>
        <path d="M848.197 210.5H838.01V220.683H848.197V210.5Z" fill="#6D6E71"/>
        <path d="M848.197 225.751H838.01V235.934H848.197V225.751Z" fill="#6D6E71"/>
        <path d="M864.817 57.274H854.63V67.4569H864.817V57.274Z" fill="#6D6E71"/>
        <path d="M864.817 72.5725H854.63V82.7554H864.817V72.5725Z" fill="#6D6E71"/>
        <path d="M864.817 87.871H854.63V98.0539H864.817V87.871Z" fill="#6D6E71"/>
        <path d="M864.817 103.121H854.63V113.304H864.817V103.121Z" fill="#6D6E71"/>
        <path d="M864.817 118.468H854.63V128.651H864.817V118.468Z" fill="#6D6E71"/>
        <path d="M864.817 133.767H854.63V143.949H864.817V133.767Z" fill="#6D6E71"/>
        <path d="M864.817 149.017H854.63V159.2H864.817V149.017Z" fill="#6D6E71"/>
        <path d="M864.817 164.315H854.63V174.498H864.817V164.315Z" fill="#6D6E71"/>
        <path d="M864.817 179.614H854.63V189.797H864.817V179.614Z" fill="#6D6E71"/>
        <path d="M864.817 194.912H854.63V205.095H864.817V194.912Z" fill="#6D6E71"/>
        <path d="M864.817 210.211H854.63V220.394H864.817V210.211Z" fill="#6D6E71"/>
        <path d="M864.817 225.509H854.63V235.692H864.817V225.509Z" fill="#6D6E71"/>
        <path d="M881.437 74.9373H871.25V84.9755H881.437V74.9373Z" fill="#6D6E71"/>
        <path d="M881.437 90.0428H871.25V100.129H881.437V90.0428Z" fill="#6D6E71"/>
        <path d="M881.437 105.148H871.25V115.235H881.437V105.148Z" fill="#6D6E71"/>
        <path d="M881.437 120.254H871.25V130.34H881.437V120.254Z" fill="#6D6E71"/>
        <path d="M881.437 135.359H871.25V145.446H881.437V135.359Z" fill="#6D6E71"/>
        <path d="M881.437 150.465H871.25V160.551H881.437V150.465Z" fill="#6D6E71"/>
        <path d="M881.437 165.57H871.25V175.656H881.437V165.57Z" fill="#6D6E71"/>
        <path d="M881.437 180.627H871.25V190.714H881.437V180.627Z" fill="#6D6E71"/>
        <path d="M881.437 195.733H871.25V205.819H881.437V195.733Z" fill="#6D6E71"/>
        <path d="M881.437 210.838H871.25V220.925H881.437V210.838Z" fill="#6D6E71"/>
        <path d="M881.437 225.944H871.25V236.03H881.437V225.944Z" fill="#6D6E71"/>
        <path d="M898.057 137.29H887.871V147.81H898.057V137.29Z" fill="#6D6E71"/>
        <path d="M898.057 153.071H887.871V163.591H898.057V153.071Z" fill="#6D6E71"/>
        <path d="M898.057 168.803H887.871V179.324H898.057V168.803Z" fill="#6D6E71"/>
        <path d="M898.057 184.585H887.871V195.105H898.057V184.585Z" fill="#6D6E71"/>
        <path d="M898.057 200.366H887.871V210.886H898.057V200.366Z" fill="#6D6E71"/>
        <path d="M898.057 216.099H887.871V226.619H898.057V216.099Z" fill="#6D6E71"/>
        <path d="M914.677 97.137H904.491V107.223H914.677V97.137Z" fill="#6D6E71"/>
        <path d="M914.677 112.242H904.491V122.329H914.677V112.242Z" fill="#6D6E71"/>
        <path d="M914.677 127.396H904.491V137.483H914.677V127.396Z" fill="#6D6E71"/>
        <path d="M914.677 142.502H904.491V152.588H914.677V142.502Z" fill="#6D6E71"/>
        <path d="M914.677 157.655H904.491V167.742H914.677V157.655Z" fill="#6D6E71"/>
        <path d="M914.677 172.761H904.491V182.847H914.677V172.761Z" fill="#6D6E71"/>
        <path d="M914.677 187.866H904.491V197.953H914.677V187.866Z" fill="#6D6E71"/>
        <path d="M914.677 203.02H904.491V213.106H914.677V203.02Z" fill="#6D6E71"/>
        <path d="M914.677 218.126H904.491V228.212H914.677V218.126Z" fill="#6D6E71"/>
        <path d="M931.298 144.722H921.111V155.242H931.298V144.722Z" fill="#6D6E71"/>
        <path d="M931.298 160.503H921.111V171.024H931.298V160.503Z" fill="#6D6E71"/>
        <path d="M931.298 176.284H921.111V186.805H931.298V176.284Z" fill="#6D6E71"/>
        <path d="M931.298 192.113H921.111V202.634H931.298V192.113Z" fill="#6D6E71"/>
        <path d="M931.298 207.894H921.111V218.415H931.298V207.894Z" fill="#6D6E71"/>
        <path d="M931.298 223.676H921.111V234.196H931.298V223.676Z" fill="#6D6E71"/>
        <path d="M947.918 72.476H937.731V82.6589H947.918V72.476Z" fill="#6D6E71"/>
        <path d="M947.918 87.7744H937.731V97.9573H947.918V87.7744Z" fill="#6D6E71"/>
        <path d="M947.918 103.025H937.731V113.208H947.918V103.025Z" fill="#6D6E71"/>
        <path d="M947.918 118.275H937.731V128.458H947.918V118.275Z" fill="#6D6E71"/>
        <path d="M947.918 133.525H937.731V143.708H947.918V133.525Z" fill="#6D6E71"/>
        <path d="M947.918 148.776H937.731V158.958H947.918V148.776Z" fill="#6D6E71"/>
        <path d="M947.918 164.026H937.731V174.209H947.918V164.026Z" fill="#6D6E71"/>
        <path d="M947.918 179.324H937.731V189.507H947.918V179.324Z" fill="#6D6E71"/>
        <path d="M947.918 194.574H937.731V204.757H947.918V194.574Z" fill="#6D6E71"/>
        <path d="M947.918 209.825H937.731V220.008H947.918V209.825Z" fill="#6D6E71"/>
        <path d="M947.918 225.075H937.731V235.258H947.918V225.075Z" fill="#6D6E71"/>
        <path d="M964.538 92.5522H954.352V102.88H964.538V92.5522Z" fill="#6D6E71"/>
        <path d="M964.538 108.044H954.352V118.372H964.538V108.044Z" fill="#6D6E71"/>
        <path d="M964.538 123.535H954.352V133.863H964.538V123.535Z" fill="#6D6E71"/>
        <path d="M964.538 139.075H954.352V149.403H964.538V139.075Z" fill="#6D6E71"/>
        <path d="M964.538 154.567H954.352V164.894H964.538V154.567Z" fill="#6D6E71"/>
        <path d="M964.538 170.058H954.352V180.386H964.538V170.058Z" fill="#6D6E71"/>
        <path d="M964.538 185.55H954.352V195.878H964.538V185.55Z" fill="#6D6E71"/>
        <path d="M964.538 201.041H954.352V211.369H964.538V201.041Z" fill="#6D6E71"/>
        <path d="M964.538 216.533H954.352V226.861H964.538V216.533Z" fill="#6D6E71"/>
        <path d="M981.158 118.275H970.972V128.41H981.158V118.275Z" fill="#6D6E71"/>
        <path d="M981.158 133.525H970.972V143.66H981.158V133.525Z" fill="#6D6E71"/>
        <path d="M981.158 148.727H970.972V158.862H981.158V148.727Z" fill="#6D6E71"/>
        <path d="M981.158 163.978H970.972V174.112H981.158V163.978Z" fill="#6D6E71"/>
        <path d="M981.158 179.228H970.972V189.362H981.158V179.228Z" fill="#6D6E71"/>
        <path d="M981.158 194.43H970.972V204.564H981.158V194.43Z" fill="#6D6E71"/>
        <path d="M981.158 209.68H970.972V219.815H981.158V209.68Z" fill="#6D6E71"/>
        <path d="M981.158 224.93H970.972V235.065H981.158V224.93Z" fill="#6D6E71"/>
        <path d="M997.778 146.362H987.592V156.738H997.778V146.362Z" fill="#6D6E71"/>
        <path d="M997.778 161.902H987.592V172.278H997.778V161.902Z" fill="#6D6E71"/>
        <path d="M997.778 177.394H987.592V187.77H997.778V177.394Z" fill="#6D6E71"/>
        <path d="M997.778 192.934H987.592V203.261H997.778V192.934Z" fill="#6D6E71"/>
        <path d="M997.778 208.473H987.592V218.801H997.778V208.473Z" fill="#6D6E71"/>
        <path d="M997.778 223.965H987.592V234.341H997.778V223.965Z" fill="#6D6E71"/>
        <path d="M1014.4 144.77H1004.21V155.242H1014.4V144.77Z" fill="#6D6E71"/>
        <path d="M1014.4 160.503H1004.21V170.975H1014.4V160.503Z" fill="#6D6E71"/>
        <path d="M1014.4 176.187H1004.21V186.66H1014.4V176.187Z" fill="#6D6E71"/>
        <path d="M1014.4 191.92H1004.21V202.393H1014.4V191.92Z" fill="#6D6E71"/>
        <path d="M1014.4 207.653H1004.21V218.126H1014.4V207.653Z" fill="#6D6E71"/>
        <path d="M1014.4 223.338H1004.21V233.81H1014.4V223.338Z" fill="#6D6E71"/>
        <path d="M1031.02 149.548H1020.83V159.634H1031.02V149.548Z" fill="#6D6E71"/>
        <path d="M1031.02 164.653H1020.83V174.739H1031.02V164.653Z" fill="#6D6E71"/>
        <path d="M1031.02 179.71H1020.83V189.797H1031.02V179.71Z" fill="#6D6E71"/>
        <path d="M1031.02 194.816H1020.83V204.854H1031.02V194.816Z" fill="#6D6E71"/>
        <path d="M1031.02 209.921H1020.83V220.008H1031.02V209.921Z" fill="#6D6E71"/>
        <path d="M1031.02 225.027H1020.83V235.065H1031.02V225.027Z" fill="#6D6E71"/>
        <path d="M1047.64 178.6H1037.45V188.783H1047.64V178.6Z" fill="#6D6E71"/>
        <path d="M1047.64 193.851H1037.45V204.033H1047.64V193.851Z" fill="#6D6E71"/>
        <path d="M1047.64 209.149H1037.45V219.332H1047.64V209.149Z" fill="#6D6E71"/>
        <path d="M1047.64 224.399H1037.45V234.582H1047.64V224.399Z" fill="#6D6E71"/>
        <path d="M1064.26 143.853H1054.07V154.374H1064.26V143.853Z" fill="#6D6E71"/>
        <path d="M1064.26 159.634H1054.07V170.155H1064.26V159.634Z" fill="#6D6E71"/>
        <path d="M1064.26 175.463H1054.07V185.984H1064.26V175.463Z" fill="#6D6E71"/>
        <path d="M1064.26 191.245H1054.07V201.765H1064.26V191.245Z" fill="#6D6E71"/>
        <path d="M1064.26 207.026H1054.07V217.546H1064.26V207.026Z" fill="#6D6E71"/>
        <path d="M1064.26 222.807H1054.07V233.327H1064.26V222.807Z" fill="#6D6E71"/>
        <path d="M1080.88 164.219H1070.69V174.305H1080.88V164.219Z" fill="#6D6E71"/>
        <path d="M1080.88 179.324H1070.69V189.362H1080.88V179.324Z" fill="#6D6E71"/>
        <path d="M1080.88 194.43H1070.69V204.516H1080.88V194.43Z" fill="#6D6E71"/>
        <path d="M1080.88 209.535H1070.69V219.622H1080.88V209.535Z" fill="#6D6E71"/>
        <path d="M1080.88 224.641H1070.69V234.727H1080.88V224.641Z" fill="#6D6E71"/>
        <path d="M1097.5 143.949H1087.31V154.47H1097.5V143.949Z" fill="#6D6E71"/>
        <path d="M1097.5 159.682H1087.31V170.203H1097.5V159.682Z" fill="#6D6E71"/>
        <path d="M1097.5 175.463H1087.31V185.984H1097.5V175.463Z" fill="#6D6E71"/>
        <path d="M1097.5 191.196H1087.31V201.717H1097.5V191.196Z" fill="#6D6E71"/>
        <path d="M1097.5 206.929H1087.31V217.45H1097.5V206.929Z" fill="#6D6E71"/>
        <path d="M1097.5 222.71H1087.31V233.231H1097.5V222.71Z" fill="#6D6E71"/>
        <path d="M1114.12 134.346H1103.93V144.384H1114.12V134.346Z" fill="#6D6E71"/>
        <path d="M1114.12 149.403H1103.93V159.441H1114.12V149.403Z" fill="#6D6E71"/>
        <path d="M1114.12 164.46H1103.93V174.498H1114.12V164.46Z" fill="#6D6E71"/>
        <path d="M1114.12 179.469H1103.93V189.507H1114.12V179.469Z" fill="#6D6E71"/>
        <path d="M1114.12 194.526H1103.93V204.564H1114.12V194.526Z" fill="#6D6E71"/>
        <path d="M1114.12 209.535H1103.93V219.573H1114.12V209.535Z" fill="#6D6E71"/>
        <path d="M1114.12 224.592H1103.93V234.63H1114.12V224.592Z" fill="#6D6E71"/>
        <path d="M1130.74 150.368H1120.55V160.31H1130.74V150.368Z" fill="#6D6E71"/>
        <path d="M1130.74 165.232H1120.55V175.174H1130.74V165.232Z" fill="#6D6E71"/>
        <path d="M1130.74 180.145H1120.55V190.086H1130.74V180.145Z" fill="#6D6E71"/>
        <path d="M1130.74 195.057H1120.55V204.999H1130.74V195.057Z" fill="#6D6E71"/>
        <path d="M1130.74 209.969H1120.55V219.911H1130.74V209.969Z" fill="#6D6E71"/>
        <path d="M1130.74 224.882H1120.55V234.823H1130.74V224.882Z" fill="#6D6E71"/>
        <path d="M1147.36 104.086H1137.17V114.125H1147.36V104.086Z" fill="#6D6E71"/>
        <path d="M1147.36 119.095H1137.17V129.134H1147.36V119.095Z" fill="#6D6E71"/>
        <path d="M1147.36 134.153H1137.17V144.191H1147.36V134.153Z" fill="#6D6E71"/>
        <path d="M1147.36 149.21H1137.17V159.248H1147.36V149.21Z" fill="#6D6E71"/>
        <path d="M1147.36 164.219H1137.17V174.257H1147.36V164.219Z" fill="#6D6E71"/>
        <path d="M1147.36 179.276H1137.17V189.314H1147.36V179.276Z" fill="#6D6E71"/>
        <path d="M1147.36 194.285H1137.17V204.323H1147.36V194.285Z" fill="#6D6E71"/>
        <path d="M1147.36 209.342H1137.17V219.38H1147.36V209.342Z" fill="#6D6E71"/>
        <path d="M1147.36 224.351H1137.17V234.389H1147.36V224.351Z" fill="#6D6E71"/>
        <path d="M1163.98 127.251H1153.79V137.241H1163.98V127.251Z" fill="#6D6E71"/>
        <path d="M1163.98 142.212H1153.79V152.202H1163.98V142.212Z" fill="#6D6E71"/>
        <path d="M1163.98 157.173H1153.79V167.163H1163.98V157.173Z" fill="#6D6E71"/>
        <path d="M1163.98 172.133H1153.79V182.123H1163.98V172.133Z" fill="#6D6E71"/>
        <path d="M1163.98 187.094H1153.79V197.084H1163.98V187.094Z" fill="#6D6E71"/>
        <path d="M1163.98 202.055H1153.79V212.045H1163.98V202.055Z" fill="#6D6E71"/>
        <path d="M1163.98 217.016H1153.79V227.006H1163.98V217.016Z" fill="#6D6E71"/>
        <path d="M1180.6 100.081H1170.41V110.312H1180.6V100.081Z" fill="#6D6E71"/>
        <path d="M1180.6 115.476H1170.41V125.707H1180.6V115.476Z" fill="#6D6E71"/>
        <path d="M1180.6 130.871H1170.41V141.102H1180.6V130.871Z" fill="#6D6E71"/>
        <path d="M1180.6 146.218H1170.41V156.497H1180.6V146.218Z" fill="#6D6E71"/>
        <path d="M1180.6 161.613H1170.41V171.892H1180.6V161.613Z" fill="#6D6E71"/>
        <path d="M1180.6 177.008H1170.41V187.287H1180.6V177.008Z" fill="#6D6E71"/>
        <path d="M1180.6 192.403H1170.41V202.682H1180.6V192.403Z" fill="#6D6E71"/>
        <path d="M1180.6 207.798H1170.41V218.077H1180.6V207.798Z" fill="#6D6E71"/>
        <path d="M1180.6 223.193H1170.41V233.472H1180.6V223.193Z" fill="#6D6E71"/>
        <path d="M1197.22 83.5276H1187.03V93.8553H1197.22V83.5276Z" fill="#6D6E71"/>
        <path d="M1197.22 99.0192H1187.03V109.347H1197.22V99.0192Z" fill="#6D6E71"/>
        <path d="M1197.22 114.511H1187.03V124.838H1197.22V114.511Z" fill="#6D6E71"/>
        <path d="M1197.22 129.954H1187.03V140.282H1197.22V129.954Z" fill="#6D6E71"/>
        <path d="M1197.22 145.445H1187.03V155.773H1197.22V145.445Z" fill="#6D6E71"/>
        <path d="M1197.22 160.937H1187.03V171.265H1197.22V160.937Z" fill="#6D6E71"/>
        <path d="M1197.22 176.38H1187.03V186.708H1197.22V176.38Z" fill="#6D6E71"/>
        <path d="M1197.22 191.872H1187.03V202.2H1197.22V191.872Z" fill="#6D6E71"/>
        <path d="M1197.22 207.315H1187.03V217.643H1197.22V207.315Z" fill="#6D6E71"/>
        <path d="M1197.22 222.807H1187.03V233.135H1197.22V222.807Z" fill="#6D6E71"/>
        <path d="M1213.84 79.8115H1203.66V89.8979H1213.84V79.8115Z" fill="#6D6E71"/>
        <path d="M1213.84 94.9653H1203.66V105.052H1213.84V94.9653Z" fill="#6D6E71"/>
        <path d="M1213.84 110.071H1203.66V120.157H1213.84V110.071Z" fill="#6D6E71"/>
        <path d="M1213.84 125.224H1203.66V135.311H1213.84V125.224Z" fill="#6D6E71"/>
        <path d="M1213.84 140.378H1203.66V150.465H1213.84V140.378Z" fill="#6D6E71"/>
        <path d="M1213.84 155.532H1203.66V165.618H1213.84V155.532Z" fill="#6D6E71"/>
        <path d="M1213.84 170.637H1203.66V180.724H1213.84V170.637Z" fill="#6D6E71"/>
        <path d="M1213.84 185.791H1203.66V195.878H1213.84V185.791Z" fill="#6D6E71"/>
        <path d="M1213.84 200.945H1203.66V211.031H1213.84V200.945Z" fill="#6D6E71"/>
        <path d="M1213.84 216.099H1203.66V226.185H1213.84V216.099Z" fill="#6D6E71"/>
        <path d="M1230.46 7.13159H1220.28V17.411H1230.46V7.13159Z" fill="#6D6E71"/>
        <path d="M1230.46 22.5266H1220.28V32.8061H1230.46V22.5266Z" fill="#6D6E71"/>
        <path d="M1230.46 37.9216H1220.28V48.2011H1230.46V37.9216Z" fill="#6D6E71"/>
        <path d="M1230.46 53.3649H1220.28V63.6444H1230.46V53.3649Z" fill="#6D6E71"/>
        <path d="M1230.46 68.76H1220.28V79.0395H1230.46V68.76Z" fill="#6D6E71"/>
        <path d="M1230.46 84.155H1220.28V94.4345H1230.46V84.155Z" fill="#6D6E71"/>
        <path d="M1230.46 99.55H1220.28V109.829H1230.46V99.55Z" fill="#6D6E71"/>
        <path d="M1230.46 114.945H1220.28V125.225H1230.46V114.945Z" fill="#6D6E71"/>
        <path d="M1230.46 130.388H1220.28V140.668H1230.46V130.388Z" fill="#6D6E71"/>
        <path d="M1230.46 145.783H1220.28V156.063H1230.46V145.783Z" fill="#6D6E71"/>
        <path d="M1230.46 161.178H1220.28V171.458H1230.46V161.178Z" fill="#6D6E71"/>
        <path d="M1230.46 176.573H1220.28V186.853H1230.46V176.573Z" fill="#6D6E71"/>
        <path d="M1230.46 191.968H1220.28V202.248H1230.46V191.968Z" fill="#6D6E71"/>
        <path d="M1230.46 207.363H1220.28V217.643H1230.46V207.363Z" fill="#6D6E71"/>
        <path d="M1230.46 222.807H1220.28V233.086H1230.46V222.807Z" fill="#6D6E71"/>
        <path d="M1247.08 97.2336H1236.9V107.658H1247.08V97.2336Z" fill="#6D6E71"/>
        <path d="M1247.08 112.87H1236.9V123.294H1247.08V112.87Z" fill="#6D6E71"/>
        <path d="M1247.08 128.458H1236.9V138.882H1247.08V128.458Z" fill="#6D6E71"/>
        <path d="M1247.08 144.046H1236.9V154.47H1247.08V144.046Z" fill="#6D6E71"/>
        <path d="M1247.08 159.682H1236.9V170.107H1247.08V159.682Z" fill="#6D6E71"/>
        <path d="M1247.08 175.271H1236.9V185.695H1247.08V175.271Z" fill="#6D6E71"/>
        <path d="M1247.08 190.907H1236.9V201.331H1247.08V190.907Z" fill="#6D6E71"/>
        <path d="M1247.08 206.495H1236.9V216.919H1247.08V206.495Z" fill="#6D6E71"/>
        <path d="M1247.08 222.083H1236.9V232.507H1247.08V222.083Z" fill="#6D6E71"/>
        <path d="M1263.7 104.521H1253.52V114.945H1263.7V104.521Z" fill="#6D6E71"/>
        <path d="M1263.7 120.205H1253.52V130.63H1263.7V120.205Z" fill="#6D6E71"/>
        <path d="M1263.7 135.842H1253.52V146.266H1263.7V135.842Z" fill="#6D6E71"/>
        <path d="M1263.7 151.478H1253.52V161.902H1263.7V151.478Z" fill="#6D6E71"/>
        <path d="M1263.7 167.114H1253.52V177.539H1263.7V167.114Z" fill="#6D6E71"/>
        <path d="M1263.7 182.751H1253.52V193.175H1263.7V182.751Z" fill="#6D6E71"/>
        <path d="M1263.7 198.387H1253.52V208.811H1263.7V198.387Z" fill="#6D6E71"/>
        <path d="M1263.7 214.072H1253.52V224.496H1263.7V214.072Z" fill="#6D6E71"/>
        <path d="M1263.7 229.708H1253.52V240.132H1263.7V229.708Z" fill="#6D6E71"/>
        <path d="M1280.32 54.861H1270.14V65.0439H1280.32V54.861Z" fill="#6D6E71"/>
        <path d="M1280.32 70.1113H1270.14V80.2942H1280.32V70.1113Z" fill="#6D6E71"/>
        <path d="M1280.32 85.3616H1270.14V95.5445H1280.32V85.3616Z" fill="#6D6E71"/>
        <path d="M1280.32 100.66H1270.14V110.843H1280.32V100.66Z" fill="#6D6E71"/>
        <path d="M1280.32 115.91H1270.14V126.093H1280.32V115.91Z" fill="#6D6E71"/>
        <path d="M1280.32 131.209H1270.14V141.392H1280.32V131.209Z" fill="#6D6E71"/>
        <path d="M1280.32 146.459H1270.14V156.642H1280.32V146.459Z" fill="#6D6E71"/>
        <path d="M1280.32 161.758H1270.14V171.94H1280.32V161.758Z" fill="#6D6E71"/>
        <path d="M1280.32 177.008H1270.14V187.191H1280.32V177.008Z" fill="#6D6E71"/>
        <path d="M1280.32 192.306H1270.14V202.489H1280.32V192.306Z" fill="#6D6E71"/>
        <path d="M1280.32 207.557H1270.14V217.739H1280.32V207.557Z" fill="#6D6E71"/>
        <path d="M1280.32 222.807H1270.14V232.99H1280.32V222.807Z" fill="#6D6E71"/>
        <path d="M1296.94 58.8184H1286.76V69.1943H1296.94V58.8184Z" fill="#6D6E71"/>
        <path d="M1296.94 74.3582H1286.76V84.7342H1296.94V74.3582Z" fill="#6D6E71"/>
        <path d="M1296.94 89.8979H1286.76V100.274H1296.94V89.8979Z" fill="#6D6E71"/>
        <path d="M1296.94 105.438H1286.76V115.814H1296.94V105.438Z" fill="#6D6E71"/>
        <path d="M1296.94 120.978H1286.76V131.354H1296.94V120.978Z" fill="#6D6E71"/>
        <path d="M1296.94 136.517H1286.76V146.893H1296.94V136.517Z" fill="#6D6E71"/>
        <path d="M1296.94 152.057H1286.76V162.433H1296.94V152.057Z" fill="#6D6E71"/>
        <path d="M1296.94 167.597H1286.76V177.973H1296.94V167.597Z" fill="#6D6E71"/>
        <path d="M1296.94 183.137H1286.76V193.513H1296.94V183.137Z" fill="#6D6E71"/>
        <path d="M1296.94 198.677H1286.76V209.053H1296.94V198.677Z" fill="#6D6E71"/>
        <path d="M1296.94 214.216H1286.76V224.592H1296.94V214.216Z" fill="#6D6E71"/>
        <path d="M1296.94 229.756H1286.76V240.132H1296.94V229.756Z" fill="#6D6E71"/>
        <path d="M1313.56 84.348H1303.38V94.5792H1313.56V84.348Z" fill="#6D6E71"/>
        <path d="M1313.56 99.6465H1303.38V109.878H1313.56V99.6465Z" fill="#6D6E71"/>
        <path d="M1313.56 114.993H1303.38V125.224H1313.56V114.993Z" fill="#6D6E71"/>
        <path d="M1313.56 130.34H1303.38V140.571H1313.56V130.34Z" fill="#6D6E71"/>
        <path d="M1313.56 145.687H1303.38V155.918H1313.56V145.687Z" fill="#6D6E71"/>
        <path d="M1313.56 161.034H1303.38V171.265H1313.56V161.034Z" fill="#6D6E71"/>
        <path d="M1313.56 176.38H1303.38V186.612H1313.56V176.38Z" fill="#6D6E71"/>
        <path d="M1313.56 191.727H1303.38V201.958H1313.56V191.727Z" fill="#6D6E71"/>
        <path d="M1313.56 207.074H1303.38V217.305H1313.56V207.074Z" fill="#6D6E71"/>
        <path d="M1313.56 222.421H1303.38V232.652H1313.56V222.421Z" fill="#6D6E71"/>
        <path d="M1330.18 116.2H1320V126.334H1330.18V116.2Z" fill="#6D6E71"/>
        <path d="M1330.18 131.402H1320V141.536H1330.18V131.402Z" fill="#6D6E71"/>
        <path d="M1330.18 146.604H1320V156.738H1330.18V146.604Z" fill="#6D6E71"/>
        <path d="M1330.18 161.806H1320V171.94H1330.18V161.806Z" fill="#6D6E71"/>
        <path d="M1330.18 177.056H1320V187.191H1330.18V177.056Z" fill="#6D6E71"/>
        <path d="M1330.18 192.258H1320V202.393H1330.18V192.258Z" fill="#6D6E71"/>
        <path d="M1330.18 207.46H1320V217.595H1330.18V207.46Z" fill="#6D6E71"/>
        <path d="M1330.18 222.662H1320V232.797H1330.18V222.662Z" fill="#6D6E71"/>
        <path d="M1346.8 135.021H1336.62V145.494H1346.8V135.021Z" fill="#6D6E71"/>
        <path d="M1346.8 150.706H1336.62V161.178H1346.8V150.706Z" fill="#6D6E71"/>
        <path d="M1346.8 166.391H1336.62V176.863H1346.8V166.391Z" fill="#6D6E71"/>
        <path d="M1346.8 182.075H1336.62V192.548H1346.8V182.075Z" fill="#6D6E71"/>
        <path d="M1346.8 197.711H1336.62V208.184H1346.8V197.711Z" fill="#6D6E71"/>
        <path d="M1346.8 213.396H1336.62V223.868H1346.8V213.396Z" fill="#6D6E71"/>
        <path d="M1346.8 229.081H1336.62V239.553H1346.8V229.081Z" fill="#6D6E71"/>
        <path d="M1363.42 122.956H1353.24V133.139H1363.42V122.956Z" fill="#6D6E71"/>
        <path d="M1363.42 138.255H1353.24V148.438H1363.42V138.255Z" fill="#6D6E71"/>
        <path d="M1363.42 153.505H1353.24V163.688H1363.42V153.505Z" fill="#6D6E71"/>
        <path d="M1363.42 168.803H1353.24V178.986H1363.42V168.803Z" fill="#6D6E71"/>
        <path d="M1363.42 184.054H1353.24V194.237H1363.42V184.054Z" fill="#6D6E71"/>
        <path d="M1363.42 199.352H1353.24V209.535H1363.42V199.352Z" fill="#6D6E71"/>
        <path d="M1363.42 214.651H1353.24V224.834H1363.42V214.651Z" fill="#6D6E71"/>
        <path d="M1363.42 229.901H1353.24V240.084H1363.42V229.901Z" fill="#6D6E71"/>
        <path d="M1380.04 104.376H1369.86V114.752H1380.04V104.376Z" fill="#6D6E71"/>
        <path d="M1380.04 119.964H1369.86V130.34H1380.04V119.964Z" fill="#6D6E71"/>
        <path d="M1380.04 135.552H1369.86V145.928H1380.04V135.552Z" fill="#6D6E71"/>
        <path d="M1380.04 151.14H1369.86V161.516H1380.04V151.14Z" fill="#6D6E71"/>
        <path d="M1380.04 166.728H1369.86V177.104H1380.04V166.728Z" fill="#6D6E71"/>
        <path d="M1380.04 182.316H1369.86V192.692H1380.04V182.316Z" fill="#6D6E71"/>
        <path d="M1380.04 197.904H1369.86V208.28H1380.04V197.904Z" fill="#6D6E71"/>
        <path d="M1380.04 213.493H1369.86V223.869H1380.04V213.493Z" fill="#6D6E71"/>
        <path d="M1380.04 229.081H1369.86V239.457H1380.04V229.081Z" fill="#6D6E71"/>
        <path d="M1396.66 155.049H1386.48V165.087H1396.66V155.049Z" fill="#6D6E71"/>
        <path d="M1396.66 170.107H1386.48V180.145H1396.66V170.107Z" fill="#6D6E71"/>
        <path d="M1396.66 185.115H1386.48V195.154H1396.66V185.115Z" fill="#6D6E71"/>
        <path d="M1396.66 200.173H1386.48V210.211H1396.66V200.173Z" fill="#6D6E71"/>
        <path d="M1396.66 215.23H1386.48V225.268H1396.66V215.23Z" fill="#6D6E71"/>
        <path d="M1396.66 230.239H1386.48V240.277H1396.66V230.239Z" fill="#6D6E71"/>
        <path d="M1413.28 111.374H1403.1V121.798H1413.28V111.374Z" fill="#6D6E71"/>
        <path d="M1413.28 127.01H1403.1V137.434H1413.28V127.01Z" fill="#6D6E71"/>
        <path d="M1413.28 142.646H1403.1V153.071H1413.28V142.646Z" fill="#6D6E71"/>
        <path d="M1413.28 158.283H1403.1V168.707H1413.28V158.283Z" fill="#6D6E71"/>
        <path d="M1413.28 173.967H1403.1V184.392H1413.28V173.967Z" fill="#6D6E71"/>
        <path d="M1413.28 189.604H1403.1V200.028H1413.28V189.604Z" fill="#6D6E71"/>
        <path d="M1413.28 205.24H1403.1V215.664H1413.28V205.24Z" fill="#6D6E71"/>
        <path d="M1413.28 220.876H1403.1V231.301H1413.28V220.876Z" fill="#6D6E71"/>
        <path d="M1429.9 174.305H1419.72V184.681H1429.9V174.305Z" fill="#6D6E71"/>
        <path d="M1429.9 189.845H1419.72V200.221H1429.9V189.845Z" fill="#6D6E71"/>
        <path d="M1429.9 205.433H1419.72V215.809H1429.9V205.433Z" fill="#6D6E71"/>
        <path d="M1429.9 220.973H1419.72V231.349H1429.9V220.973Z" fill="#6D6E71"/>
        <path d="M1446.52 134.925H1436.34V145.349H1446.52V134.925Z" fill="#6D6E71"/>
        <path d="M1446.52 150.561H1436.34V160.985H1446.52V150.561Z" fill="#6D6E71"/>
        <path d="M1446.52 166.149H1436.34V176.573H1446.52V166.149Z" fill="#6D6E71"/>
        <path d="M1446.52 181.786H1436.34V192.21H1446.52V181.786Z" fill="#6D6E71"/>
        <path d="M1446.52 197.374H1436.34V207.798H1446.52V197.374Z" fill="#6D6E71"/>
        <path d="M1446.52 212.962H1436.34V223.386H1446.52V212.962Z" fill="#6D6E71"/>
        <path d="M1446.52 228.598H1436.34V239.022H1446.52V228.598Z" fill="#6D6E71"/>
        <path d="M1463.14 122.715H1452.96V132.85H1463.14V122.715Z" fill="#6D6E71"/>
        <path d="M1463.14 137.917H1452.96V148.052H1463.14V137.917Z" fill="#6D6E71"/>
        <path d="M1463.14 153.167H1452.96V163.302H1463.14V153.167Z" fill="#6D6E71"/>
        <path d="M1463.14 168.417H1452.96V178.552H1463.14V168.417Z" fill="#6D6E71"/>
        <path d="M1463.14 183.619H1452.96V193.754H1463.14V183.619Z" fill="#6D6E71"/>
        <path d="M1463.14 198.87H1452.96V209.004H1463.14V198.87Z" fill="#6D6E71"/>
        <path d="M1463.14 214.12H1452.96V224.255H1463.14V214.12Z" fill="#6D6E71"/>
        <path d="M1463.14 229.37H1452.96V239.505H1463.14V229.37Z" fill="#6D6E71"/>
        <path d="M1479.77 156.015H1469.58V165.908H1479.77V156.015Z" fill="#6D6E71"/>
        <path d="M1479.77 170.879H1469.58V180.772H1479.77V170.879Z" fill="#6D6E71"/>
        <path d="M1479.77 185.695H1469.58V195.588H1479.77V185.695Z" fill="#6D6E71"/>
        <path d="M1479.77 200.511H1469.58V210.404H1479.77V200.511Z" fill="#6D6E71"/>
        <path d="M1479.77 215.326H1469.58V225.22H1479.77V215.326Z" fill="#6D6E71"/>
        <path d="M1479.77 230.191H1469.58V240.084H1479.77V230.191Z" fill="#6D6E71"/>
        <path d="M1496.39 132.174H1486.2V142.164H1496.39V132.174Z" fill="#6D6E71"/>
        <path d="M1496.39 147.183H1486.2V157.173H1496.39V147.183Z" fill="#6D6E71"/>
        <path d="M1496.39 162.192H1486.2V172.182H1496.39V162.192Z" fill="#6D6E71"/>
        <path d="M1496.39 177.153H1486.2V187.142H1496.39V177.153Z" fill="#6D6E71"/>
        <path d="M1496.39 192.162H1486.2V202.151H1496.39V192.162Z" fill="#6D6E71"/>
        <path d="M1496.39 207.17H1486.2V217.16H1496.39V207.17Z" fill="#6D6E71"/>
        <path d="M1496.39 222.179H1486.2V232.169H1496.39V222.179Z" fill="#6D6E71"/>
        <path d="M1513.01 115.573H1502.82V125.659H1513.01V115.573Z" fill="#6D6E71"/>
        <path d="M1513.01 130.726H1502.82V140.813H1513.01V130.726Z" fill="#6D6E71"/>
        <path d="M1513.01 145.88H1502.82V155.966H1513.01V145.88Z" fill="#6D6E71"/>
        <path d="M1513.01 161.034H1502.82V171.12H1513.01V161.034Z" fill="#6D6E71"/>
        <path d="M1513.01 176.187H1502.82V186.274H1513.01V176.187Z" fill="#6D6E71"/>
        <path d="M1513.01 191.341H1502.82V201.428H1513.01V191.341Z" fill="#6D6E71"/>
        <path d="M1513.01 206.495H1502.82V216.581H1513.01V206.495Z" fill="#6D6E71"/>
        <path d="M1513.01 221.649H1502.82V231.735H1513.01V221.649Z" fill="#6D6E71"/>
        <path d="M1529.63 140.185H1519.44V150.127H1529.63V140.185Z" fill="#6D6E71"/>
        <path d="M1529.63 155.098H1519.44V165.039H1529.63V155.098Z" fill="#6D6E71"/>
        <path d="M1529.63 170.01H1519.44V179.952H1529.63V170.01Z" fill="#6D6E71"/>
        <path d="M1529.63 184.923H1519.44V194.864H1529.63V184.923Z" fill="#6D6E71"/>
        <path d="M1529.63 199.835H1519.44V209.777H1529.63V199.835Z" fill="#6D6E71"/>
        <path d="M1529.63 214.747H1519.44V224.689H1529.63V214.747Z" fill="#6D6E71"/>
        <path d="M1529.63 229.66H1519.44V239.602H1529.63V229.66Z" fill="#6D6E71"/>
        <path d="M1546.25 142.309H1536.06V152.685H1546.25V142.309Z" fill="#6D6E71"/>
        <path d="M1546.25 157.848H1536.06V168.224H1546.25V157.848Z" fill="#6D6E71"/>
        <path d="M1546.25 173.436H1536.06V183.812H1546.25V173.436Z" fill="#6D6E71"/>
        <path d="M1546.25 189.025H1536.06V199.401H1546.25V189.025Z" fill="#6D6E71"/>
        <path d="M1546.25 204.613H1536.06V214.989H1546.25V204.613Z" fill="#6D6E71"/>
        <path d="M1546.25 220.201H1536.06V230.577H1546.25V220.201Z" fill="#6D6E71"/>
        <path d="M1562.87 120.688H1552.68V130.919H1562.87V120.688Z" fill="#6D6E71"/>
        <path d="M1562.87 136.035H1552.68V146.266H1562.87V136.035Z" fill="#6D6E71"/>
        <path d="M1562.87 151.43H1552.68V161.661H1562.87V151.43Z" fill="#6D6E71"/>
        <path d="M1562.87 166.825H1552.68V177.104H1562.87V166.825Z" fill="#6D6E71"/>
        <path d="M1562.87 182.172H1552.68V192.403H1562.87V182.172Z" fill="#6D6E71"/>
        <path d="M1562.87 197.567H1552.68V207.846H1562.87V197.567Z" fill="#6D6E71"/>
        <path d="M1562.87 212.962H1552.68V223.193H1562.87V212.962Z" fill="#6D6E71"/>
        <path d="M1562.87 228.357H1552.68V238.588H1562.87V228.357Z" fill="#6D6E71"/>
        <path d="M1579.49 138.689H1569.3V148.727H1579.49V138.689Z" fill="#6D6E71"/>
        <path d="M1579.49 153.746H1569.3V163.785H1579.49V153.746Z" fill="#6D6E71"/>
        <path d="M1579.49 168.804H1569.3V178.842H1579.49V168.804Z" fill="#6D6E71"/>
        <path d="M1579.49 183.861H1569.3V193.899H1579.49V183.861Z" fill="#6D6E71"/>
        <path d="M1579.49 198.87H1569.3V208.908H1579.49V198.87Z" fill="#6D6E71"/>
        <path d="M1579.49 213.927H1569.3V223.965H1579.49V213.927Z" fill="#6D6E71"/>
        <path d="M1579.49 228.984H1569.3V239.022H1579.49V228.984Z" fill="#6D6E71"/>
        <path d="M1596.11 111.519H1585.92V121.846H1596.11V111.519Z" fill="#6D6E71"/>
        <path d="M1596.11 127.01H1585.92V137.338H1596.11V127.01Z" fill="#6D6E71"/>
        <path d="M1596.11 142.502H1585.92V152.829H1596.11V142.502Z" fill="#6D6E71"/>
        <path d="M1596.11 158.041H1585.92V168.369H1596.11V158.041Z" fill="#6D6E71"/>
        <path d="M1596.11 173.533H1585.92V183.861H1596.11V173.533Z" fill="#6D6E71"/>
        <path d="M1596.11 189.073H1585.92V199.401H1596.11V189.073Z" fill="#6D6E71"/>
        <path d="M1596.11 204.564H1585.92V214.892H1596.11V204.564Z" fill="#6D6E71"/>
        <path d="M1596.11 220.056H1585.92V230.384H1596.11V220.056Z" fill="#6D6E71"/>
        <path d="M1612.73 65.3818H1602.54V75.7095H1612.73V65.3818Z" fill="#6D6E71"/>
        <path d="M1612.73 80.8734H1602.54V91.2011H1612.73V80.8734Z" fill="#6D6E71"/>
        <path d="M1612.73 96.3167H1602.54V106.644H1612.73V96.3167Z" fill="#6D6E71"/>
        <path d="M1612.73 111.808H1602.54V122.136H1612.73V111.808Z" fill="#6D6E71"/>
        <path d="M1612.73 127.252H1602.54V137.579H1612.73V127.252Z" fill="#6D6E71"/>
        <path d="M1612.73 142.743H1602.54V153.071H1612.73V142.743Z" fill="#6D6E71"/>
        <path d="M1612.73 158.186H1602.54V168.514H1612.73V158.186Z" fill="#6D6E71"/>
        <path d="M1612.73 173.678H1602.54V184.006H1612.73V173.678Z" fill="#6D6E71"/>
        <path d="M1612.73 189.121H1602.54V199.449H1612.73V189.121Z" fill="#6D6E71"/>
        <path d="M1612.73 204.613H1602.54V214.94H1612.73V204.613Z" fill="#6D6E71"/>
        <path d="M1612.73 220.056H1602.54V230.384H1612.73V220.056Z" fill="#6D6E71"/>
        <path d="M1629.35 100.998H1619.16V111.036H1629.35V100.998Z" fill="#6D6E71"/>
        <path d="M1629.35 116.055H1619.16V126.093H1629.35V116.055Z" fill="#6D6E71"/>
        <path d="M1629.35 131.064H1619.16V141.102H1629.35V131.064Z" fill="#6D6E71"/>
        <path d="M1629.35 146.073H1619.16V156.111H1629.35V146.073Z" fill="#6D6E71"/>
        <path d="M1629.35 161.082H1619.16V171.12H1629.35V161.082Z" fill="#6D6E71"/>
        <path d="M1629.35 176.139H1619.16V186.177H1629.35V176.139Z" fill="#6D6E71"/>
        <path d="M1629.35 191.148H1619.16V201.186H1629.35V191.148Z" fill="#6D6E71"/>
        <path d="M1629.35 206.205H1619.16V216.243H1629.35V206.205Z" fill="#6D6E71"/>
        <path d="M1629.35 221.214H1619.16V231.252H1629.35V221.214Z" fill="#6D6E71"/>
        <path d="M1645.97 94.7239H1635.78V105.1H1645.97V94.7239Z" fill="#6D6E71"/>
        <path d="M1645.97 110.312H1635.78V120.688H1645.97V110.312Z" fill="#6D6E71"/>
        <path d="M1645.97 125.9H1635.78V136.324H1645.97V125.9Z" fill="#6D6E71"/>
        <path d="M1645.97 141.488H1635.78V151.864H1645.97V141.488Z" fill="#6D6E71"/>
        <path d="M1645.97 157.076H1635.78V167.452H1645.97V157.076Z" fill="#6D6E71"/>
        <path d="M1645.97 172.664H1635.78V183.089H1645.97V172.664Z" fill="#6D6E71"/>
        <path d="M1645.97 188.301H1635.78V198.725H1645.97V188.301Z" fill="#6D6E71"/>
        <path d="M1645.97 203.889H1635.78V214.313H1645.97V203.889Z" fill="#6D6E71"/>
        <path d="M1645.97 219.477H1635.78V229.853H1645.97V219.477Z" fill="#6D6E71"/>
        <path d="M1662.59 36.86H1652.4V47.0429H1662.59V36.86Z" fill="#6D6E71"/>
        <path d="M1662.59 52.1102H1652.4V62.2931H1662.59V52.1102Z" fill="#6D6E71"/>
        <path d="M1662.59 67.4087H1652.4V77.5916H1662.59V67.4087Z" fill="#6D6E71"/>
        <path d="M1662.59 82.7073H1652.4V92.8902H1662.59V82.7073Z" fill="#6D6E71"/>
        <path d="M1662.59 98.0058H1652.4V108.189H1662.59V98.0058Z" fill="#6D6E71"/>
        <path d="M1662.59 113.256H1652.4V123.439H1662.59V113.256Z" fill="#6D6E71"/>
        <path d="M1662.59 128.555H1652.4V138.737H1662.59V128.555Z" fill="#6D6E71"/>
        <path d="M1662.59 143.853H1652.4V154.036H1662.59V143.853Z" fill="#6D6E71"/>
        <path d="M1662.59 159.103H1652.4V169.286H1662.59V159.103Z" fill="#6D6E71"/>
        <path d="M1662.59 174.402H1652.4V184.585H1662.59V174.402Z" fill="#6D6E71"/>
        <path d="M1662.59 189.7H1652.4V199.883H1662.59V189.7Z" fill="#6D6E71"/>
        <path d="M1662.59 204.951H1652.4V215.133H1662.59V204.951Z" fill="#6D6E71"/>
        <path d="M1662.59 220.249H1652.4V230.432H1662.59V220.249Z" fill="#6D6E71"/>
    </g>
    <defs>
        <filter id="filter0_f" x="0" y="0" width="1934" height="238" filterUnits="userSpaceOnUse"
                color-interpolation-filters="sRGB">
            <feFlood flood-opacity="0" result="BackgroundImageFix"/>
            <feBlend mode="normal" in="SourceGraphic" in2="BackgroundImageFix" result="shape"/>
            <feGaussianBlur stdDeviation="3.5" result="effect1_foregroundBlur"/>
        </filter>
        <clipPath id="clip0">
            <rect width="1920" height="224" fill="white" transform="translate(7 7)"/>
        </clipPath>
    </defs>
</svg>
