<svg width="131" height="42" viewBox="0 0 131 42" fill="none" xmlns="http://www.w3.org/2000/svg">
<path fill-rule="evenodd" clip-rule="evenodd" d="M125.891 42H66.2944C63.4683 42 61.1858 39.6154 61.1858 36.6826V5.31745C61.1858 2.37588 63.4767 0 66.2944 0H125.883C128.709 0 130.992 2.38458 130.992 5.31745V36.6826C131 39.6241 128.709 42 125.891 42Z" fill="url(#paint0_linear_1711_69)"/>
<path fill-rule="evenodd" clip-rule="evenodd" d="M108.367 22.5927H107.43C105.591 22.5927 103.835 23.3324 102.539 24.6639C101.243 25.9868 100.516 27.7796 100.516 29.6507C100.516 31.4348 101.21 33.1405 102.447 34.3937C103.685 35.6556 105.357 36.3606 107.104 36.3606H108.584V31.4261C108.308 31.574 107.991 31.661 107.673 31.661C107.154 31.661 106.661 31.4522 106.293 31.0779C105.925 30.7037 105.725 30.199 105.716 29.6768C105.716 29.1546 105.925 28.6498 106.293 28.2756C106.661 27.9014 107.154 27.6925 107.673 27.6925C107.932 27.6925 108.183 27.7447 108.417 27.8492C108.651 27.9536 108.869 28.1016 109.052 28.2843C109.236 28.4671 109.379 28.6934 109.47 28.9283C109.571 29.172 109.621 29.4331 109.613 29.6942V36.3693H114.429V28.7717C114.429 27.1355 113.793 25.5603 112.656 24.4028C111.511 23.2454 109.972 22.5927 108.367 22.5927Z" fill="white"/>
<path fill-rule="evenodd" clip-rule="evenodd" d="M116.636 29.0502V17.719H121.702V22.9843H123.876V28.1538H121.702V29.0502C121.702 30.7211 122.672 31.1911 123.074 31.1911H123.885V36.3606H122.271C120.983 36.3606 116.636 34.3241 116.636 29.0502Z" fill="white"/>
<path fill-rule="evenodd" clip-rule="evenodd" d="M80.1569 24.6639C78.8525 23.3324 77.0884 22.5926 75.249 22.5926C74.9647 22.5926 74.6888 22.61 74.4129 22.6448V27.9188C74.6804 27.7708 74.9898 27.6925 75.3242 27.6925C76.4028 27.6925 77.2723 28.5802 77.2723 29.6768C77.2723 30.7733 76.4028 31.661 75.3242 31.661C74.3209 31.661 73.4931 30.8778 73.3845 29.8856H73.3761V22.8537V17.719H68.3093V27.3444V29.0501C68.3093 29.259 68.3093 29.4592 68.3093 29.6681C68.3093 31.5479 69.0367 33.3407 70.341 34.6722C71.6454 35.995 73.4095 36.7435 75.249 36.7435C77.0884 36.7435 78.8525 35.995 80.1569 34.6722C81.4612 33.3494 82.1886 31.5479 82.1886 29.6681C82.1886 27.7969 81.4612 25.9954 80.1569 24.6639Z" fill="white"/>
<path fill-rule="evenodd" clip-rule="evenodd" d="M98.25 30.4339C98.2751 30.1815 98.2918 29.9292 98.2918 29.6681C98.2918 27.7883 97.5644 25.9955 96.2601 24.6639C94.9558 23.3411 93.1916 22.5927 91.3522 22.5927C89.5128 22.5927 87.7486 23.3411 86.4443 24.6639C85.14 25.9868 84.4126 27.7883 84.4126 29.6681C84.4126 31.5479 85.14 33.3494 86.4443 34.6722C87.7486 36.0038 89.5128 36.7435 91.3522 36.7435C92.991 36.7435 94.5796 36.1517 95.8337 35.0726L92.8321 31.6436C92.6733 31.8525 92.4726 32.0179 92.2469 32.131C92.0211 32.2441 91.7703 32.3137 91.5111 32.3225C90.6248 32.3225 89.8807 31.5305 89.5881 30.4252H98.25V30.4339ZM89.6968 27.9971C90.0479 27.092 90.7252 26.4828 91.5027 26.4828C92.2803 26.4828 92.9408 27.092 93.3087 27.9971H89.6968Z" fill="white"/>
<path fill-rule="evenodd" clip-rule="evenodd" d="M70.9179 15.9262C69.4799 15.9262 68.3093 14.7078 68.3093 13.2109V10.1823C68.3093 8.68544 69.4799 7.46704 70.9179 7.46704C72.356 7.46704 73.5266 8.68544 73.5266 10.1823V13.2109C73.5266 14.7165 72.356 15.9262 70.9179 15.9262Z" fill="white"/>
<path fill-rule="evenodd" clip-rule="evenodd" d="M77.7991 20.1471C76.361 20.1471 75.1904 18.9287 75.1904 17.4318V8.8073C75.1904 7.31041 76.361 6.09201 77.7991 6.09201C79.2372 6.09201 80.4077 7.31041 80.4077 8.8073V17.4318C80.4077 18.9287 79.2455 20.1471 77.7991 20.1471Z" fill="white"/>
<path fill-rule="evenodd" clip-rule="evenodd" d="M84.7386 21.8355H84.6383C83.2253 21.8355 82.0798 20.6432 82.0798 19.1724V9.92995C82.0798 8.45917 83.2253 7.26688 84.6383 7.26688H84.7386C86.1516 7.26688 87.297 8.45917 87.297 9.92995V19.1724C87.297 20.6432 86.1516 21.8355 84.7386 21.8355Z" fill="white"/>
<path fill-rule="evenodd" clip-rule="evenodd" d="M91.5696 20.3734C90.1315 20.3734 88.9609 19.155 88.9609 17.6581V7.97182C88.9609 6.47493 90.1315 5.25653 91.5696 5.25653C93.0076 5.25653 94.1782 6.47493 94.1782 7.97182V17.6581C94.1782 19.155 93.0076 20.3734 91.5696 20.3734Z" fill="white"/>
<path fill-rule="evenodd" clip-rule="evenodd" d="M98.459 22.1227C97.0209 22.1227 95.8503 20.9043 95.8503 19.4074V9.98217C95.8503 8.48528 97.0209 7.26688 98.459 7.26688C99.8971 7.26688 101.068 8.48528 101.068 9.98217V19.4074C101.059 20.9043 99.8971 22.1227 98.459 22.1227Z" fill="white"/>
<path fill-rule="evenodd" clip-rule="evenodd" d="M105.374 20.3734H105.315C103.894 20.3734 102.74 19.1724 102.74 17.6929V8.29382C102.74 6.81434 103.894 5.61334 105.315 5.61334H105.374C106.795 5.61334 107.949 6.81434 107.949 8.29382V17.6929C107.949 19.1724 106.795 20.3734 105.374 20.3734Z" fill="white"/>
<path fill-rule="evenodd" clip-rule="evenodd" d="M112.33 20.6867H112.121C110.741 20.6867 109.621 19.5205 109.621 18.0845V10.9482C109.621 9.51222 110.741 8.34604 112.121 8.34604H112.33C113.709 8.34604 114.83 9.51222 114.83 10.9482V18.0845C114.83 19.5205 113.709 20.6867 112.33 20.6867Z" fill="white"/>
<path fill-rule="evenodd" clip-rule="evenodd" d="M119.111 15.7173C117.673 15.7173 116.502 14.4989 116.502 13.002V9.75588C116.502 8.25899 117.673 7.04059 119.111 7.04059C120.549 7.04059 121.719 8.25899 121.719 9.75588V13.002C121.719 14.4989 120.549 15.7173 119.111 15.7173Z" fill="white"/>
<path fill-rule="evenodd" clip-rule="evenodd" d="M11.0532 7.33649V15.0385C11.0198 15.7696 10.4429 16.3614 9.7322 16.3614C9.02151 16.3614 8.43624 15.7783 8.41116 15.0385V7.33649H8.02655H3.96311H0V24.5507V37.3527V37.3614H8.39444V24.8379C8.39444 24.0721 8.98807 23.4542 9.72384 23.4542C10.3927 23.4542 10.9445 23.9677 11.0365 24.6378C11.0449 24.6465 11.0449 24.6639 11.0532 24.6726V37.3527H11.0867H18.7788H19.456V7.32779H11.0532V7.33649Z" fill="white"/>
<path fill-rule="evenodd" clip-rule="evenodd" d="M56.1858 7.33652H50.8348H42.4403H37.0977V15.6826H42.4403V37.3527H50.8348V15.6826H56.1858V7.33652Z" fill="white"/>
<path d="M27.8838 13.8376C27.8838 13.8376 31.0359 25.0382 29.4306 37.3614H33.7783C34.305 23.6892 27.8838 13.8376 27.8838 13.8376Z" fill="white"/>
<path d="M30.0911 13.8376C30.0911 13.8376 36.4872 24.1331 36.0692 37.3614H37.0892C36.7297 22.0879 30.0911 13.8376 30.0911 13.8376Z" fill="white"/>
<path d="M25.6431 3.21136L28.9207 7.53669L33.8871 5.63076L30.9524 10.2085L34.2299 14.5425L28.6782 11.7576L31.3621 12.5495L29.6313 10.2694L31.1865 7.84999L28.5695 8.85082L26.8388 6.57067L26.9475 9.47742L24.3221 10.487L27.0143 11.2702L25.8271 17.0576L25.9859 12.1231L20.8857 10.6262L25.8522 8.72027L25.6431 3.21136Z" fill="white"/>
<path d="M31.0945 18.2499C31.3871 18.9896 31.6881 19.8077 31.9891 20.6954L32.3486 20.5562C32.0142 19.6598 31.6881 18.8417 31.362 18.1194L31.0945 18.2499Z" fill="white"/>
<path d="M34.4389 28.1799C34.2633 27.2748 34.0793 26.4219 33.8787 25.5952L33.4021 25.7257C33.586 26.5438 33.7616 27.3879 33.9121 28.2669L34.4389 28.1799Z" fill="white"/>
<path d="M33.5527 24.3158C33.3103 23.4281 33.0511 22.5839 32.7919 21.8007L32.3989 21.9486C32.6414 22.7319 32.8755 23.5587 33.1012 24.4377L33.5527 24.3158Z" fill="white"/>
<path d="M34.5142 33.5147C34.5894 34.7592 34.6061 36.0385 34.5643 37.3527H35.3921C35.3586 35.995 35.2834 34.6896 35.1663 33.4451L34.5142 33.5147Z" fill="white"/>
<path d="M30.8103 16.9271C29.8153 14.8819 29.0544 13.8376 29.0544 13.8376C29.0544 13.8376 29.7233 14.9951 30.5929 17.0315L30.8103 16.9271Z" fill="white"/>
<path d="M35.0408 32.131C34.9321 31.2172 34.8151 30.3382 34.6729 29.494L34.1211 29.5898C34.2465 30.4339 34.3468 31.3129 34.4221 32.2006L35.0408 32.131Z" fill="white"/>
<path d="M25.6431 3.21136L28.9207 7.53669L33.8871 5.63076L30.9524 10.2085L34.2299 14.5425L28.6782 11.7576L31.3621 12.5495L29.6313 10.2694L31.1865 7.84999L28.5695 8.85082L26.8388 6.57067L26.9475 9.47742L24.3221 10.487L27.0143 11.2702L25.8271 17.0576L25.9859 12.1231L20.8857 10.6262L25.8522 8.72027L25.6431 3.21136Z" fill="white"/>
<defs>
<linearGradient id="paint0_linear_1711_69" x1="56.5548" y1="-0.983806" x2="136.151" y2="39.8668" gradientUnits="userSpaceOnUse">
<stop stop-color="#79EFF7"/>
<stop offset="0.5417" stop-color="#6748FF"/>
<stop offset="1" stop-color="#F58CD6"/>
</linearGradient>
</defs>
</svg>
