<svg width="19" height="20" viewBox="0 0 19 20" fill="none" xmlns="http://www.w3.org/2000/svg">
<mask id="mask0" mask-type="alpha" maskUnits="userSpaceOnUse" x="0" y="0" width="19" height="20">
<circle cx="9.5" cy="10" r="9.5" fill="#C4C4C4"/>
</mask>
<g mask="url(#mask0)">
<path fill-rule="evenodd" clip-rule="evenodd" d="M-5 0.5H21V19.5H-5V0.5Z" fill="#6FDCFF"/>
<path d="M12.9366 8.65065C12.9366 6.76888 11.2846 5.24341 9.24674 5.24341C7.20889 5.24341 5.55688 6.76888 5.55688 8.65065C5.55688 10.5324 7.20889 12.0579 9.24674 12.0579C11.2846 12.0579 12.9366 10.5324 12.9366 8.65065Z" fill="#FFE400"/>
<path fill-rule="evenodd" clip-rule="evenodd" d="M9.07317 3.21126C9.03848 3.21126 8.87372 4.34348 8.81302 4.59697C8.75231 5.16731 9.59348 5.14618 9.45473 4.57584L9.07317 3.20703V3.21126ZM9.36801 14.1871C9.39836 14.1871 9.64985 13.0676 9.73223 12.8183C9.83195 12.2564 8.99079 12.2268 9.08184 12.8014L9.36801 14.1871ZM3.48853 8.62736C3.48853 8.65693 4.69824 8.89352 4.96707 8.96956C5.57409 9.06673 5.61745 8.29361 4.99308 8.3781L3.48853 8.63159V8.62736ZM15.2692 8.76255C15.2692 8.73298 14.0465 8.53864 13.7733 8.47105C13.1619 8.39922 13.1576 9.17235 13.7733 9.06673L15.2692 8.76255ZM4.72859 5.03634C4.70691 5.05746 5.50472 5.93621 5.66515 6.15167C6.0814 6.57414 6.63206 5.98268 6.0814 5.6954L4.72859 5.04056V5.03634ZM13.8817 12.2606C13.9034 12.2395 13.0275 11.4284 12.8454 11.2298C12.3901 10.8411 11.9002 11.4706 12.4725 11.7156L13.8817 12.2649V12.2606ZM6.55401 3.81117C6.52799 3.82384 6.90088 4.91382 6.96158 5.17153C7.16971 5.70807 7.92416 5.35742 7.53392 4.89692L6.55835 3.81117H6.55401ZM11.8915 13.6294C11.9219 13.6168 11.6314 12.5057 11.5923 12.248C11.4232 11.6987 10.6471 11.9945 10.9983 12.4845L11.8958 13.6252L11.8915 13.6294ZM13.2053 4.57162C13.1793 4.5505 12.2167 5.27292 11.9826 5.41657C11.5186 5.79679 12.1473 6.31221 12.4682 5.80947L13.2053 4.57162ZM5.27058 12.7549C5.29226 12.776 6.3112 12.1212 6.55401 11.9902C7.04397 11.6438 6.45862 11.0862 6.09874 11.5678L5.27492 12.7549H5.27058ZM3.75301 6.66709C3.74001 6.69243 4.79363 7.28812 5.02344 7.44444C5.56542 7.71904 5.88194 7.00084 5.26191 6.88677L3.75301 6.66709ZM14.7532 10.8242C14.7662 10.7989 13.7559 10.1356 13.5392 9.9666C13.0188 9.65397 12.6503 10.3511 13.2617 10.5031L14.7532 10.8242ZM11.2585 3.51966C11.2281 3.51121 10.6254 4.50825 10.465 4.72371C10.4653 4.79251 10.4877 4.8595 10.529 4.91528C10.5704 4.97106 10.6286 5.01282 10.6956 5.03472C10.7625 5.05662 10.8348 5.05755 10.9023 5.03738C10.9698 5.01722 11.0292 4.97696 11.072 4.92227L11.2585 3.51966ZM7.18705 13.8407C7.2174 13.8534 7.8938 12.8943 8.06724 12.6873C8.38376 12.1973 7.61631 11.8846 7.47322 12.4507L7.18705 13.8407ZM3.82673 10.9129C3.83973 10.9383 5.04078 10.6595 5.32261 10.6172C5.9123 10.4567 5.58277 9.74691 5.06246 10.0764L3.82673 10.9129ZM14.7575 6.57414C14.7489 6.54879 13.5305 6.74736 13.2486 6.7727C12.6416 6.89522 12.9235 7.6261 13.4654 7.33037L14.7575 6.57414Z" fill="#FFE400"/>
<path fill-rule="evenodd" clip-rule="evenodd" d="M10.27 3.28303C10.2396 3.27881 9.83205 4.35611 9.71064 4.5927C9.53287 5.14191 10.361 5.27711 10.348 4.69409L10.2743 3.27881L10.27 3.28303ZM8.16706 14.0941C8.19741 14.1026 8.68737 13.0506 8.82612 12.8182C9.04291 12.2859 8.22776 12.1 8.19741 12.6788L8.16273 14.0941H8.16706ZM7.74648 3.38865C7.71613 3.3971 7.82886 4.53778 7.82886 4.79971C7.91124 5.3616 8.72206 5.16726 8.45323 4.6434L7.74648 3.38865ZM10.6949 14.0307C10.7252 14.0265 10.6949 12.8816 10.7166 12.6197C10.6776 12.0493 9.84939 12.193 10.0835 12.7338L10.6906 14.0307H10.6949ZM5.65657 4.33499C5.63056 4.35189 6.20723 5.3616 6.31563 5.60241C6.62782 6.0967 7.29988 5.63198 6.82727 5.23908L5.65657 4.33499ZM12.8021 13.1182C12.8282 13.1013 12.3252 12.0536 12.2385 11.8085C11.9653 11.2973 11.2629 11.7198 11.7008 12.1381L12.8021 13.1182ZM4.13034 5.7545C4.11299 5.77985 5.04521 6.53185 5.24033 6.72619C5.72161 7.08107 6.16821 6.42201 5.57853 6.215L4.13034 5.7545ZM14.285 11.6564C14.3024 11.6311 13.4309 10.82 13.2487 10.6172C12.7978 10.2327 12.3035 10.8622 12.8759 11.1072L14.285 11.6564ZM3.46261 7.52466C3.45394 7.55423 4.60295 7.98093 4.85443 8.10345C5.43544 8.29356 5.62189 7.53734 4.98884 7.52044L3.46261 7.52466ZM15.0568 9.96656C15.0698 9.94121 13.9555 9.44269 13.7127 9.30327C13.149 9.07514 12.9019 9.81869 13.5306 9.87784L15.0568 9.96656ZM3.42358 9.7004C3.42792 9.72575 4.66799 9.70885 4.94982 9.72997C5.56552 9.7004 5.4181 8.93572 4.82842 9.14273L3.42358 9.7004ZM15.1392 7.79927C15.1392 7.7697 13.8991 7.70633 13.6216 7.6683C13.0016 7.65985 13.0926 8.43298 13.6953 8.25976L15.1392 7.79504V7.79927ZM4.48588 11.9564C4.50322 11.9818 5.61322 11.4663 5.87337 11.3692C6.41102 11.0946 5.91673 10.4651 5.48747 10.8918L4.48588 11.9564ZM14.1246 5.52214C14.1073 5.49679 12.9669 5.94039 12.6937 6.02066C12.1344 6.26147 12.581 6.92053 13.0406 6.5234L14.1246 5.52214ZM6.28962 13.452C6.31563 13.4646 7.1091 12.5859 7.30855 12.4C7.68578 11.948 6.96168 11.5551 6.74922 12.1043L6.28962 13.452ZM12.3469 3.99701C12.3252 3.98011 11.4667 4.80394 11.2542 4.97715C10.8467 5.40385 11.5404 5.84322 11.7919 5.3109L12.3425 3.99701H12.3469Z" fill="#FFE400"/>
<path fill-rule="evenodd" clip-rule="evenodd" d="M3.60498 10.9169C3.67122 11.1348 3.68068 12.3549 5.01492 13.5315C6.33969 14.6993 8.61074 14.9608 8.61074 14.9608C8.61074 14.9608 8.6202 15.1264 8.45933 15.1351C8.29847 15.1525 7.52253 15.0043 7.13456 14.891C6.75605 14.7865 6.41539 14.5947 6.37754 14.6034C6.33023 14.6209 6.25453 14.7429 6.14097 14.7255C6.02742 14.708 5.47859 14.1851 5.23256 14.0457C4.74046 13.6539 4.3048 13.2058 3.93617 12.7122C3.67122 12.3201 3.60498 12.0586 3.51981 12.0586C3.43465 12.0586 3.12238 12.2503 3.12238 12.2503C3.12238 12.2503 2.8385 11.8582 2.59247 11.2307C2.33698 10.6032 2.36537 10.2371 2.42214 10.211C2.48838 10.1848 2.48838 10.6729 2.67763 11.1174C2.86689 11.5706 3.13184 11.71 3.13184 11.71C3.13184 11.71 2.96151 11.4747 2.82904 10.8908C2.69656 10.3069 2.63978 9.74036 2.73441 9.56606C2.82904 9.39176 2.9142 9.33946 2.92366 9.34818C2.94259 9.36561 2.7628 9.61835 2.88581 10.2894C3.00883 10.9605 3.34002 11.527 3.41572 11.5008C3.49143 11.4747 3.36841 11.3352 3.3211 10.9431C3.27378 10.5509 3.36841 10.3069 3.4725 10.272C3.51981 10.2371 3.59552 10.7077 3.60498 10.9169ZM2.67763 12.0325C2.42214 11.8146 2.02471 11.0564 1.93955 11.0912C1.84492 11.1348 2.58301 12.2242 2.60193 12.3113C2.62086 12.4159 2.78172 12.7122 2.65871 12.6687C2.5357 12.6251 1.65567 11.771 1.75976 11.9366C1.86384 12.1022 2.52623 12.8517 2.48838 12.8953C2.45053 12.9388 1.93954 12.4769 1.92062 12.5379C1.91116 12.5902 2.42214 13.0434 2.41268 13.0957C2.40322 13.148 2.08149 12.8081 2.08149 12.8778C2.08149 12.9476 2.41268 13.2874 2.41268 13.3397C2.41268 13.392 2.1288 13.0957 2.22343 13.2526C2.30859 13.4269 2.55462 13.575 2.54516 13.6273C2.53569 13.6796 2.33698 13.5576 2.33698 13.5838C2.33698 13.6099 2.70602 13.7319 2.79119 13.8278C2.88581 13.9237 3.49143 14.5686 3.94564 14.891C4.39984 15.2135 5.70569 15.78 5.80032 15.78C5.88548 15.78 6.01796 15.6057 5.98957 15.536C5.96118 15.4662 4.68372 15.0653 4.3336 14.769C3.97402 14.4727 3.10346 13.7581 3.02775 13.7232C2.96152 13.6796 2.7628 13.6971 2.7628 13.6535C2.7628 13.6099 3.01829 13.6796 2.99937 13.6535C2.9899 13.6273 2.64925 13.4879 2.65871 13.4618C2.67764 13.4356 2.89528 13.514 2.89528 13.4879C2.89528 13.4618 2.49784 13.2613 2.51677 13.2177C2.52623 13.1741 2.81011 13.3397 2.81011 13.3049C2.81011 13.2874 2.4316 13.0434 2.44107 12.9998C2.45053 12.9563 2.73441 13.1916 2.72495 13.1393C2.71548 13.087 2.49784 12.7907 2.49784 12.7558C2.49784 12.7122 2.8385 13.0521 2.87635 12.9824C2.89528 12.9214 2.75334 12.3549 2.7628 12.3462C2.77226 12.3375 3.01829 12.4682 3.05614 12.3898C3.10345 12.3026 2.88581 12.1893 2.67763 12.0325ZM7.03993 16.3203C6.86014 16.3465 6.77498 16.2855 6.87907 16.146C7.02101 16.146 7.39951 16.0327 7.53199 15.9804C7.66447 15.9282 7.80641 15.8584 7.91996 15.7626C8.03351 15.6493 8.10921 15.8236 8.04297 15.9194C7.99566 15.9804 7.77802 16.0937 7.61715 16.1547C7.38059 16.2245 7.17241 16.329 7.03993 16.3203ZM8.22276 15.8759C8.09975 15.7538 8.20384 15.6667 8.38363 15.5708C8.64859 15.4401 8.57289 15.2571 8.91354 15.1089C9.06495 15.0218 11.1846 14.2374 11.8754 13.8191C12.5661 13.4007 14.506 12.0499 15.0264 11.1174C15.5374 10.1936 15.2914 10.1238 15.3671 10.089C15.4333 10.0454 15.509 10.2197 15.4996 10.4289C15.4806 10.6293 15.3103 11.2394 15.3671 11.3004C15.4239 11.3614 16.143 10.821 16.4458 10.1674C16.7486 9.51377 16.9757 8.83398 17.1177 8.83398C17.2691 8.83398 16.8717 9.94953 16.6162 10.3853C16.3701 10.821 16.0768 11.0389 16.143 11.1348C16.2187 11.2219 16.9568 10.6555 17.2123 10.2371C17.4583 9.81009 17.6949 9.43533 17.7422 9.51377C17.6669 10.0243 17.4484 10.5079 17.1082 10.9169C16.7108 11.3352 16.2377 11.6403 16.3134 11.7013C16.3796 11.771 16.919 11.8407 17.4773 11.4921C18.045 11.1348 18.1018 10.6206 18.168 10.6467C18.2437 10.6729 18.1018 11.3788 17.5624 11.8146C17.0231 12.2503 16.3134 12.2939 16.3323 12.3898C16.3701 12.4769 17.8747 11.9889 17.8463 12.1022C17.8179 12.2068 15.897 12.904 15.8781 12.9737C15.8781 13.026 16.2093 13.0434 16.7297 12.9301C17.2407 12.8255 17.7328 12.4508 17.799 12.5379C17.8179 12.66 17.43 12.9563 16.8433 13.0957C16.2471 13.2352 15.9538 13.4182 15.9348 13.4618C15.9254 13.5053 16.9947 13.3397 16.9947 13.392C16.9947 13.4443 15.5942 13.6971 15.5847 13.7668C15.5658 13.8278 16.9095 13.514 16.8906 13.5925C16.8527 13.6535 15.0643 14.1415 15.0832 14.1677C15.0927 14.2025 16.5783 13.8714 16.5499 13.9237C16.5121 13.9847 14.0518 14.6209 14.0328 14.6644C14.0139 14.6993 16.2093 14.2113 16.1903 14.2548C16.1714 14.2984 15.0548 14.5511 15.0548 14.5773C15.0548 14.6034 15.9538 14.4466 15.9348 14.4901C15.9254 14.525 13.6638 15.0566 13.6165 15.1351C13.5692 15.2222 14.7899 14.9172 14.7709 15.0741C14.752 15.2309 12.1498 16.0327 12.1403 15.8846C12.1214 15.7364 13.7206 15.3617 13.7111 15.3181C13.6922 15.2745 12.7932 15.4052 12.7743 15.3268C12.7649 15.2397 13.3705 15.0653 13.3231 15.0305C13.2758 14.9869 12.8216 15.1525 12.8595 15.0566C12.9068 14.9608 13.7679 14.5947 13.749 14.5686C13.7395 14.5424 13.4367 14.6557 13.4651 14.5686C13.5029 14.4727 15.3292 13.9847 15.3009 13.9237C15.2725 13.8714 14.4587 14.0457 14.383 14.0631C14.3546 14.0108 15.5185 13.6099 15.4996 13.5402C15.4617 13.4792 14.875 13.7755 14.8372 13.6971C14.8183 13.6099 15.8686 13.2352 15.8024 13.1741C15.7361 13.1131 15.263 13.331 15.1968 13.27C15.1305 13.209 16.1903 12.5379 16.0295 12.5205C15.8686 12.5118 15.6699 12.7297 15.651 12.5902C15.6699 12.4159 16.4742 12.1283 16.2944 11.9889C16.0106 11.9104 15.0548 12.0499 14.6574 12.2678C14.26 12.4856 12.9352 13.6971 12.6134 13.8888C12.2917 14.0718 11.194 14.4989 10.9859 14.586C10.6641 14.6906 10.6074 14.8475 10.2762 15.0043C9.68002 15.1525 9.68948 15.3181 9.4056 15.414C9.30151 15.4401 8.23223 15.9107 8.22276 15.8759ZM6.72766 16.4859C6.54787 16.5731 6.38701 16.7822 6.4911 16.8694C6.54787 16.974 6.72766 16.6341 6.8696 16.6515L7.62662 16.6864C8.03351 16.7125 8.23223 16.6079 8.45933 16.6254C8.68644 16.6428 9.18796 16.5121 9.42453 16.5121C9.66109 16.5121 9.70841 16.5382 9.72733 16.4423C9.75572 16.3552 8.98924 16.4162 8.64859 16.4075C8.30793 16.3901 7.88211 16.4685 7.62662 16.4685C7.39005 16.4598 6.98315 16.3901 6.72766 16.4859Z" fill="#FFE400"/>
<path d="M7.86323 16.3815C7.86323 16.3093 7.79121 16.2507 7.70237 16.2507C7.61352 16.2507 7.5415 16.3093 7.5415 16.3815C7.5415 16.4537 7.61352 16.5122 7.70237 16.5122C7.79121 16.5122 7.86323 16.4537 7.86323 16.3815Z" fill="#FFE400"/>
<path fill-rule="evenodd" clip-rule="evenodd" d="M11.6387 16.1287C11.7995 16.1026 12.2348 16.242 12.5376 16.303C13.0865 16.5035 14.1084 16.4076 14.1084 16.5035C14.1084 16.5993 14.0422 16.7126 13.8056 16.7301C13.569 16.7475 12.9729 16.6429 12.9918 16.6429C13.0107 16.6429 13.465 16.8434 13.3325 16.8956C13.2 16.9479 12.812 16.7824 12.7458 16.8259C12.6796 16.8695 13.1054 16.9479 13.0297 16.9741C12.9729 17.0002 12.6796 16.9392 12.5849 16.9479C12.4903 16.9654 12.6606 17.0612 12.5471 17.0961C12.4335 17.1397 12.2443 17.0438 12.1686 17.07C12.0834 17.0961 12.3389 17.2443 12.2253 17.2617C12.1118 17.2791 11.8468 17.192 11.6954 17.1745C11.544 17.1745 11.8374 17.314 11.7428 17.3314C11.6481 17.3401 11.3832 17.2181 11.3169 17.2181C11.2507 17.2181 11.3169 17.3924 11.2223 17.3924C11.1277 17.3924 11.0141 17.2443 10.9574 17.2443C10.9006 17.2443 10.9574 17.4186 10.8627 17.4186C10.7681 17.4186 10.7302 17.2355 10.6545 17.2443C10.5599 17.2617 10.6545 17.4796 10.5221 17.4621C10.3991 17.4534 10.3801 17.2355 10.276 17.2443C10.1814 17.2617 10.295 17.4621 10.2003 17.4621C10.1057 17.4621 10.0868 17.2617 9.99216 17.2443C9.89753 17.2355 9.93538 17.436 9.87861 17.436C9.82183 17.436 9.76505 17.2443 9.7272 17.2443C9.69882 17.2443 9.72721 17.436 9.61365 17.4186C9.5001 17.4011 9.5001 17.2094 9.47171 17.2181C9.43386 17.2355 9.43386 17.375 9.35816 17.375C9.28246 17.375 9.273 17.2355 9.24461 17.253C9.20676 17.2617 9.09321 17.436 9.0175 17.4098C8.93234 17.3837 9.03643 17.2443 8.99858 17.2443C8.96073 17.2443 8.8661 17.3401 8.80933 17.3314C8.75255 17.3227 8.80933 17.2094 8.7904 17.2094C8.77148 17.2094 8.62954 17.2791 8.5633 17.2791C8.49706 17.2791 8.31727 17.3663 8.26995 17.2878C8.22264 17.2007 8.39297 17.2007 8.43082 17.1222C8.45921 17.0438 8.33619 16.8085 8.46867 16.7301C8.59169 16.6429 8.99858 16.8434 9.60419 16.7039C10.7019 16.4337 11.5535 16.12 11.6387 16.1287Z" fill="#FFE400"/>
</g>
</svg>
