<svg width="34" height="33" viewBox="0 0 34 33" fill="none" xmlns="http://www.w3.org/2000/svg">
    <path fill-rule="evenodd" clip-rule="evenodd"
          d="M16.9978 0C7.61018 0 0 7.38565 0 16.4891C0 25.5925 7.61018 33 16.9978 33C26.3854 33 34 25.6143 34 16.5065C34 7.39873 26.3854 0 16.9978 0ZM16.9978 31.6855C16.9978 31.6819 16.9948 31.679 16.9912 31.679C8.34833 31.6755 1.34297 24.8754 1.34297 16.4891C1.34297 8.10067 8.36505 1.30361 16.9978 1.30361C25.6306 1.30361 32.657 8.10503 32.657 16.4891C32.657 24.871 25.6473 31.6886 17.0044 31.692C17.0008 31.692 16.9978 31.6891 16.9978 31.6855Z"
          fill="url(#paint0_linear)"/>
    <path fill-rule="evenodd" clip-rule="evenodd"
          d="M16.9978 2.5549C9.06289 2.5549 2.6333 8.7939 2.6333 16.5065C2.6333 24.2192 9.06289 30.4582 16.9978 30.4582C24.9328 30.4582 31.3667 24.2192 31.3667 16.5065C31.3667 8.7939 24.9328 2.5549 16.9978 2.5549ZM16.9978 21.66C16.9978 21.6576 16.9958 21.6556 16.9934 21.6556C15.6005 21.6684 14.2591 21.1324 13.2629 20.1649C12.2657 19.1963 11.696 17.8744 11.6786 16.4891C11.6971 15.1045 12.2674 13.7837 13.2645 12.8161C14.2615 11.8485 15.604 11.313 16.9978 11.327C18.3924 11.3119 19.736 11.8468 20.734 12.8146C21.7321 13.7823 22.3029 15.1038 22.3214 16.4891C22.314 17.1762 22.1704 17.8551 21.8988 18.487C21.6272 19.1189 21.233 19.6915 20.7386 20.1721C20.2443 20.6527 19.6595 21.0318 19.0176 21.2878C18.3771 21.5433 17.6923 21.6712 17.0021 21.6643C16.9998 21.6643 16.9978 21.6624 16.9978 21.66Z"
          fill="url(#paint1_linear)"/>
    <path fill-rule="evenodd" clip-rule="evenodd"
          d="M16.9978 13.4284C16.1717 13.418 15.3751 13.7334 14.7828 14.3055C14.1904 14.8776 13.8506 15.6597 13.8379 16.4804C13.8518 17.3006 14.1919 18.0821 14.784 18.654C15.3761 19.2258 16.1721 19.5416 16.9978 19.5323C17.8239 19.5428 18.6205 19.2274 19.2129 18.6553C19.8053 18.0831 20.1451 17.301 20.1578 16.4804C20.1451 15.6597 19.8053 14.8776 19.2129 14.3055C18.6205 13.7334 17.8239 13.418 16.9978 13.4284ZM16.9978 18.2505C16.5255 18.2552 16.0703 18.0747 15.731 17.7483C15.3917 17.4218 15.1956 16.9757 15.1853 16.5065C15.1945 16.037 15.3902 15.5902 15.7298 15.2635C16.0693 14.9368 16.5252 14.7567 16.9978 14.7626C17.4713 14.7556 17.9282 14.9351 18.2687 15.2619C18.6092 15.5888 18.8056 16.0363 18.8148 16.5065C18.8044 16.9764 18.6077 17.4232 18.2675 17.7498C17.9272 18.0764 17.4709 18.2563 16.9978 18.2505Z"
          fill="url(#paint2_linear)"/>
    <defs>
        <linearGradient id="paint0_linear" x1="4.5" y1="5.49999" x2="29" y2="28" gradientUnits="userSpaceOnUse">
            <stop stop-color="#07EFF7"/>
            <stop offset="0.541667" stop-color="#2A29FF"/>
            <stop offset="1" stop-color="#F590A1"/>
        </linearGradient>
        <linearGradient id="paint1_linear" x1="6.43626" y1="7.20544" x2="27.1514" y2="26.2194"
                        gradientUnits="userSpaceOnUse">
            <stop stop-color="#07EFF7"/>
            <stop offset="0.541667" stop-color="#2A29FF"/>
            <stop offset="1" stop-color="#F590A1"/>
        </linearGradient>
        <linearGradient id="paint2_linear" x1="6.99999" y1="6.5" x2="27.5" y2="26" gradientUnits="userSpaceOnUse">
            <stop stop-color="#07EFF7"/>
            <stop offset="0.510417" stop-color="#2A29FF"/>
            <stop offset="1" stop-color="#F590A1"/>
        </linearGradient>
    </defs>
</svg>
