<svg width="246" height="22" viewBox="0 0 246 22" fill="none" xmlns="http://www.w3.org/2000/svg">
    <path
        d="M246 3.86786C246 3.63769 245.809 3.41694 245.468 3.25419C245.127 3.09143 244.664 3 244.182 3C243.7 3 243.237 3.09143 242.896 3.25419C242.555 3.41694 242.364 3.63769 242.364 3.86786V18.3321C242.364 18.5623 242.555 18.7831 242.896 18.9458C243.237 19.1086 243.7 19.2 244.182 19.2C244.664 19.2 245.127 19.1086 245.468 18.9458C245.809 18.7831 246 18.5623 246 18.3321V3.86786Z"
        fill="white" fill-opacity="0.44"/>
    <path
        d="M226 4.64212C226 4.34491 226.082 4.05328 226.237 3.79833C226.392 3.54338 226.615 3.33465 226.881 3.1944C227.147 3.05414 227.447 2.98761 227.749 3.0019C228.05 3.01619 228.342 3.11076 228.593 3.27553L239.803 10.6328C240.031 10.7828 240.218 10.986 240.348 11.2244C240.478 11.4628 240.545 11.729 240.545 11.9993C240.545 12.2697 240.478 12.5359 240.348 12.7743C240.218 13.0127 240.031 13.2159 239.803 13.3659L228.593 20.7245C228.342 20.8893 228.05 20.9839 227.748 20.9981C227.447 21.0123 227.147 20.9457 226.881 20.8053C226.614 20.6649 226.392 20.456 226.237 20.2008C226.082 19.9457 226 19.6539 226 19.3566V4.64081V4.64212Z"
        fill="white" fill-opacity="0.44"/>
    <path
        d="M177 4.64212C177 4.34491 177.081 4.05328 177.235 3.79833C177.388 3.54338 177.609 3.33465 177.872 3.1944C178.136 3.05414 178.433 2.98761 178.731 3.0019C179.03 3.01619 179.319 3.11076 179.567 3.27553L190.665 10.6328C190.891 10.7828 191.076 10.986 191.205 11.2244C191.333 11.4628 191.4 11.729 191.4 11.9993C191.4 12.2697 191.333 12.5359 191.205 12.7743C191.076 13.0127 190.891 13.2159 190.665 13.3659L179.567 20.7245C179.319 20.8893 179.029 20.9839 178.731 20.9981C178.432 21.0123 178.135 20.9457 177.872 20.8053C177.608 20.6649 177.388 20.456 177.234 20.2008C177.081 19.9457 177 19.6539 177 19.3566V4.64081V4.64212Z"
        fill="white" fill-opacity="0.44"/>
    <path
        d="M191.4 4.64212C191.4 4.34491 191.481 4.05328 191.635 3.79833C191.788 3.54338 192.009 3.33465 192.272 3.1944C192.536 3.05414 192.833 2.98761 193.131 3.0019C193.43 3.01619 193.719 3.11076 193.967 3.27553L205.065 10.6328C205.291 10.7828 205.476 10.986 205.604 11.2244C205.733 11.4628 205.8 11.729 205.8 11.9993C205.8 12.2697 205.733 12.5359 205.604 12.7743C205.476 13.0127 205.291 13.2159 205.065 13.3659L193.967 20.7245C193.719 20.8893 193.429 20.9839 193.131 20.9981C192.832 21.0123 192.535 20.9457 192.272 20.8053C192.008 20.6649 191.788 20.456 191.634 20.2008C191.481 19.9457 191.4 19.6539 191.4 19.3566V4.64081V4.64212Z"
        fill="white" fill-opacity="0.44"/>
    <path
        d="M-0.000135422 3.86786C-0.000135422 3.63769 0.191421 3.41694 0.532397 3.25419C0.873372 3.09143 1.33584 3 1.81805 3C2.30026 3 2.76272 3.09143 3.1037 3.25419C3.44467 3.41694 3.63623 3.63769 3.63623 3.86786V18.3321C3.63623 18.5623 3.44467 18.7831 3.1037 18.9458C2.76272 19.1086 2.30026 19.2 1.81805 19.2C1.33584 19.2 0.873372 19.1086 0.532397 18.9458C0.191421 18.7831 -0.000135422 18.5623 -0.000135422 18.3321V3.86786Z"
        fill="white" fill-opacity="0.44"/>
    <path
        d="M20 4.64212C19.9999 4.34491 19.9179 4.05328 19.7628 3.79833C19.6076 3.54338 19.3851 3.33465 19.1189 3.1944C18.8527 3.05414 18.5529 2.98761 18.2514 3.0019C17.9498 3.01619 17.6578 3.11076 17.4066 3.27553L6.19737 10.6328C5.96887 10.7828 5.78151 10.986 5.65193 11.2244C5.52235 11.4628 5.45455 11.729 5.45455 11.9993C5.45455 12.2697 5.52235 12.5359 5.65193 12.7743C5.78151 13.0127 5.96887 13.2159 6.19737 13.3659L17.4066 20.7245C17.6579 20.8893 17.95 20.9839 18.2517 20.9981C18.5534 21.0123 18.8533 20.9457 19.1195 20.8053C19.3857 20.6649 19.6082 20.456 19.7633 20.2008C19.9184 19.9457 20.0002 19.6539 20 19.3566V4.64081V4.64212Z"
        fill="white" fill-opacity="0.44"/>
    <path
        d="M116 1.17857C116 0.865995 116.211 0.56622 116.586 0.345195C116.961 0.12417 117.47 0 118 0C118.53 0 119.039 0.12417 119.414 0.345195C119.789 0.56622 120 0.865995 120 1.17857V20.8214C120 21.134 119.789 21.4338 119.414 21.6548C119.039 21.8758 118.53 22 118 22C117.47 22 116.961 21.8758 116.586 21.6548C116.211 21.4338 116 21.134 116 20.8214V1.17857Z"
        fill="white" fill-opacity="0.44"/>
    <path
        d="M126 1.17857C126 0.865995 126.211 0.56622 126.586 0.345195C126.961 0.12417 127.47 0 128 0C128.53 0 129.039 0.12417 129.414 0.345195C129.789 0.56622 130 0.865995 130 1.17857V20.8214C130 21.134 129.789 21.4338 129.414 21.6548C129.039 21.8758 128.53 22 128 22C127.47 22 126.961 21.8758 126.586 21.6548C126.211 21.4338 126 21.134 126 20.8214V1.17857Z"
        fill="white" fill-opacity="0.44"/>
    <path
        d="M69 4.64212C68.9999 4.34491 68.9188 4.05328 68.7651 3.79833C68.6115 3.54338 68.3912 3.33465 68.1277 3.1944C67.8642 3.05414 67.5674 2.98761 67.2688 3.0019C66.9703 3.01619 66.6813 3.11076 66.4325 3.27553L55.3354 10.6328C55.1092 10.7828 54.9237 10.986 54.7954 11.2244C54.6671 11.4628 54.6 11.729 54.6 11.9993C54.6 12.2697 54.6671 12.5359 54.7954 12.7743C54.9237 13.0127 55.1092 13.2159 55.3354 13.3659L66.4325 20.7245C66.6814 20.8893 66.9705 20.9839 67.2692 20.9981C67.5678 21.0123 67.8648 20.9457 68.1283 20.8053C68.3919 20.6649 68.6121 20.456 68.7657 20.2008C68.9192 19.9457 69.0002 19.6539 69 19.3566V4.64081V4.64212Z"
        fill="white" fill-opacity="0.44"/>
    <path
        d="M54.6001 4.64212C54.6 4.34491 54.5189 4.05328 54.3652 3.79833C54.2116 3.54338 53.9913 3.33465 53.7278 3.1944C53.4643 3.05414 53.1675 2.98761 52.8689 3.0019C52.5704 3.01619 52.2814 3.11076 52.0326 3.27553L40.9355 10.6328C40.7093 10.7828 40.5238 10.986 40.3955 11.2244C40.2672 11.4628 40.2001 11.729 40.2001 11.9993C40.2001 12.2697 40.2672 12.5359 40.3955 12.7743C40.5238 13.0127 40.7093 13.2159 40.9355 13.3659L52.0326 20.7245C52.2815 20.8893 52.5706 20.9839 52.8693 20.9981C53.1679 21.0123 53.4649 20.9457 53.7284 20.8053C53.992 20.6649 54.2122 20.456 54.3657 20.2008C54.5193 19.9457 54.6003 19.6539 54.6001 19.3566V4.64081V4.64212Z"
        fill="white" fill-opacity="0.44"/>
</svg>
