<svg width="48" height="52" viewBox="0 0 48 52" fill="none" xmlns="http://www.w3.org/2000/svg">
    <g filter="url(#filter0_d)">
        <path
            d="M15 6C15 3.23858 17.2386 1 20 1H28C30.7614 1 33 3.23858 33 6V11.7805C33 13.2127 32.4876 14.5977 31.5555 15.6852L26.2778 21.8426C25.0805 23.2394 22.9195 23.2394 21.7222 21.8426L16.4445 15.6852C15.5124 14.5977 15 13.2127 15 11.7805V6Z"
            fill="white"/>
        <path
            d="M15.5 6C15.5 3.51472 17.5147 1.5 20 1.5H28C30.4853 1.5 32.5 3.51472 32.5 6V11.7805C32.5 13.0934 32.0303 14.363 31.1759 15.3598L25.8981 21.5172C24.9004 22.6812 23.0996 22.6812 22.1019 21.5172L16.8241 15.3598C15.9697 14.363 15.5 13.0934 15.5 11.7805V6Z"
            stroke="#E1E5F6"/>
    </g>
    <defs>
        <filter id="filter0_d" x="0" y="0" width="48" height="51.8902" filterUnits="userSpaceOnUse"
                color-interpolation-filters="sRGB">
            <feFlood flood-opacity="0" result="BackgroundImageFix"/>
            <feColorMatrix in="SourceAlpha" type="matrix" values="0 0 0 0 0 0 0 0 0 0 0 0 0 0 0 0 0 0 127 0"/>
            <feMorphology radius="7" operator="erode" in="SourceAlpha" result="effect1_dropShadow"/>
            <feOffset dy="14"/>
            <feGaussianBlur stdDeviation="11"/>
            <feColorMatrix type="matrix" values="0 0 0 0 0.513726 0 0 0 0 0.172549 0 0 0 0 0.952941 0 0 0 0.2 0"/>
            <feBlend mode="normal" in2="BackgroundImageFix" result="effect1_dropShadow"/>
            <feBlend mode="normal" in="SourceGraphic" in2="effect1_dropShadow" result="shape"/>
        </filter>
    </defs>
</svg>
