<svg width="17" height="15" viewBox="0 0 17 15" fill="none" xmlns="http://www.w3.org/2000/svg">
    <path
        d="M16.706 2.04991C16.0916 2.32214 15.4317 2.50608 14.7379 2.58922C15.4537 2.16085 15.9893 1.48667 16.2447 0.692445C15.5721 1.09195 14.836 1.37316 14.0683 1.52385C13.5521 0.972668 12.8684 0.607338 12.1232 0.484576C11.3781 0.361814 10.6133 0.488488 9.94755 0.844932C9.2818 1.20138 8.75235 1.76765 8.4414 2.45583C8.13046 3.14401 8.05541 3.91559 8.22792 4.65079C6.86508 4.58237 5.53185 4.22814 4.31477 3.61111C3.09768 2.99407 2.02394 2.12802 1.16322 1.06915C0.868924 1.57682 0.699701 2.16542 0.699701 2.79228C0.699372 3.3566 0.838341 3.91228 1.10428 4.41001C1.37021 4.90774 1.75489 5.33213 2.22418 5.64553C1.67993 5.62821 1.14768 5.48115 0.671742 5.21659V5.26073C0.671687 6.05221 0.945466 6.81934 1.44662 7.43194C1.94778 8.04454 2.64545 8.46488 3.42125 8.62165C2.91636 8.75829 2.38703 8.77842 1.87323 8.68051C2.09211 9.36153 2.51848 9.95706 3.09264 10.3837C3.6668 10.8104 4.36001 11.0468 5.07522 11.0599C3.86111 12.013 2.36168 12.53 0.818157 12.5278C0.544737 12.5278 0.271549 12.5119 0 12.4799C1.56677 13.4873 3.3906 14.0219 5.25327 14.0199C11.5587 14.0199 15.0057 8.7975 15.0057 4.2682C15.0057 4.12105 15.002 3.97243 14.9954 3.82528C15.6659 3.3404 16.2446 2.73997 16.7045 2.05212L16.706 2.04991Z"
        fill="#EAEAFF" fill-opacity="0.44"/>
</svg>
