<svg width="57" height="58" viewBox="0 0 57 58" fill="none" xmlns="http://www.w3.org/2000/svg">
    <g clip-path="url(#clip0)">
        <path
            d="M57 29.1587C57 21.6 53.9973 14.3509 48.6525 9.00615C43.3078 3.66136 36.0587 0.658691 28.5 0.658691C20.9413 0.658691 13.6922 3.66136 8.34746 9.00615C3.00267 14.3509 0 21.6 0 29.1587C0 36.7174 3.00267 43.9664 8.34746 49.3112C13.6922 54.656 20.9413 57.6587 28.5 57.6587C36.0587 57.6587 43.3078 54.656 48.6525 49.3112C53.9973 43.9664 57 36.7174 57 29.1587ZM30.2812 41.6274C30.2812 42.0999 30.0936 42.5529 29.7595 42.887C29.4255 43.221 28.9724 43.4087 28.5 43.4087C28.0276 43.4087 27.5745 43.221 27.2405 42.887C26.9064 42.5529 26.7188 42.0999 26.7188 41.6274V20.9899L19.0736 28.6386C18.7392 28.973 18.2855 29.1609 17.8125 29.1609C17.3395 29.1609 16.8858 28.973 16.5514 28.6386C16.2169 28.3041 16.029 27.8505 16.029 27.3774C16.029 26.9044 16.2169 26.4508 16.5514 26.1163L27.2389 15.4288C27.4043 15.2629 27.6009 15.1313 27.8173 15.0415C28.0337 14.9517 28.2657 14.9055 28.5 14.9055C28.7343 14.9055 28.9663 14.9517 29.1827 15.0415C29.3991 15.1313 29.5957 15.2629 29.7611 15.4288L40.4486 26.1163C40.7831 26.4508 40.971 26.9044 40.971 27.3774C40.971 27.8505 40.7831 28.3041 40.4486 28.6386C40.1142 28.973 39.6605 29.1609 39.1875 29.1609C38.7145 29.1609 38.2608 28.973 37.9264 28.6386L30.2812 20.9899V41.6274Z"
            fill="#EAEAFF" fill-opacity="0.1"/>
    </g>
    <defs>
        <clipPath id="clip0">
            <rect width="57" height="57" fill="white" transform="translate(0 0.658691)"/>
        </clipPath>
    </defs>
</svg>
