<svg width="14" height="14" viewBox="0 0 14 14" fill="none" xmlns="http://www.w3.org/2000/svg">
    <path fill-rule="evenodd" clip-rule="evenodd"
          d="M10.0626 13.125C10.1786 13.125 10.2899 13.079 10.3719 12.9969C10.454 12.9149 10.5001 12.8036 10.5001 12.6875L10.5001 2.36867L13.2528 5.1223C13.335 5.20445 13.4464 5.2506 13.5626 5.2506C13.6787 5.2506 13.7902 5.20445 13.8723 5.1223C13.9545 5.04015 14.0006 4.92873 14.0006 4.81255C14.0006 4.69637 13.9545 4.58495 13.8723 4.5028L10.3723 1.0028C10.3317 0.962057 10.2834 0.929732 10.2302 0.907676C10.1771 0.885621 10.1201 0.874268 10.0626 0.874268C10.005 0.874268 9.94804 0.885621 9.89489 0.907676C9.84173 0.929732 9.79345 0.962057 9.75281 1.0028L6.25281 4.5028C6.17066 4.58495 6.12451 4.69637 6.12451 4.81255C6.12451 4.92873 6.17066 5.04015 6.25281 5.1223C6.33497 5.20445 6.44639 5.2506 6.56256 5.2506C6.67874 5.2506 6.79016 5.20445 6.87231 5.1223L9.62506 2.36867L9.62506 12.6875C9.62506 12.8036 9.67116 12.9149 9.7532 12.9969C9.83525 13.079 9.94653 13.125 10.0626 13.125Z"
          fill="#465BC9" fill-opacity="0.16"/>
    <path fill-rule="evenodd" clip-rule="evenodd"
          d="M3.93757 0.875122C4.0536 0.875122 4.16488 0.921216 4.24692 1.00326C4.32897 1.08531 4.37507 1.19659 4.37507 1.31262L4.37507 11.6315L7.12782 8.87787C7.20997 8.79572 7.32139 8.74957 7.43757 8.74957C7.55374 8.74957 7.66516 8.79572 7.74732 8.87787C7.82947 8.96002 7.87562 9.07144 7.87562 9.18762C7.87562 9.3038 7.82947 9.41522 7.74732 9.49737L4.24732 12.9974C4.20668 13.0381 4.1584 13.0704 4.10524 13.0925C4.05209 13.1145 3.99511 13.1259 3.93757 13.1259C3.88002 13.1259 3.82304 13.1145 3.76989 13.0925C3.71673 13.0704 3.66845 13.0381 3.62782 12.9974L0.127814 9.49737C0.0456636 9.41522 -0.000488284 9.3038 -0.000488281 9.18762C-0.000488279 9.07144 0.0456636 8.96002 0.127814 8.87787C0.209965 8.79572 0.321386 8.74957 0.437564 8.74957C0.553743 8.74957 0.665164 8.79572 0.747314 8.87787L3.50007 11.6315L3.50007 1.31262C3.50007 1.19659 3.54616 1.08531 3.62821 1.00326C3.71025 0.921216 3.82153 0.875122 3.93757 0.875122Z"
          fill="#F84960"/>
</svg>
