<svg width="80" height="79" viewBox="0 0 80 79" fill="none" xmlns="http://www.w3.org/2000/svg">
    <rect x="20.4102" y="22.3235" width="45.5519" height="36.0928" fill="#E0E5FF"/>
    <path
        d="M0.869141 39.25C0.869141 28.8718 4.99189 18.9186 12.3304 11.5801C19.669 4.24152 29.6221 0.118774 40.0004 0.118774C50.3787 0.118774 60.3318 4.24152 67.6704 11.5801C75.0089 18.9186 79.1317 28.8718 79.1317 39.25C79.1317 49.6283 75.0089 59.5815 67.6704 66.92C60.3318 74.2585 50.3787 78.3813 40.0004 78.3813C29.6221 78.3813 19.669 74.2585 12.3304 66.92C4.99189 59.5815 0.869141 49.6283 0.869141 39.25ZM30.2176 28.6504V49.8497C30.2172 50.4939 30.3864 51.1268 30.7082 51.6848C31.03 52.2428 31.4931 52.7063 32.0508 53.0285C32.6086 53.3508 33.2414 53.5205 33.8856 53.5206C34.5297 53.5207 35.1626 53.3512 35.7204 53.0291L55.8975 41.368C56.2692 41.1533 56.5779 40.8446 56.7926 40.4728C57.0072 40.101 57.1202 39.6793 57.1202 39.25C57.1202 38.8207 57.0072 38.399 56.7926 38.0272C56.5779 37.6555 56.2692 37.3467 55.8975 37.1321L35.7204 25.4758C35.1626 25.1537 34.5297 24.9842 33.8856 24.9843C33.2414 24.9844 32.6086 25.1542 32.0508 25.4764C31.4931 25.7987 31.03 26.2621 30.7082 26.8201C30.3864 27.3782 30.2172 28.0111 30.2176 28.6552V28.6504Z"
        fill="url(#paint0_linear)"/>
    <defs>
        <linearGradient id="paint0_linear" x1="11.2274" y1="13.1625" x2="69.1586" y2="64.7999"
                        gradientUnits="userSpaceOnUse">
            <stop stop-color="#07EFF7"/>
            <stop offset="0.541667" stop-color="#2A29FF"/>
            <stop offset="1" stop-color="#F590A1"/>
        </linearGradient>
    </defs>
</svg>
