<svg width="19" height="20" viewBox="0 0 19 20" fill="none" xmlns="http://www.w3.org/2000/svg">
    <mask id="mask0" mask-type="alpha" maskUnits="userSpaceOnUse" x="0" y="0" width="19" height="20">
        <circle cx="9.5" cy="10" r="9.5" fill="#C4C4C4"/>
    </mask>
    <g mask="url(#mask0)">
        <path fill-rule="evenodd" clip-rule="evenodd" d="M0 0.5H19V19.5H0V0.5Z" fill="#00AFCA"/>
        <path
            d="M9.5005 11.45C11.0828 11.45 12.3655 10.1673 12.3655 8.585C12.3655 7.00271 11.0828 5.72 9.5005 5.72C7.9182 5.72 6.6355 7.00271 6.6355 8.585C6.6355 10.1673 7.9182 11.45 9.5005 11.45Z"
            fill="#FFCC4D"/>
        <path
            d="M9.50251 5.504C9.67251 5.502 9.73451 5.395 9.73451 5.268C9.73451 5.098 9.50251 3.772 9.50251 3.772C9.50251 3.772 9.26651 5.098 9.26651 5.268C9.26651 5.395 9.33051 5.504 9.50251 5.504ZM9.50251 11.682C9.33051 11.683 9.26651 11.79 9.26651 11.917C9.26651 12.088 9.50251 13.396 9.50251 13.396C9.50251 13.396 9.73451 12.087 9.73451 11.917C9.73551 11.791 9.67251 11.682 9.50251 11.682ZM8.70151 11.561C8.53651 11.519 8.44951 11.606 8.41651 11.729C8.37251 11.893 8.25351 13.235 8.25351 13.235C8.25351 13.235 8.82451 12.014 8.86851 11.85C8.90251 11.727 8.86751 11.605 8.70151 11.561V11.561ZM10.3015 5.593C10.4675 5.637 10.5575 5.549 10.5905 5.427C10.6345 5.262 10.7445 3.937 10.7445 3.937C10.7445 3.937 10.1825 5.14 10.1375 5.306C10.1045 5.428 10.1365 5.549 10.3015 5.593V5.593ZM7.95851 11.251C7.80951 11.168 7.70251 11.229 7.63951 11.34C7.55451 11.487 7.09251 12.752 7.09251 12.752C7.09251 12.752 7.95951 11.721 8.04451 11.574C8.10851 11.463 8.10751 11.337 7.95851 11.251V11.251ZM11.0475 5.9C11.1965 5.986 11.3065 5.924 11.3695 5.814C11.4555 5.666 11.9045 4.416 11.9045 4.416C11.9045 4.416 11.0485 5.433 10.9625 5.58C10.9005 5.69 10.9005 5.815 11.0475 5.9ZM7.32051 10.762C7.19851 10.643 7.07951 10.674 6.98951 10.764C6.86951 10.885 6.09551 11.987 6.09551 11.987C6.09551 11.987 7.20051 11.215 7.32051 11.096C7.41051 11.006 7.44251 10.882 7.32051 10.762V10.762ZM11.6895 6.392C11.8115 6.513 11.9325 6.482 12.0225 6.392C12.1435 6.272 12.9015 5.179 12.9015 5.179C12.9015 5.179 11.8125 5.941 11.6925 6.062C11.6025 6.152 11.5695 6.272 11.6895 6.392V6.392ZM6.83251 10.123C6.74551 9.977 6.62251 9.977 6.51151 10.04C6.36351 10.125 5.33151 10.989 5.33151 10.989C5.33151 10.989 6.59851 10.531 6.74551 10.446C6.85651 10.382 6.91851 10.272 6.83251 10.123V10.123ZM12.1825 7.034C12.2695 7.183 12.3955 7.184 12.5045 7.121C12.6525 7.035 13.6675 6.177 13.6675 6.177C13.6675 6.177 12.4185 6.63 12.2705 6.715C12.1605 6.779 12.0985 6.886 12.1825 7.034ZM6.52551 9.38C6.47951 9.216 6.35951 9.184 6.23651 9.216C6.07251 9.26 4.85151 9.828 4.85151 9.828C4.85151 9.828 6.19351 9.713 6.35751 9.669C6.48051 9.635 6.56951 9.546 6.52551 9.38V9.38ZM12.4915 7.78C12.5375 7.946 12.6575 7.98 12.7805 7.947C12.9455 7.903 14.1485 7.337 14.1485 7.337C14.1485 7.337 12.8245 7.451 12.6585 7.495C12.5365 7.527 12.4475 7.616 12.4915 7.78ZM6.42051 8.583C6.41851 8.413 6.31151 8.351 6.18451 8.351C6.01451 8.351 4.68851 8.583 4.68851 8.583C4.68851 8.583 6.01451 8.819 6.18451 8.819C6.31151 8.819 6.42051 8.755 6.42051 8.583ZM12.5985 8.583C12.5995 8.755 12.7065 8.819 12.8335 8.819C13.0045 8.819 14.3125 8.583 14.3125 8.583C14.3125 8.583 13.0035 8.351 12.8335 8.351C12.7065 8.35 12.5985 8.413 12.5985 8.583ZM6.52551 7.786C6.56751 7.621 6.48051 7.534 6.35751 7.501C6.19351 7.457 4.85151 7.338 4.85151 7.338C4.85151 7.338 6.07251 7.909 6.23651 7.953C6.35951 7.986 6.48151 7.952 6.52551 7.786ZM12.4925 9.385C12.4485 9.551 12.5365 9.641 12.6585 9.674C12.8235 9.718 14.1485 9.828 14.1485 9.828C14.1485 9.828 12.9455 9.265 12.7795 9.221C12.6575 9.189 12.5365 9.22 12.4925 9.385V9.385ZM6.83351 7.043C6.91651 6.895 6.85551 6.787 6.74451 6.724C6.59751 6.639 5.33251 6.177 5.33251 6.177C5.33251 6.177 6.36351 7.044 6.51051 7.129C6.62151 7.193 6.74751 7.191 6.83351 7.043V7.043ZM12.1845 10.132C12.0985 10.281 12.1605 10.391 12.2705 10.454C12.4175 10.54 13.6685 10.989 13.6685 10.989C13.6685 10.989 12.6515 10.134 12.5045 10.048C12.3945 9.985 12.2695 9.985 12.1845 10.132V10.132ZM7.32251 6.405C7.44151 6.283 7.41051 6.164 7.32051 6.074C7.19951 5.954 6.09751 5.18 6.09751 5.18C6.09751 5.18 6.86951 6.285 6.98851 6.405C7.07851 6.495 7.20151 6.527 7.32251 6.405ZM11.6925 10.774C11.5715 10.896 11.6025 11.018 11.6925 11.107C11.8125 11.228 12.9055 11.986 12.9055 11.986C12.9055 11.986 12.1435 10.897 12.0225 10.776C11.9325 10.686 11.8125 10.653 11.6925 10.774V10.774ZM7.96251 5.916C8.10751 5.829 8.10851 5.706 8.04551 5.595C7.96051 5.448 7.09651 4.415 7.09651 4.415C7.09651 4.415 7.55451 5.682 7.63951 5.829C7.70251 5.94 7.81351 6.002 7.96251 5.916V5.916ZM11.0515 11.267C10.9035 11.353 10.9015 11.478 10.9645 11.588C11.0505 11.736 11.9085 12.751 11.9085 12.751C11.9085 12.751 11.4555 11.501 11.3705 11.353C11.3065 11.244 11.1985 11.181 11.0515 11.267V11.267ZM8.70451 5.609C8.86851 5.563 8.90051 5.443 8.86851 5.32C8.82451 5.156 8.25651 3.935 8.25651 3.935C8.25651 3.935 8.37151 5.277 8.41551 5.441C8.44851 5.564 8.53851 5.653 8.70451 5.609V5.609ZM10.3045 11.576C10.1385 11.622 10.1045 11.742 10.1375 11.865C10.1815 12.03 10.7475 13.233 10.7475 13.233C10.7475 13.233 10.6335 11.908 10.5895 11.744C10.5575 11.621 10.4685 11.532 10.3045 11.576V11.576Z"
            fill="#FFCC4D"/>
        <path
            d="M12.3115 15.717L12.2745 15.733L12.2335 15.739L12.2025 15.745L12.1455 15.733L12.1205 15.723L12.0975 15.712L12.0705 15.695L12.0255 15.663L11.9845 15.63L11.9615 15.614L11.9325 15.602L11.9125 15.597H11.8835L11.7705 15.832L11.7475 15.865L11.7255 15.892L11.7025 15.909L11.6825 15.926L11.6535 15.937H11.6265L11.6015 15.926L11.5665 15.909L11.5565 15.892L11.5445 15.875L11.5325 15.853L11.5205 15.827L11.5045 15.744L11.4715 15.771L11.4405 15.81L11.3785 15.904L11.3415 15.953L11.3025 15.991L11.2815 16.014L11.2545 16.031L11.2275 16.043L11.1945 16.053H11.1785L11.1495 16.059L11.1225 16.053L11.1015 16.043L11.0375 15.966L10.9655 15.889L10.9165 15.966L10.8595 16.031L10.8325 16.058L10.8075 16.085L10.7805 16.107L10.7295 16.135L10.7025 16.141H10.6755L10.6525 16.135L10.6305 16.123L10.6145 16.106L10.5935 16.08C10.5795 16.0393 10.5645 15.999 10.5485 15.959L10.5425 15.931L10.5325 15.91L10.5205 15.899H10.5085L10.3605 16.141L10.3395 16.162L10.3005 16.179L10.2145 16.2H10.1635L10.1245 16.189L10.1125 16.183L10.0965 16.166L10.0925 16.156V16.134L10.1125 15.892L10.0965 15.898L10.0535 15.919C10.0141 15.9601 9.97578 16.0021 9.9385 16.045L9.8895 16.106L9.8285 16.157L9.7715 16.2L9.7395 16.218L9.6735 16.228L9.6465 16.222L9.6345 16.218L9.6235 16.206L9.6175 16.189V16.172L9.6235 16.102L9.6405 15.991L9.6295 15.926L9.6065 15.888L9.5735 15.937L9.5195 16.008C9.47452 16.057 9.42851 16.105 9.3815 16.152C9.3552 16.1694 9.32951 16.1878 9.3045 16.207L9.2445 16.228L9.2325 16.222H9.2155L9.2035 16.212L9.1995 16.206L9.1875 16.189L9.1835 16.172V16.151L9.1775 16.123L9.1835 15.915C9.0835 15.983 8.9825 16.049 8.8805 16.112L8.8425 16.129L8.7995 16.151C8.7585 16.161 8.7185 16.171 8.6785 16.183H8.6385L8.6015 16.178L8.5675 16.166L8.5845 16.122L8.6175 16.045L8.6385 16.013L8.6625 15.98L8.6835 15.947L8.7395 15.892L8.8005 15.849L8.8705 15.804L8.9425 15.771L9.0255 15.744L9.1075 15.723L9.2945 15.69L9.3875 15.678C9.6635 15.662 9.9405 15.66 10.2165 15.662L10.5195 15.645L10.6135 15.634L10.7875 15.601L10.8715 15.578L10.9495 15.546L11.0215 15.513C11.0595 15.483 11.0985 15.453 11.1385 15.425L11.1915 15.363L11.1345 15.254L11.1795 15.248L11.2225 15.238L11.2675 15.216L11.3045 15.188L11.3205 15.178L11.3385 15.161L11.3505 15.139L11.3625 15.123L11.3665 15.101V15.063L11.3545 15.041L11.4485 15.024L11.5485 15.013L11.6535 15.007H11.7625C11.9155 15.013 12.0675 15.022 12.2195 15.034C12.4495 15.062 12.6805 15.084 12.9115 15.106L13.1185 15.117V15.193L13.1145 15.227L13.1025 15.259L13.0925 15.292L13.0805 15.319L13.0645 15.341C13.0455 15.363 13.0245 15.385 13.0035 15.406L12.9545 15.438L12.9015 15.46L12.8485 15.472L12.7875 15.483L12.6705 15.472L12.6095 15.455L12.5565 15.427L12.4995 15.4L12.4565 15.361L12.4135 15.318V15.412C12.4055 15.473 12.3955 15.533 12.3865 15.594L12.3655 15.651L12.3535 15.674L12.3375 15.69L12.3255 15.707L12.3115 15.717V15.717ZM7.8935 15.2L8.0185 15.255C8.04348 15.2342 8.06916 15.2141 8.0955 15.195L8.1445 15.169L8.1885 15.141L8.3535 15.075L8.4955 15.009L8.5675 14.982L8.6895 14.917L8.7385 14.883C8.8625 14.802 8.9875 14.722 9.1125 14.643L9.2215 14.566L9.3045 14.5C9.3865 14.426 9.4665 14.351 9.5465 14.275L9.5795 14.253L9.6175 14.231C9.66301 14.208 9.70902 14.186 9.7555 14.165L9.8485 14.133C10.0345 14.082 10.2235 14.042 10.4135 14.012C10.6075 13.989 10.8015 13.963 10.9955 13.941L11.2535 13.897C11.3175 13.879 11.3815 13.863 11.4465 13.848L11.5125 13.765L11.6185 13.65L11.6905 13.579L11.7705 13.512L11.8645 13.441L11.9735 13.369L12.1395 13.271C12.2585 13.211 12.3765 13.151 12.4945 13.089C12.7045 12.991 12.9115 12.887 13.1175 12.781L13.2155 12.715L13.2425 12.632L13.2815 12.551L13.3305 12.468L13.4575 12.298C13.5155 12.236 13.5715 12.174 13.6275 12.11C13.6955 12.044 13.7655 11.98 13.8365 11.918L13.9425 11.831L13.9955 11.792L14.0525 11.754C14.0925 11.731 14.1325 11.709 14.1735 11.688L14.2345 11.66L14.2935 11.639L14.4225 11.605L14.4865 11.601L14.5475 11.595L14.6115 11.601L14.6725 11.611L14.6685 11.677L14.6525 11.742L14.6035 11.88L14.5625 11.951L14.5135 12.023L14.4535 12.099L14.3815 12.176L14.4385 12.17L14.4875 12.159L14.5265 12.147L14.5635 12.131L14.6355 12.109L14.7385 12.098L14.7445 12.137V12.175L14.7385 12.213L14.7285 12.246L14.7125 12.279L14.6895 12.312L14.6685 12.338L14.6415 12.366C14.5659 12.4389 14.4889 12.5102 14.4105 12.58L14.4755 12.586C14.5235 12.601 14.5715 12.616 14.6205 12.629L14.6735 12.641L14.6095 12.691C14.5588 12.7249 14.5074 12.758 14.4555 12.79L14.2795 12.889L14.1915 12.944L14.1035 13.005L14.0215 13.071L14.0585 13.076L14.1095 13.098L14.1315 13.104L14.1525 13.115L14.1705 13.12L14.1865 13.115L14.0775 13.176C14.0093 13.208 13.9417 13.241 13.8745 13.275L13.7905 13.325L13.7745 13.342L13.7645 13.359L13.7525 13.375L13.7565 13.397L13.7685 13.414L13.7895 13.43L13.8095 13.448L13.8015 13.469L13.7895 13.487L13.7685 13.503L13.7485 13.52L13.6955 13.546L13.6315 13.574L13.5065 13.618L13.4285 13.657L13.5375 13.766L13.4985 13.804L13.4615 13.832L13.4285 13.849L13.3895 13.865L13.3135 13.876H13.2055L13.2175 13.926L13.2335 13.975L13.2565 14.086C13.1883 14.139 13.1186 14.19 13.0475 14.239L12.9205 14.321L12.7795 14.403L12.6955 14.442L12.6135 14.48C12.5209 14.516 12.4272 14.549 12.3325 14.579L12.1195 14.624L12.0025 14.641C12.1295 14.645 12.2565 14.647 12.3835 14.646L12.6955 14.613L12.8325 14.586L12.9535 14.553C13.0335 14.526 13.1115 14.496 13.1895 14.465L13.3415 14.395L13.4915 14.312L13.6325 14.223L13.7825 14.136L13.6925 14.092L13.6065 14.065L13.5655 14.046C13.5345 14.031 13.5035 14.016 13.4715 14.003L13.4205 13.975L13.4635 13.943L13.5165 13.921L13.5735 13.9C13.6395 13.884 13.7065 13.869 13.7725 13.855C13.8585 13.846 13.9445 13.835 14.0305 13.823L14.1395 13.812L14.2235 13.791L14.2455 13.779L14.2615 13.762L14.2575 13.756L14.2455 13.745L14.2295 13.739L14.2085 13.729L14.1475 13.717L14.0695 13.706L13.9935 13.7L13.9175 13.689L13.8495 13.672L13.8085 13.655L14.3455 13.535L14.4395 13.507C14.4805 13.492 14.5205 13.475 14.5605 13.458L14.6135 13.424L14.6365 13.403L14.6305 13.398L14.6205 13.386L14.5695 13.375L14.4995 13.369H14.4155C14.3585 13.365 14.3025 13.361 14.2455 13.359L14.1755 13.347L14.1305 13.336L14.2085 13.304C14.3245 13.268 14.4425 13.235 14.5605 13.204C14.6275 13.181 14.6955 13.158 14.7635 13.138L14.8675 13.094L14.9165 13.067L14.9615 13.04L14.9775 13.023L14.9945 13.001L15.0105 12.985L15.0165 12.968L15.0105 12.951L14.9945 12.939L14.9775 12.935H14.8255L14.7535 12.939H14.6555L14.6265 12.935L14.6075 12.923L14.5835 12.912C14.7835 12.78 14.9855 12.649 15.1885 12.521L15.3465 12.411C15.3891 12.3758 15.4308 12.3394 15.4715 12.302L15.5205 12.247L15.5655 12.192L15.5985 12.132L15.6255 12.072L15.6415 12.005V11.934H15.6045L15.5655 11.94L15.4795 11.972C15.4033 12.0199 15.326 12.0659 15.2475 12.11L15.2045 12.138L15.1535 12.159L15.1045 12.176L15.0595 12.187L15.0165 12.193H14.9655L14.9225 12.176L15.0555 12.077C15.1625 11.986 15.2685 11.894 15.3735 11.802C15.4896 11.6911 15.6029 11.5774 15.7135 11.461L15.8715 11.285C15.9185 11.223 15.9665 11.163 16.0155 11.103C16.0545 11.047 16.0935 10.99 16.1305 10.933L16.1425 10.912L16.1465 10.895L16.1425 10.872L16.1365 10.856L16.1305 10.838L16.1145 10.827L16.0975 10.81L16.0815 10.804L16.0605 10.794L16.0365 10.788H15.9935L15.9725 10.794L15.9435 10.798L15.9275 10.816L15.9045 10.833C15.7925 10.945 15.6815 11.059 15.5725 11.174L15.4395 11.3C15.3522 11.3761 15.2642 11.4515 15.1755 11.526C15.1338 11.5543 15.0914 11.5816 15.0485 11.608L14.9275 11.669L14.9645 11.636C15.0045 11.598 15.0435 11.56 15.0815 11.521C15.2225 11.359 15.3575 11.191 15.4875 11.021L15.7415 10.664L15.8095 10.544L15.8775 10.434L15.9325 10.334L15.9755 10.24L16.0025 10.164L16.0085 10.137V10.093L16.0025 10.076L15.9825 10.043L15.9705 10.032L15.9525 10.027L15.9215 10.009L15.8805 9.99801H15.8055L15.7845 10.004L15.7685 10.009L15.7455 10.021L15.7295 10.037L15.6845 10.076C15.6352 10.1354 15.5875 10.1961 15.5415 10.258C15.4315 10.43 15.3155 10.598 15.1955 10.763L15.0565 10.928L14.9865 11L14.9105 11.066L15.0085 10.883L15.1625 10.56L15.2625 10.324L15.3055 10.203L15.3815 9.95501C15.4005 9.87501 15.4175 9.79501 15.4325 9.71401C15.4395 9.63901 15.4455 9.56401 15.4505 9.48801L15.4425 9.43301L15.4385 9.38401L15.4325 9.33301L15.4165 9.26901L15.4045 9.25101L15.3775 9.22401L15.3405 9.20801L15.2995 9.19601H15.2625L15.2275 9.20201L15.2175 9.20801L15.2015 9.21201L15.1955 9.22401C15.0965 9.53601 15.0215 9.85401 14.9355 10.169C14.9035 10.257 14.8715 10.345 14.8375 10.433L14.7555 10.592L14.7045 10.663L14.7375 10.505C14.7535 10.413 14.7675 10.322 14.7805 10.23L14.8035 10.004L14.8095 9.91001C14.8065 9.86227 14.8025 9.81459 14.7975 9.76701L14.7875 9.71201L14.7715 9.66801L14.7485 9.63501L14.7365 9.62401L14.7035 9.61301L14.6875 9.60701H14.6695L14.6535 9.61301L14.6085 9.62401L14.5655 9.64601C14.5315 9.81601 14.4905 9.98501 14.4445 10.152C14.379 10.3627 14.3022 10.5696 14.2145 10.772C14.1552 10.8964 14.0925 11.0191 14.0265 11.14L13.9055 11.349L13.7745 11.546C13.6866 11.669 13.5956 11.7897 13.5015 11.908C13.4095 12.012 13.3155 12.114 13.2205 12.216C13.1215 12.313 13.0205 12.409 12.9175 12.503C12.8115 12.591 12.7045 12.676 12.5955 12.76C12.4626 12.8561 12.3265 12.9479 12.1875 13.035L11.9455 13.177L11.5605 13.354L11.1645 13.496L10.8365 13.596L10.4965 13.672L10.3265 13.7L9.9785 13.744L9.8025 13.755L9.7855 13.761L9.7685 13.766L9.7355 13.784L9.6985 13.81C9.65544 13.8475 9.6131 13.8859 9.5715 13.925L9.4835 14.014L9.1645 14.37L9.0435 14.491L8.9015 14.6L8.8455 14.638L8.7905 14.672L8.6705 14.727C8.4845 14.803 8.2955 14.872 8.1085 14.947L8.0595 14.974L8.0155 14.997L7.9835 15.018L7.9225 15.079L7.9055 15.106L7.8935 15.133L7.8895 15.172V15.2"
            fill="#FFCC4D"/>
        <path
            d="M9.90649 15.447L9.99849 15.459L10.0435 15.476L10.0535 15.481V15.487H10.0435L10.0315 15.492L9.94349 15.509H9.87349L9.64349 15.492L9.06048 15.481C8.90648 15.483 8.75248 15.487 8.59848 15.492C8.46248 15.502 8.32749 15.513 8.19149 15.525L8.08649 15.542L7.99349 15.563C7.97149 15.571 7.95048 15.579 7.92848 15.585L7.90049 15.597L7.87849 15.614L7.88849 15.558L7.91249 15.502L7.83549 15.524L7.76949 15.557L7.74349 15.574L7.72048 15.596L7.70349 15.622L7.69948 15.65L7.68349 15.612L7.67148 15.578C7.66854 15.5542 7.66454 15.5305 7.65949 15.507C7.66549 15.478 7.67148 15.449 7.67548 15.42L7.69349 15.392L7.70349 15.37L7.72649 15.344L7.77049 15.3L7.83049 15.261L7.89849 15.223C7.93432 15.244 7.97261 15.2604 8.01249 15.272C8.05183 15.2756 8.09149 15.2718 8.12949 15.261C8.19049 15.315 8.34849 15.304 8.37049 15.206C8.379 15.1698 8.379 15.1322 8.37049 15.096L8.43649 15.091L8.51349 15.079L8.68349 15.035L8.77248 15.018L8.85449 14.997L8.93149 14.986L8.99649 14.98L8.96949 15.003L8.82649 15.112L8.77248 15.15L8.84249 15.168L8.90349 15.179L8.77349 15.327L8.73949 15.371L8.78249 15.388L8.82649 15.4L8.87648 15.411H8.97549L9.07349 15.389L9.11248 15.366L9.15749 15.389L9.20149 15.406C9.22949 15.414 9.25849 15.422 9.28749 15.428C9.35549 15.435 9.42349 15.443 9.49249 15.449H9.90649V15.447ZM9.40549 13.777L9.35649 13.876L9.30048 14.003C9.27171 14.0547 9.24469 14.1074 9.21949 14.161L9.19149 14.189L9.12648 14.134L9.05449 14.084L8.97748 14.045L8.89649 14.013L8.71949 13.968L8.63249 13.952C8.53735 13.941 8.442 13.932 8.34649 13.925C8.21999 13.923 8.0936 13.917 7.96749 13.907L7.79149 13.886L7.69248 13.869L7.59949 13.848L7.50148 13.814L7.41848 13.771L7.35749 13.731L7.23149 13.638C7.04749 13.465 6.86549 13.29 6.67649 13.121L6.56748 13.045L6.51749 13.023L6.46549 13.007L6.37249 12.986C6.31818 12.9666 6.2635 12.9483 6.20849 12.931C6.15729 12.9063 6.10561 12.8827 6.05349 12.86C5.9628 12.8038 5.87502 12.7431 5.79049 12.678L5.73549 12.627L5.62649 12.518L5.52149 12.403C5.34849 12.192 5.18549 11.974 5.01649 11.76C4.93568 11.6742 4.85333 11.5899 4.76949 11.507L4.69849 11.442L4.62649 11.382L4.46849 11.267L4.45249 11.272L4.43449 11.289L4.41749 11.311C4.40749 11.336 4.39949 11.362 4.39149 11.388L4.38549 11.41L4.34549 11.392L4.31249 11.375L4.27249 11.358L4.23949 11.347H4.16849L4.12949 11.358L4.09149 11.375C4.12149 11.413 4.15049 11.451 4.17849 11.49L4.22749 11.567L4.31649 11.737L4.34849 11.82L4.36049 11.864L4.37249 11.897L4.37749 11.935V11.967H4.08149L4.12449 12.033C4.15749 12.078 4.19249 12.122 4.22749 12.165L4.40949 12.347L4.47049 12.396L4.52649 12.435C4.47891 12.44 4.43123 12.444 4.38349 12.447L4.23949 12.463L4.28849 12.508C4.33149 12.538 4.37349 12.569 4.41549 12.601L4.48649 12.65L4.55849 12.694L4.62949 12.733L4.69549 12.755L4.75649 12.771L4.80549 12.782L4.82149 12.788L4.83349 12.8L4.83749 12.805V12.826L4.82149 12.871L4.81749 12.903L4.81049 12.925V12.941L4.81749 12.969L4.82149 12.991L4.83349 13.001L4.84949 13.013L4.87049 13.024L4.89849 13.03L4.95449 13.052L4.98149 13.062L5.00349 13.079L5.00849 13.085V13.096L5.00349 13.102L4.95949 13.134L4.93749 13.156L4.91549 13.183V13.206L4.91049 13.228L4.92149 13.287L5.11349 13.353L5.15749 13.363L5.20149 13.381L5.23449 13.398L5.26249 13.415L5.08049 13.558L5.12949 13.602L5.19049 13.635L5.26749 13.673C5.32249 13.693 5.37749 13.711 5.43349 13.729L5.51549 13.745L5.58749 13.762H5.65249L5.59149 13.806L5.51449 13.855L5.43249 13.9L5.37149 13.944L5.42649 13.982C5.59349 14.068 5.76449 14.148 5.93849 14.219C6.24249 14.343 6.55348 14.451 6.86648 14.548C6.93648 14.565 7.00548 14.583 7.07448 14.603L7.16249 14.62L6.98549 14.603C6.87546 14.5888 6.76577 14.5721 6.65649 14.553L6.50249 14.52L6.19949 14.433L6.05749 14.383C5.67749 14.235 5.30649 14.065 4.92549 13.921L4.95349 13.905L5.03049 13.877L5.07949 13.866C5.14649 13.846 5.21149 13.824 5.27749 13.8C5.14655 13.7802 5.01617 13.7568 4.88649 13.73C4.81928 13.7082 4.7516 13.6878 4.68349 13.669L4.64449 13.652L4.61149 13.635L4.58449 13.617L4.56649 13.601V13.596L4.57249 13.59L4.58949 13.584L4.60549 13.573L4.64949 13.556L4.84149 13.5L4.95249 13.462C4.79349 13.432 4.63349 13.405 4.47349 13.38L4.39649 13.362L4.33549 13.341L4.31349 13.329L4.29249 13.312L4.27449 13.302L4.26349 13.284L4.28049 13.273L4.32949 13.262C4.38049 13.254 4.43249 13.245 4.48349 13.235L4.57149 13.224C4.62149 13.21 4.67049 13.195 4.71949 13.179L4.74249 13.163L4.76449 13.145L4.67749 13.112L4.62149 13.102L4.56649 13.09L4.31449 13.057L4.24849 13.041L4.18749 13.029L4.06649 12.986L4.01049 12.958L3.96549 12.926L3.92149 12.887L3.88849 12.838L3.90049 12.832L3.92149 12.826H3.94949L3.99349 12.832L4.20249 12.843L4.32449 12.855H4.47749L4.52049 12.849L4.55449 12.838L4.57649 12.826C4.47303 12.7839 4.37034 12.7399 4.26849 12.694C4.20107 12.6598 4.13306 12.6268 4.06449 12.595L3.85649 12.486L3.75749 12.425C3.69651 12.3819 3.63617 12.3379 3.57649 12.293L3.49949 12.227L3.46549 12.189L3.43149 12.156L3.41049 12.123L3.38749 12.084L3.36549 12.052L3.35349 12.014L3.34449 11.943H3.38149L3.42549 11.948L3.46949 11.966L3.51349 11.982L3.60049 12.037L3.69949 12.092L3.74349 12.12L3.79249 12.146L3.84149 12.168L3.88549 12.185L3.93449 12.197L3.97849 12.202H4.02849L4.07149 12.185L3.94149 12.085C3.83378 11.9956 3.72744 11.9046 3.62249 11.812C3.44844 11.6463 3.2813 11.4735 3.12149 11.294L3.05149 11.201L2.97949 11.113C2.94001 11.0566 2.90134 10.9996 2.86349 10.942L2.85349 10.92V10.882L2.85849 10.865L2.86349 10.849L2.88049 10.838L2.89649 10.821L2.91449 10.809L2.93549 10.803L2.95749 10.799H3.00149L3.02849 10.803L3.05249 10.809L3.07349 10.826C3.19249 10.944 3.30949 11.063 3.42449 11.184C3.55149 11.306 3.68349 11.424 3.82049 11.536L3.94649 11.617L4.01149 11.651L4.07249 11.672L4.02949 11.645L3.91449 11.53C3.77349 11.368 3.63949 11.2 3.50749 11.03C3.44935 10.9502 3.39234 10.8695 3.33649 10.788C3.28667 10.7084 3.23532 10.6297 3.18249 10.552C3.1406 10.4833 3.10026 10.4136 3.06149 10.343C3.03919 10.2859 3.01585 10.2292 2.99149 10.173L2.98449 10.146V10.101L2.99149 10.085L3.01249 10.052L3.02449 10.04L3.04149 10.03L3.11249 10.007H3.18949L3.21149 10.012L3.22749 10.018L3.24949 10.03L3.31049 10.085L3.45349 10.267C3.56549 10.439 3.68349 10.607 3.80549 10.772L3.93549 10.937L4.00749 11.008L4.08449 11.074C3.9969 10.9078 3.91288 10.7398 3.83249 10.57C3.79846 10.4918 3.76546 10.4131 3.73349 10.334L3.68949 10.213C3.66625 10.1296 3.64057 10.0469 3.61249 9.96501L3.58549 9.84401L3.56549 9.72101L3.55349 9.60601L3.54849 9.49701L3.55349 9.44201L3.56049 9.39201L3.56549 9.34201L3.57649 9.29301L3.58749 9.27501L3.59349 9.25901L3.60949 9.24101L3.62049 9.23101L3.65849 9.21401L3.69749 9.20401H3.73549L3.76849 9.21001L3.78449 9.21401L3.79649 9.22001L3.80249 9.23201L3.80849 9.24801C3.90249 9.55501 3.97949 9.86701 4.06049 10.178C4.09249 10.265 4.12549 10.351 4.16049 10.436L4.19849 10.518L4.24249 10.595L4.29149 10.672L4.25949 10.512C4.24693 10.4207 4.23226 10.3297 4.21549 10.239C4.2045 10.1329 4.1955 10.0265 4.18849 9.92001L4.19949 9.77701L4.21049 9.72101L4.22749 9.67801L4.24949 9.64501L4.26049 9.63301L4.27649 9.62201L4.29249 9.61701H4.34249L4.38749 9.63301L4.43049 9.65501L4.50749 10.001C4.53549 10.106 4.56649 10.211 4.60049 10.314C4.65649 10.471 4.71749 10.627 4.78249 10.781L4.85949 10.94L4.96949 11.15L5.08949 11.358L5.22249 11.556L5.36449 11.753L5.49749 11.918C5.58949 12.022 5.68249 12.125 5.77749 12.226C5.87649 12.323 5.97749 12.418 6.08049 12.511L6.23949 12.644C6.38549 12.758 6.53549 12.866 6.69049 12.968C6.81149 13.04 6.93449 13.11 7.05849 13.177L7.43649 13.359C7.62849 13.435 7.82249 13.505 8.01849 13.567C8.21049 13.618 8.40549 13.662 8.60149 13.699C8.86449 13.741 9.13449 13.766 9.40549 13.777"
            fill="#FFCC4D"/>
    </g>
</svg>
